<!DOCTYPE svg PUBLIC "-//W3C//DTD SVG 20010904//EN" "http://www.w3.org/TR/2001/REC-SVG-20010904/DTD/svg10.dtd">
<svg version="1.0" xmlns="http://www.w3.org/2000/svg" width="854px" height="854px" viewBox="0 0 8540 8540" preserveAspectRatio="xMidYMid meet">
<g id="layer101" fill="#000000" stroke="none">
 <path d="M3903 7772 c-13 -2 -23 -8 -23 -14 0 -6 -18 -7 -50 -3 -39 5 -50 4 -50 -7 0 -18 -62 -46 -68 -29 -2 7 -8 8 -15 3 -7 -5 -33 -12 -58 -14 -32 -4 -64 -18 -105 -45 -61 -41 -129 -75 -176 -86 -16 -4 -58 -27 -95 -51 -38 -24 -88 -52 -113 -63 -47 -21 -43 -16 -157 -208 -20 -33 -57 -98 -83 -145 -26 -47 -61 -111 -79 -142 -17 -31 -42 -87 -55 -125 -13 -38 -31 -83 -40 -101 -9 -17 -16 -54 -16 -83 0 -62 -16 -164 -37 -237 -8 -29 -13 -67 -10 -85 5 -37 -9 -133 -29 -195 -8 -23 -19 -120 -24 -215 -14 -235 -17 -253 -45 -281 -18 -18 -33 -68 -74 -242 -85 -362 -90 -391 -120 -599 l-29 -200 18 -95 c11 -52 19 -111 20 -130 0 -19 5 -42 10 -50 12 -17 5 81 -15 217 -7 54 -8 86 -2 92 6 6 12 45 15 88 2 43 10 85 17 93 12 14 35 123 30 145 -1 5 0 7 2 4 2 -4 19 -2 37 3 33 11 41 27 48 105 1 7 5 10 10 7 5 -3 6 12 2 34 -4 25 -2 42 5 46 11 7 16 -35 12 -99 -1 -17 2 -42 8 -55 8 -22 10 -19 11 25 1 38 4 45 10 30 7 -16 9 -14 9 15 1 27 -2 32 -10 20 -8 -11 -9 -9 -3 10 13 42 17 260 5 260 -6 0 -11 5 -11 11 0 7 -6 17 -14 23 -10 8 -12 18 -5 33 13 34 36 19 31 -20 l-4 -32 16 29 c9 15 16 42 17 60 0 17 4 40 9 51 7 16 9 11 9 -22 1 -50 21 -70 21 -21 0 25 3 29 10 18 9 -14 13 36 15 177 0 22 3 45 8 49 4 4 7 14 7 23 0 14 -2 14 -10 1 -7 -11 -10 0 -10 38 0 28 4 52 10 52 5 0 9 8 8 18 -2 33 2 52 13 52 6 0 10 -12 9 -27 -3 -46 -1 -63 10 -63 6 0 10 14 10 31 0 17 4 28 10 24 6 -3 10 1 10 9 0 9 -4 16 -10 16 -5 0 -10 16 -10 35 0 32 7 40 33 36 4 0 7 3 7 8 0 5 9 11 20 14 12 3 21 14 21 29 1 16 4 13 9 -12 l7 -35 2 39 c0 24 8 44 19 52 16 13 16 13 -1 14 -10 0 -15 5 -12 10 4 6 15 8 26 5 24 -8 49 16 49 48 0 14 7 28 16 31 10 4 14 14 11 26 -3 11 -1 20 4 20 5 0 9 -8 9 -18 0 -24 8 -32 26 -25 8 3 14 15 14 27 0 17 6 22 23 22 12 -1 25 -8 29 -16 4 -8 7 4 7 28 1 26 5 41 11 37 6 -4 10 20 10 64 0 38 5 73 10 76 6 3 10 17 10 31 0 13 6 24 13 24 11 0 14 -20 15 -77 1 -43 6 -79 12 -81 5 -2 10 -17 10 -33 0 -16 4 -29 9 -29 5 0 14 -14 20 -30 10 -30 45 -52 68 -43 7 3 14 -12 18 -42 7 -44 8 -45 26 -29 11 9 19 12 19 7 0 -6 9 -13 20 -16 11 -3 20 -1 20 5 0 5 5 6 11 3 6 -4 8 -13 5 -21 -3 -8 -1 -14 3 -14 5 0 12 7 15 16 9 25 60 14 64 -13 4 -26 19 -29 46 -8 17 13 18 15 3 15 -9 0 -17 5 -17 11 0 14 62 1 72 -15 5 -6 8 -2 8 12 0 15 6 22 20 22 11 0 20 -4 20 -10 0 -5 8 -11 18 -11 9 -1 1 -5 -18 -9 l-35 -7 38 -2 c29 -1 37 3 37 17 1 15 2 15 15 -2 16 -21 32 -27 80 -30 17 0 36 -7 44 -14 12 -11 15 -11 22 0 5 7 9 8 9 3 0 -14 75 -36 96 -28 14 5 16 3 11 -11 -4 -10 -3 -15 4 -11 5 4 16 1 24 -5 9 -8 15 -8 15 -2 0 6 -6 12 -12 14 -8 3 -12 19 -10 41 2 22 -1 37 -7 37 -6 0 -11 -9 -11 -20 0 -19 -1 -19 -20 -2 -11 9 -16 18 -10 20 5 2 7 8 4 14 -4 5 4 9 17 8 40 -4 49 -1 49 16 0 12 7 14 30 9 26 -6 30 -4 30 15 0 12 4 18 10 15 6 -4 8 -10 5 -15 -3 -4 3 -7 12 -6 9 2 19 8 21 15 3 9 7 9 18 0 10 -8 14 -8 14 0 0 6 3 10 8 10 30 -5 35 3 13 21 -26 23 -47 26 -53 8 -3 -7 -20 -11 -46 -10 -23 2 -42 -1 -42 -7 0 -9 -73 -51 -90 -51 -6 0 -10 7 -10 16 0 10 -8 15 -22 14 -42 -4 -58 0 -55 13 1 7 -10 12 -28 13 -130 3 -135 4 -135 19 0 10 -8 15 -22 14 -46 -4 -58 1 -59 24 0 12 -2 17 -5 12 -2 -6 -24 -9 -49 -7 -39 4 -43 6 -30 19 8 8 23 12 34 8 24 -7 51 4 51 21 0 18 15 18 34 -1 12 -13 20 -14 37 -4 14 7 29 8 43 2 26 -12 78 -6 88 10 6 9 8 9 8 0 0 -7 7 -13 15 -13 8 0 15 7 15 15 0 8 6 15 14 15 8 0 18 5 22 12 5 8 0 9 -14 6 -15 -4 -22 -2 -22 8 0 8 4 14 9 14 21 0 41 -13 41 -26 0 -8 9 -14 19 -14 14 0 18 5 14 20 -6 21 24 41 36 23 3 -5 14 -12 24 -16 13 -5 17 -1 17 19 0 14 -7 32 -15 40 -9 9 -15 11 -15 4 0 -6 -15 -10 -32 -10 -46 2 -159 -8 -165 -13 -2 -3 -17 -2 -33 3 -20 6 -32 4 -44 -8 -11 -11 -16 -12 -16 -4 0 7 -5 10 -10 7 -17 -10 -70 5 -70 20 0 20 20 29 33 16 17 -17 27 -13 27 10 0 11 5 17 10 14 6 -3 10 1 10 10 0 14 -6 15 -32 9 -18 -4 -39 -7 -45 -7 -7 0 -13 -6 -13 -14 0 -7 -9 -13 -20 -13 -11 0 -20 -5 -20 -11 0 -5 5 -7 10 -4 6 3 10 1 10 -4 0 -6 -7 -11 -15 -11 -7 0 -19 -8 -24 -17 -6 -10 -11 -14 -11 -10 0 4 -10 2 -22 -5 -13 -7 -26 -12 -30 -13 -4 0 -14 -9 -22 -20 -8 -11 -18 -17 -22 -12 -4 4 -2 7 4 7 7 0 12 7 12 16 0 17 -23 44 -37 44 -11 0 -63 53 -63 64 0 4 5 4 10 1 6 -3 10 3 10 15 0 12 -4 18 -10 15 -9 -6 -15 21 -11 51 2 19 -47 24 -52 5 -3 -9 -5 3 -6 27 0 24 4 53 10 64 8 14 8 23 0 31 -6 6 -11 21 -11 34 0 13 -6 23 -12 23 -7 0 -2 7 11 16 20 14 22 23 18 56 -4 27 -2 38 6 35 7 -2 12 -12 12 -23 0 -12 8 -20 23 -22 21 -3 22 0 22 64 l0 67 30 -6 c22 -5 30 -3 30 8 0 8 5 15 10 15 6 0 10 21 10 46 0 42 2 45 16 33 15 -13 17 -11 12 19 -3 21 -1 31 6 29 6 -2 10 -23 8 -46 -1 -23 2 -41 8 -41 5 0 10 6 10 14 0 8 7 17 16 20 12 4 14 14 9 36 -6 28 -4 30 21 30 36 0 65 34 58 70 -4 15 -1 31 5 34 6 4 11 18 11 32 0 21 4 24 20 19 16 -5 20 -2 20 15 l0 21 23 -21 22 -21 3 23 c5 33 17 42 35 24 12 -12 17 -13 20 -3 4 8 6 7 6 -4 2 -27 22 -40 38 -23 8 7 11 19 8 25 -5 7 3 10 21 7 22 -2 29 1 28 13 -1 9 5 16 12 16 8 0 14 -9 14 -19 0 -11 5 -16 10 -13 6 3 11 -4 11 -17 1 -18 2 -19 6 -5 3 12 10 16 24 12 27 -9 59 3 59 23 0 13 2 13 13 -3 10 -12 16 -14 21 -7 4 7 4 17 1 22 -3 6 -4 10 0 10 3 0 10 -10 15 -22 8 -22 9 -22 9 4 1 22 5 26 18 21 10 -4 12 -8 6 -10 -21 -7 24 -42 46 -36 15 4 21 1 21 -11 0 -10 -4 -14 -10 -11 -6 4 -10 -5 -10 -20 0 -14 4 -24 9 -20 5 3 12 -5 14 -17 l4 -23 2 23 c0 13 6 20 11 17 6 -3 10 -1 10 4 0 6 -4 11 -10 11 -5 0 -10 10 -10 21 0 18 2 20 16 9 13 -11 16 -10 21 11 5 18 11 2 24 -61 16 -84 17 -85 18 -32 1 35 -3 52 -11 52 -9 0 -10 3 -2 8 6 4 15 30 19 57 5 29 10 41 12 29 9 -52 103 -109 103 -63 0 13 10 18 43 20 37 3 43 1 39 -13 -3 -13 5 -18 33 -24 26 -5 33 -9 23 -15 -11 -7 -11 -9 0 -9 8 0 16 9 19 21 5 16 12 19 41 17 35 -3 59 -28 28 -28 -9 0 -16 -4 -16 -10 0 -5 6 -7 13 -4 7 2 23 -5 35 -16 19 -18 22 -18 22 -4 0 13 3 14 14 5 11 -9 16 -9 22 0 5 8 14 -5 26 -37 9 -27 17 -38 15 -25 -1 13 4 26 12 29 8 3 11 0 7 -7 -4 -6 -3 -11 3 -11 5 0 15 8 20 18 8 14 11 14 12 2 1 -8 1 -19 -1 -25 -1 -5 7 -1 18 8 20 18 20 17 27 -23 6 -33 10 -40 25 -35 12 4 19 -1 24 -17 9 -34 7 -50 -4 -43 -5 3 -10 1 -10 -4 0 -6 5 -11 10 -11 6 0 10 -10 11 -22 1 -22 1 -22 9 2 8 25 8 25 9 2 1 -25 17 -45 40 -50 24 -5 37 -27 48 -79 7 -35 7 -53 0 -56 -13 -4 0 -57 13 -57 6 0 10 9 10 20 0 13 7 20 20 20 11 0 20 5 20 11 0 5 4 8 8 5 4 -2 14 -1 22 5 12 7 10 9 -7 9 -14 0 -23 6 -23 15 0 18 20 20 20 3 1 -7 7 1 15 17 11 25 14 27 14 9 1 -22 40 -38 86 -36 11 1 14 -1 8 -4 -7 -3 -13 -12 -13 -19 0 -7 6 -16 13 -18 10 -4 10 -6 0 -6 -25 -2 -13 -21 13 -21 21 0 24 -3 19 -21 -6 -19 -4 -21 14 -16 23 6 31 -18 9 -26 -10 -3 -10 -7 -1 -19 7 -8 10 -18 6 -21 -3 -4 2 -9 11 -13 12 -5 16 -21 18 -63 l2 -56 6 70 c4 41 7 55 8 33 1 -23 7 -38 15 -38 9 0 8 -3 -2 -9 -10 -6 -10 -10 -1 -16 6 -4 17 1 25 11 7 11 17 16 21 11 4 -4 2 -7 -4 -7 -7 0 -12 -8 -12 -19 0 -23 48 -35 69 -18 11 9 13 9 8 0 -4 -6 -2 -15 4 -18 5 -4 8 -13 5 -21 -3 -8 0 -13 7 -11 7 1 11 -6 9 -18 -2 -11 -1 -17 4 -13 10 11 34 -39 27 -57 -3 -8 0 -15 6 -15 6 0 11 9 11 20 0 11 7 20 15 20 8 0 15 -6 15 -12 0 -9 4 -8 10 2 5 8 10 10 10 5 0 -6 -6 -17 -12 -24 -10 -11 -10 -13 0 -7 8 5 12 0 13 -13 3 -48 6 -52 48 -55 30 -2 71 -34 71 -56 0 -6 5 -8 10 -5 6 3 10 -2 11 -12 1 -14 2 -13 7 4 5 17 11 20 22 13 10 -6 11 -10 3 -10 -7 0 -13 -9 -13 -20 0 -11 7 -20 15 -20 8 0 15 5 15 12 0 17 13 1 17 -20 1 -10 7 -29 12 -43 8 -19 10 -10 12 46 1 68 2 69 9 25 5 -25 6 -53 3 -64 -3 -10 1 -22 8 -27 12 -7 11 -9 -1 -9 -13 0 -13 -1 0 -10 11 -7 12 -12 3 -21 -15 -15 -5 -39 13 -32 14 5 19 -11 15 -54 -1 -12 3 -24 9 -28 5 -3 10 -18 11 -33 0 -15 3 -21 6 -14 4 10 8 10 19 1 12 -10 17 -8 28 6 12 16 13 16 19 1 4 -9 2 -16 -3 -16 -6 0 -10 -23 -10 -51 0 -31 4 -48 10 -44 6 3 10 -1 10 -9 0 -9 -5 -15 -12 -14 -16 4 -10 -101 8 -126 13 -18 14 -12 14 61 0 73 2 82 17 76 11 -4 12 -8 5 -11 -15 -5 -16 -62 -1 -62 6 0 7 -5 2 -12 -12 -19 -12 -68 -1 -68 6 0 6 -6 -1 -14 -9 -11 -9 -15 0 -18 9 -3 9 -9 1 -24 -6 -12 -7 -26 -2 -34 7 -11 10 -7 15 13 4 16 14 27 24 26 10 0 11 -2 4 -6 -7 -2 -13 -18 -13 -34 0 -17 4 -28 9 -24 6 3 12 -16 14 -42 2 -27 5 4 6 67 1 63 5 108 8 100 2 -8 9 -25 15 -36 7 -15 7 -28 -1 -42 -13 -25 -14 -32 -3 -32 5 0 13 10 19 23 9 20 11 16 22 -31 6 -29 11 -62 11 -73 0 -11 4 -17 10 -14 6 4 10 -6 10 -24 0 -20 6 -31 18 -34 16 -4 16 -5 -1 -6 -15 -1 -16 -8 -11 -43 3 -24 9 -54 14 -68 5 -14 8 -32 8 -40 0 -43 15 -157 23 -172 13 -23 11 -198 -1 -198 -5 0 -10 -14 -10 -31 0 -20 -4 -28 -12 -23 -8 5 -9 0 -6 -14 4 -12 2 -22 -3 -22 -5 0 -10 10 -10 23 -1 18 -3 16 -9 -8 -5 -21 -8 -2 -9 63 -1 54 -5 92 -11 92 -5 0 -10 15 -10 33 0 20 -3 27 -8 19 -10 -16 -3 -72 9 -72 5 0 9 -12 9 -26 0 -14 -4 -23 -10 -19 -6 3 -10 -4 -10 -17 0 -22 -19 -63 -20 -43 0 6 -5 2 -11 -8 -10 -17 -5 -37 10 -37 5 0 12 10 16 23 6 20 8 18 19 -16 6 -21 15 -35 19 -31 4 4 7 2 7 -5 0 -10 -10 -11 -36 -7 -29 6 -39 3 -54 -14 l-18 -21 -16 23 c-15 20 -22 14 -17 -14 0 -5 -4 -8 -10 -8 -7 0 -8 -18 -4 -52 4 -29 2 -64 -4 -78 -8 -20 -10 -3 -12 75 -1 72 -4 90 -9 65 -4 -19 -8 -28 -9 -20 -2 9 -6 5 -13 -10 -14 -32 -16 -43 -8 -55 4 -5 7 -22 8 -37 2 -34 -23 -39 -31 -7 -6 21 -16 22 -58 5 -10 -4 -23 0 -33 9 -15 15 -16 13 -16 -25 0 -23 -4 -39 -9 -35 -5 3 -12 -5 -14 -17 -3 -17 -5 -15 -6 9 0 17 5 33 12 36 6 2 9 8 5 12 -13 14 -38 -17 -38 -47 0 -24 -3 -29 -16 -24 -9 4 -23 1 -30 -5 -11 -9 -14 -8 -14 2 -1 10 -4 9 -14 -3 -7 -10 -25 -18 -40 -18 -15 0 -29 -6 -32 -14 -3 -8 -13 -12 -25 -9 -11 3 -19 0 -19 -6 0 -7 5 -9 10 -6 6 4 10 -6 9 -22 0 -15 -3 -22 -6 -15 -3 8 -9 10 -16 3 -7 -5 -24 -7 -39 -4 -26 5 -28 9 -30 57 -1 41 -2 44 -5 14 -6 -53 -32 -60 -220 -61 -114 0 -166 -4 -186 -14 -15 -8 -32 -11 -37 -8 -5 3 -12 0 -16 -6 -4 -8 -9 -7 -15 2 -6 10 -9 8 -9 -8 0 -24 -30 -34 -30 -10 -1 6 -9 2 -19 -10 -10 -12 -21 -19 -25 -16 -3 4 -6 1 -6 -5 0 -6 9 -14 20 -17 11 -3 20 -14 21 -23 0 -12 3 -11 9 5 8 19 16 22 55 21 25 -1 45 -7 45 -12 0 -6 5 -5 12 2 8 8 17 8 31 1 11 -6 33 -8 50 -5 20 4 36 1 47 -9 21 -19 180 -31 180 -14 0 6 5 7 10 4 6 -3 10 0 10 7 0 11 2 10 9 0 6 -10 10 -8 14 9 5 19 8 21 23 9 10 -9 12 -16 5 -18 -18 -6 -13 -19 9 -25 11 -3 20 -1 20 3 0 4 9 6 20 3 11 -3 20 0 20 6 0 6 -9 11 -20 11 -13 0 -20 7 -20 20 0 11 5 20 11 20 5 0 8 -4 4 -9 -3 -5 5 -13 17 -17 17 -5 27 0 47 24 36 42 92 48 90 10 0 -13 -3 -17 -6 -11 -3 9 -10 10 -24 3 -24 -13 -25 -30 -1 -31 10 0 12 -3 5 -6 -7 -2 -13 -14 -13 -26 0 -16 3 -18 9 -8 7 11 9 11 14 0 3 -8 6 -4 6 9 1 28 23 52 48 53 15 0 14 2 -5 11 -13 6 -21 17 -18 24 3 7 -2 15 -10 18 -8 3 -14 15 -14 26 0 11 -4 20 -10 20 -5 0 -10 5 -10 11 0 6 8 9 18 7 10 -2 16 -11 14 -21 -2 -11 4 -17 18 -17 16 0 20 -6 20 -32 0 -23 3 -29 9 -19 7 11 10 10 14 -5 4 -17 5 -17 6 -1 0 10 5 16 9 13 4 -2 14 -1 22 5 12 7 10 9 -7 9 -13 0 -23 5 -23 10 0 20 41 10 50 -12 8 -21 9 -22 11 -3 1 14 4 11 9 -10 7 -28 8 -27 10 15 2 35 4 38 7 16 5 -29 33 -69 33 -46 0 7 8 10 20 7 15 -4 22 1 26 19 3 13 10 21 16 18 15 -10 38 17 39 45 0 23 1 24 9 6 7 -15 9 -9 9 26 1 45 2 46 28 41 23 -4 24 -6 10 -17 -20 -15 -22 -29 -4 -22 10 4 14 -4 14 -23 0 -25 -3 -28 -19 -19 -15 8 -18 6 -18 -16 0 -14 -4 -25 -10 -25 -5 0 -11 -19 -11 -42 l-2 -43 -7 35 c-4 19 -8 27 -9 17 0 -10 -6 -15 -11 -12 -12 7 -26 -22 -16 -33 4 -3 11 0 16 8 7 11 10 5 10 -21 0 -28 5 -38 25 -47 20 -9 25 -19 25 -46 0 -19 -4 -38 -10 -41 -6 -4 -10 10 -10 34 0 23 -4 41 -9 41 -5 0 -16 3 -25 6 -11 4 -16 1 -15 -12 0 -12 3 -14 6 -6 4 10 8 10 19 1 8 -6 14 -17 14 -23 0 -6 -5 -4 -10 4 -8 12 -10 9 -10 -12 0 -21 -4 -25 -20 -21 -14 4 -20 0 -20 -10 0 -9 9 -19 20 -22 13 -4 20 -15 20 -33 0 -16 -8 -32 -20 -40 -23 -14 -26 -44 -7 -64 6 -7 13 -26 14 -41 1 -22 -2 -25 -12 -17 -11 9 -14 5 -18 -17 -3 -21 -4 -17 -6 14 -1 36 -4 41 -21 38 -11 -2 -20 0 -20 6 0 5 5 9 10 9 6 0 9 12 9 28 -2 23 -2 24 -6 4 -2 -12 -9 -20 -14 -17 -5 4 -9 -3 -9 -14 0 -11 5 -23 10 -26 6 -3 10 -26 10 -51 0 -24 5 -44 10 -44 6 0 10 -10 9 -22 0 -22 -1 -22 -9 -3 -7 16 -9 17 -9 3 -1 -9 4 -20 9 -23 6 -3 10 -26 10 -51 0 -24 -4 -44 -10 -44 -5 0 -10 -5 -10 -11 0 -5 5 -7 10 -4 6 3 11 0 11 -7 1 -7 5 5 9 27 l7 40 2 -37 c0 -20 4 -43 7 -52 5 -12 0 -16 -21 -16 -27 0 -27 0 -24 -67 2 -38 7 -74 12 -81 12 -15 3 -27 -12 -17 -6 3 -11 21 -12 38 -1 30 -1 30 -8 7 -4 -14 -7 -78 -7 -143 1 -68 -3 -119 -9 -122 -6 -3 -5 -7 3 -11 17 -8 15 -24 -3 -24 -11 0 -15 13 -17 53 -1 41 -2 45 -6 17 -4 -29 -6 -32 -12 -15 -6 15 -9 8 -8 -25 0 -37 1 -41 8 -20 7 22 8 20 10 -15 1 -23 4 -34 8 -25 8 17 32 25 32 10 0 -6 -5 -10 -11 -10 -8 0 -8 -4 -1 -13 12 -14 -2 -47 -14 -35 -12 13 -34 -20 -34 -51 0 -17 -4 -31 -10 -31 -13 0 -13 -46 0 -70 7 -13 7 -21 0 -25 -5 -3 -10 -1 -10 4 0 23 -19 9 -23 -16 -2 -16 -6 13 -7 62 -3 81 -4 84 -8 30 -3 -44 -6 -55 -12 -40 -7 16 -9 14 -9 -13 -1 -29 -3 -32 -21 -22 -18 10 -19 7 -19 -56 1 -36 -2 -68 -5 -71 -3 -4 -6 20 -6 52 l0 58 -25 -27 c-21 -23 -23 -30 -12 -47 8 -14 9 -22 1 -27 -10 -7 -26 -38 -28 -55 -1 -4 -6 -11 -12 -15 -7 -4 -14 -16 -17 -27 -4 -18 -5 -18 -6 2 -1 20 -5 22 -40 18 -57 -5 -78 -20 -84 -57 -2 -18 -1 -35 3 -38 4 -3 2 -11 -6 -18 -12 -11 -14 -5 -15 40 0 39 -3 48 -9 33 -6 -14 -9 -16 -10 -5 -1 8 -6 4 -10 -10 -8 -24 -8 -24 -9 -2 -1 12 -6 22 -12 22 -6 0 -8 -9 -4 -20 6 -20 -2 -24 -42 -23 -7 1 -13 -5 -13 -12 0 -8 -8 -16 -17 -18 -17 -4 -17 -5 0 -6 9 0 17 -7 17 -15 0 -10 9 -13 30 -10 41 7 39 -14 -2 -29 -18 -6 -37 -10 -42 -9 -5 2 -3 -5 5 -14 8 -10 9 -15 2 -11 -6 4 -19 0 -27 -9 -12 -11 -16 -12 -16 -2 0 10 -3 9 -10 -2 -5 -8 -10 -10 -10 -5 0 21 -39 14 -47 -8 -6 -17 -9 -8 -14 38 l-6 60 -1 -60 c-2 -43 -5 -56 -12 -45 -8 13 -10 12 -10 -2 0 -10 -8 -18 -17 -19 -10 0 -39 -1 -65 -2 -42 -3 -48 0 -49 18 -1 16 -2 17 -6 2 -3 -10 -14 -17 -29 -17 -15 0 -24 -6 -24 -15 0 -8 -4 -15 -10 -15 -5 0 -10 6 -10 14 0 12 -17 14 -40 6 -3 -1 -9 -2 -13 -1 -5 1 -6 -3 -3 -8 3 -5 16 -7 29 -4 12 3 18 2 14 -2 -4 -5 -20 -10 -35 -12 -84 -11 -102 -16 -103 -32 -1 -9 -5 -2 -9 14 -4 17 -8 23 -9 14 -1 -19 -27 -32 -43 -22 -21 12 -82 4 -91 -12 -8 -15 -10 -15 -27 0 -12 11 -26 14 -44 9 -20 -5 -26 -2 -26 11 0 15 -1 15 -17 -1 -14 -13 -18 -14 -22 -3 -7 17 -51 20 -51 3 0 -6 -9 -14 -20 -17 -11 -3 -18 -1 -14 4 3 5 -7 9 -21 9 -16 0 -24 -4 -20 -11 5 -7 -4 -8 -27 -4 -65 12 -73 12 -86 2 -9 -7 -20 -6 -35 2 -21 11 -56 9 -77 -4 -6 -3 -10 -1 -10 4 0 15 -47 14 -53 -1 -2 -8 -10 -2 -17 14 -9 20 -17 25 -29 19 -9 -4 -23 -7 -31 -7 -8 1 -18 -8 -22 -19 -5 -12 -6 -3 -4 22 4 39 2 43 -18 43 -19 0 -21 -4 -18 -42 l4 -41 -27 27 c-26 26 -28 26 -52 11 -28 -19 -53 -14 -53 11 0 12 7 15 30 12 33 -5 38 5 15 28 -8 9 -15 11 -15 5 0 -6 -7 -11 -15 -11 -10 0 -15 10 -15 28 0 15 -4 22 -8 16 -4 -6 -15 -10 -24 -8 -27 4 -24 -43 3 -51 26 -9 20 -15 -20 -20 -24 -3 -30 0 -29 13 1 9 0 28 -1 42 l-3 25 -7 -25 c-7 -24 -8 -24 -12 7 -4 23 -2 33 8 33 7 0 13 5 13 10 0 6 -10 10 -23 10 -13 0 -28 5 -35 12 -9 9 -12 9 -12 0 0 -7 4 -12 8 -12 15 0 31 -57 19 -69 -18 -18 -25 -13 -33 21 -6 29 -8 30 -15 13 -7 -17 -8 -16 -8 8 -1 28 -14 36 -27 15 -4 -7 -3 -8 4 -4 8 5 12 -1 12 -14 0 -16 -4 -20 -16 -16 -9 3 -20 6 -25 6 -5 0 -9 26 -9 58 0 38 -3 52 -9 43 -7 -11 -11 -4 -14 25 -3 33 -4 31 -5 -16 -3 -74 -10 -97 -33 -103 -21 -6 -27 9 -6 16 10 3 10 9 0 26 -7 11 -13 31 -14 43 0 22 -1 22 -9 3 -7 -15 -9 -9 -9 25 -1 33 -4 41 -11 30 -5 -8 -10 -25 -10 -37 0 -15 -6 -23 -18 -23 -14 0 -18 9 -19 41 -2 43 -12 64 -20 41 -3 -7 -11 -18 -18 -26 -8 -7 -11 -16 -8 -20 4 -3 -1 -6 -10 -6 -9 0 -17 -6 -17 -12 0 -10 -2 -10 -8 -2 -4 7 -18 14 -32 17 -25 4 -25 4 3 6 27 1 27 1 27 74 0 45 -4 67 -9 58 -7 -11 -10 -10 -14 5 -2 10 -5 -11 -6 -48 l-1 -66 -25 11 c-21 10 -25 19 -25 60 0 36 3 46 13 41 10 -6 10 -4 0 7 -8 7 -13 40 -13 77 0 39 -4 61 -10 57 -5 -3 -10 3 -10 14 0 12 5 21 10 21 6 0 10 5 10 10 0 12 -30 13 -49 1 -12 -8 -12 -12 3 -26 9 -10 15 -24 12 -32 -3 -8 -6 -19 -6 -24 0 -5 -9 -9 -20 -9 -16 0 -20 7 -21 33 -1 17 0 37 1 42 6 22 -1 80 -10 83 -6 2 -9 20 -9 40 l2 37 7 -35 c7 -32 7 -31 9 18 1 45 -1 51 -12 40 -8 -7 -16 -20 -20 -28 -3 -10 -6 -7 -6 8 -1 12 -6 22 -12 22 -6 0 -9 -12 -7 -27 2 -16 8 -27 16 -26 6 2 12 -4 12 -12 0 -16 -9 -19 -34 -9 -14 5 -16 27 -16 140 0 83 -4 134 -10 134 -6 0 -5 9 2 21 10 17 10 23 1 26 -7 3 -13 19 -13 36 0 23 -3 28 -9 18 -5 -8 -7 -62 -5 -120 4 -98 3 -104 -12 -83 -8 12 -19 20 -23 18 -4 -3 -8 39 -10 92 -1 53 -7 99 -12 100 -5 2 -9 11 -9 20 -1 20 -34 62 -49 62 -7 0 -11 24 -11 63 0 44 -3 58 -10 47 -7 -11 -10 -5 -10 25 0 33 -5 42 -25 51 -22 11 -24 9 -28 -15 -2 -14 -5 -2 -6 27 0 28 -5 52 -11 52 -15 0 -13 117 3 123 7 3 2 9 -12 14 -16 6 -20 12 -13 17 7 4 12 32 12 67 0 52 -2 59 -20 59 -11 0 -20 5 -20 11 0 7 -9 9 -23 5 -21 -5 -23 -2 -21 32 2 20 0 27 -2 15 -8 -34 -34 -17 -34 21 0 18 -3 36 -7 40 -5 4 -9 22 -9 39 -3 72 -4 78 -16 71 -8 -5 -10 9 -5 54 3 34 1 65 -4 68 -5 3 -9 -5 -10 -18 -1 -13 -2 -30 -3 -38 -2 -8 -3 -43 -4 -77 -2 -54 -5 -63 -20 -63 -16 0 -19 9 -20 60 0 53 -5 67 -41 120 -23 33 -41 67 -41 75 0 8 -7 15 -15 15 -16 0 -20 -15 -7 -24 5 -3 9 -20 10 -38 1 -18 6 -49 12 -68 13 -45 13 -170 0 -170 -5 0 -10 -15 -10 -33 0 -28 4 -33 26 -35 22 -2 25 1 21 18 -3 13 0 20 9 20 8 0 14 10 14 23 0 18 2 19 10 7 7 -11 10 -11 10 -2 0 7 5 10 10 7 6 -3 10 -15 10 -26 0 -10 4 -19 10 -19 12 0 -9 -51 -28 -67 -8 -7 -19 -10 -23 -7 -5 3 -9 1 -9 -4 0 -15 -45 -20 -58 -6 -7 7 -12 28 -13 46 0 18 -4 42 -9 53 -6 14 -9 0 -9 -47 -1 -64 0 -67 32 -86 17 -11 49 -23 69 -27 42 -8 92 1 83 14 -11 18 28 21 48 4 19 -17 19 -27 13 -198 -4 -99 -18 -268 -31 -375 -20 -161 -44 -438 -43 -500 0 -98 -7 -209 -11 -185 -5 22 -10 3 -19 -72 -17 -136 -38 -196 -64 -190 -15 4 -18 2 -13 -11 4 -9 9 -66 10 -126 3 -89 7 -112 22 -130 34 -38 42 -69 34 -135 -5 -45 -4 -67 6 -81 13 -18 49 -17 37 1 -3 5 -1 9 3 9 5 0 17 -24 26 -53 13 -39 17 -82 15 -172 -1 -89 3 -135 16 -179 31 -104 87 -206 151 -273 59 -62 61 -63 130 -72 71 -9 125 -27 125 -43 0 -4 7 -8 15 -8 8 0 15 -7 15 -15 0 -9 9 -15 23 -15 25 0 67 -37 67 -61 1 -21 23 -46 37 -42 15 5 63 -40 63 -59 1 -7 6 0 13 15 l12 29 23 -27 c13 -15 21 -34 18 -42 -8 -20 30 -53 62 -53 25 0 25 0 6 19 -10 10 -22 17 -26 14 -5 -2 -8 2 -8 11 0 8 -6 17 -12 19 -7 3 -4 6 7 6 26 1 54 -31 62 -70 4 -19 10 -28 19 -25 14 5 38 -17 28 -27 -3 -3 3 -12 15 -19 12 -7 21 -18 21 -25 0 -6 9 -15 20 -18 11 -3 20 -13 20 -20 0 -8 15 -17 35 -21 20 -3 43 -16 53 -28 10 -11 33 -30 52 -40 19 -11 42 -28 51 -38 9 -10 21 -18 26 -18 11 0 10 -53 -1 -145 -5 -45 -5 -47 5 -20 7 17 16 35 21 41 5 7 11 35 15 63 3 28 10 51 15 51 18 0 143 -33 148 -39 13 -16 313 -17 318 -1 5 14 45 13 60 -2 10 -10 14 -10 21 0 4 7 28 12 62 11 31 -1 66 4 79 11 17 9 48 11 114 5 128 -10 150 -10 251 -3 50 4 111 3 138 -1 36 -6 47 -5 47 6 0 16 11 17 43 2 21 -9 88 -98 100 -132 2 -6 8 -9 12 -5 12 11 -44 113 -86 160 -21 22 -36 45 -33 49 7 12 34 11 34 -1 0 -15 27 -12 33 4 3 8 26 18 52 21 29 5 49 14 56 26 5 11 18 19 29 19 10 0 22 5 25 10 3 6 17 10 31 10 13 0 24 5 24 11 0 6 9 9 20 6 11 -3 20 -2 20 3 0 4 26 18 58 30 98 39 182 81 182 91 0 5 7 9 16 9 19 0 39 19 48 47 8 25 18 29 96 38 67 9 191 66 240 110 9 8 22 15 28 15 7 0 12 4 12 8 0 4 22 31 50 60 27 29 59 70 70 92 11 22 25 40 30 40 6 0 10 9 10 20 0 11 4 20 9 20 5 0 13 25 16 55 6 44 13 60 36 79 16 14 29 29 29 35 0 6 5 11 10 11 6 0 10 7 10 15 0 8 6 12 13 9 15 -5 57 28 57 45 0 7 -6 9 -12 6 -7 -4 -4 1 6 9 11 9 28 16 39 16 21 0 40 16 50 43 3 9 11 17 17 17 5 0 10 6 10 14 0 8 7 16 15 19 8 4 23 24 34 45 11 22 26 46 34 53 7 8 23 46 36 86 20 61 22 85 18 170 -3 54 -8 114 -11 133 -4 27 -4 29 3 10 7 -23 8 -21 15 20 4 25 9 73 12 108 4 44 10 62 20 62 8 0 14 7 14 15 0 8 -4 15 -10 15 -5 0 -10 -5 -10 -12 0 -6 -2 -9 -5 -6 -8 8 11 50 33 74 12 12 21 41 25 75 3 30 14 86 23 124 22 94 29 255 14 314 -32 122 -54 176 -96 227 -24 29 -44 57 -44 60 0 4 -16 48 -36 98 -74 189 -172 317 -251 330 -38 5 -45 11 -63 48 -11 23 -20 48 -20 55 0 8 -16 49 -36 91 -20 42 -40 86 -44 97 -4 11 -15 37 -24 58 -9 21 -16 42 -16 48 0 6 -6 25 -14 42 -20 45 -40 126 -33 133 3 4 20 -4 38 -16 23 -17 44 -23 78 -21 25 1 48 6 49 11 2 6 10 10 18 10 8 0 14 4 14 9 0 5 7 17 16 26 15 15 16 29 5 138 -6 67 -13 157 -15 201 -2 43 -9 82 -14 85 -6 4 -10 30 -10 60 1 29 -3 56 -9 59 -26 18 -35 57 -31 150 l3 97 -50 77 c-28 43 -54 77 -59 78 -5 0 -4 -6 2 -13 6 -7 9 -23 5 -35 -3 -14 -1 -22 7 -22 13 0 40 -24 40 -37 0 -4 9 -14 20 -21 19 -12 20 -19 14 -110 -5 -78 -3 -105 10 -136 19 -46 23 -124 8 -152 -18 -34 -56 -168 -54 -192 1 -13 -2 -20 -8 -17 -6 4 -10 -9 -11 -32 0 -21 -3 -31 -6 -23 -3 8 -9 17 -14 20 -4 3 -9 19 -12 35 -3 17 -6 35 -8 40 -5 18 13 125 22 131 5 3 9 16 9 30 0 13 5 24 10 24 7 0 10 39 8 105 -1 58 -5 105 -10 105 -4 0 -8 9 -8 20 0 22 -15 27 -23 8 -3 -8 -6 -7 -6 4 -1 9 -6 29 -12 45 -19 45 -23 124 -7 134 9 6 10 12 3 17 -6 4 -12 21 -12 37 -7 121 -29 286 -44 320 -16 36 -18 38 -18 13 -1 -14 -4 -34 -7 -43 -5 -13 -9 -11 -20 11 -8 14 -14 36 -14 48 0 17 -2 18 -10 6 -7 -11 -10 -11 -10 -2 0 18 43 33 53 18 6 -7 7 -4 3 7 -11 33 -34 141 -41 192 -4 27 -16 67 -27 88 -13 26 -28 101 -45 225 -13 103 -28 208 -32 234 -4 28 -25 76 -52 120 -25 40 -51 89 -58 108 -8 19 -37 71 -66 115 -28 44 -62 105 -75 135 -12 30 -35 73 -50 95 -15 22 -37 60 -50 85 -12 25 -37 61 -55 81 -18 20 -51 63 -73 96 -31 46 -51 65 -83 77 -49 20 -121 67 -165 108 -17 16 -64 42 -104 59 -40 16 -98 47 -129 68 -31 21 -81 44 -111 51 -30 7 -79 21 -108 32 -45 17 -84 20 -265 23 -117 1 -240 6 -273 9 -34 4 -72 2 -85 -2 -13 -5 -60 -6 -104 -3 -44 3 -90 5 -102 3z m-713 -1184 c0 -17 -5 -28 -14 -28 -9 0 -12 12 -11 38 3 48 4 50 15 32 5 -8 10 -27 10 -42z m-33 -106 c6 2 11 0 12 -4 3 -24 -1 -28 -15 -14 -8 9 -20 16 -25 16 -6 0 -7 5 -3 11 5 8 8 8 14 0 4 -7 12 -11 17 -9z m70 -59 c-3 -10 -5 -2 -5 17 0 19 2 27 5 18 2 -10 2 -26 0 -35z m27 -35 c4 -17 2 -28 -4 -28 -5 0 -10 14 -10 32 0 36 4 35 14 -4z m-74 -44 c0 -8 -4 -14 -10 -14 -5 0 -10 9 -10 21 0 11 5 17 10 14 6 -3 10 -13 10 -21z m607 -4 c2 0 3 -4 3 -10 0 -14 -43 -13 -58 2 -21 21 -13 27 20 17 18 -5 34 -9 35 -9z m1763 -7 c0 -7 -9 -13 -20 -13 -19 0 -26 11 -15 22 10 10 35 4 35 -9z m274 -325 c0 -26 5 -37 13 -33 7 2 13 0 13 -4 0 -12 -29 -23 -41 -15 -5 3 -9 12 -9 20 0 8 -5 14 -12 14 -9 0 -9 3 0 12 7 7 12 28 12 48 1 30 2 32 12 16 6 -10 11 -36 12 -58z m69 -138 c3 -11 1 -23 -4 -26 -5 -3 -9 6 -9 20 0 31 6 34 13 6z m46 -60 c4 0 8 -19 8 -42 1 -24 -1 -35 -4 -25 -2 9 -8 17 -12 17 -4 0 -8 19 -8 43 -1 23 1 34 4 25 2 -10 8 -18 12 -18z m-3380 -557 c-1 -78 -1 -78 -10 -28 -8 45 -4 105 7 105 2 0 3 -35 3 -77z m3756 -493 l4 -105 -16 40 c-11 26 -18 76 -19 140 -3 97 -2 99 13 65 9 -22 16 -75 18 -140z m-333 -48 c-21 -7 -14 -35 7 -29 14 3 18 1 14 -9 -3 -8 -9 -11 -14 -8 -5 3 -9 -2 -9 -10 0 -9 -3 -16 -7 -16 -5 0 -9 20 -11 45 -2 39 -1 44 15 38 10 -4 12 -8 5 -11z m238 -94 c0 -10 -4 -18 -10 -18 -5 0 -10 15 -10 33 0 24 3 28 10 17 5 -8 10 -23 10 -32z m-169 -43 l-9 -60 -1 61 c0 33 2 64 6 68 12 12 13 -6 4 -69z m210 15 c5 0 10 1 12 2 1 1 12 -7 25 -17 43 -37 19 -103 -34 -91 -38 8 -57 47 -38 74 7 11 11 22 7 25 -3 3 -2 14 2 24 8 17 8 17 12 1 3 -10 9 -18 14 -18z m-174 -76 c2 -44 0 -53 -7 -37 -16 39 -21 105 -7 100 7 -2 13 -27 14 -63z m-23 -58 c-3 -13 -1 -27 5 -30 6 -4 11 -25 11 -46 0 -33 -3 -38 -17 -33 -14 4 -15 3 -7 -6 12 -13 7 -122 -7 -156 -5 -12 -8 39 -7 130 2 131 7 164 26 165 1 0 0 -11 -4 -24z m-526 -24 c9 -6 6 -12 -13 -20 -22 -10 -25 -9 -25 8 0 21 16 26 38 12z m362 -47 c-7 -9 -10 -27 -6 -45 3 -17 1 -30 -4 -30 -6 0 -10 20 -10 45 0 35 4 45 16 45 14 0 14 -3 4 -15z m-8 -262 c-5 -59 -10 -63 -11 -10 -1 26 3 47 7 47 4 0 6 -17 4 -37z m-3179 10 c3 -5 8 -26 11 -48 7 -38 6 -41 -18 -43 -25 -2 -26 1 -26 48 0 37 4 50 14 50 8 0 17 -3 19 -7z m3267 -153 c0 -11 -4 -20 -10 -20 -5 0 -10 9 -10 20 0 11 5 20 10 20 6 0 10 -9 10 -20z m458 -188 c68 -67 115 -148 101 -174 -7 -13 -2 -26 21 -51 30 -34 39 -67 20 -67 -6 0 -15 12 -21 27 -6 16 -16 35 -24 43 -7 8 -15 26 -17 39 -1 13 -12 29 -23 35 -82 46 -105 67 -105 99 0 18 -9 45 -19 61 -19 29 -19 46 -1 46 5 0 35 -26 68 -58z m-3636 -37 c4 -17 1 -25 -8 -25 -8 0 -14 11 -14 25 0 14 4 25 9 25 5 0 11 -11 13 -25z m3028 -108 c0 -18 -4 -37 -9 -42 -5 -6 -11 -26 -14 -45 -2 -19 -5 0 -5 43 -2 62 1 77 13 77 10 0 15 -10 15 -33z m635 -31 c23 -23 32 -40 29 -54 -5 -15 1 -20 27 -26 29 -5 31 -8 18 -20 -30 -30 -89 -22 -89 12 0 9 -6 29 -14 43 -20 38 -28 79 -16 79 6 0 26 -15 45 -34z m-698 -173 c-2 -16 -4 -3 -4 27 0 30 2 43 4 28 2 -16 2 -40 0 -55z m797 -5 c21 -20 25 -32 27 -88 3 -116 0 -140 -14 -134 -16 6 -53 86 -71 157 -8 29 -17 60 -21 70 -11 26 48 23 79 -5z m101 -220 c0 -58 -3 -109 -6 -112 -3 -4 -14 -3 -24 0 -15 6 -17 16 -11 78 3 39 6 100 6 136 l1 65 17 -30 c13 -23 17 -54 17 -137z m-853 47 c-2 -19 -6 -35 -8 -35 -2 0 -4 16 -4 35 0 19 4 35 8 35 4 0 6 -16 4 -35z m912 -26 c3 -17 6 -48 5 -68 0 -46 -13 -17 -22 52 -7 52 7 65 17 16z m-987 -89 c0 -16 -4 -30 -9 -30 -10 0 -11 44 -1 53 9 10 10 10 10 -23z m-2708 -64 c-9 -8 -10 -7 -5 7 3 10 7 24 7 30 1 7 3 4 6 -7 3 -10 -1 -23 -8 -30z m91 -129 c0 -5 -7 -7 -15 -3 -8 3 -15 0 -15 -6 0 -6 -3 -9 -6 -5 -3 3 -4 10 0 15 7 12 36 11 36 -1z m0 -49 c0 -16 -3 -19 -11 -11 -6 6 -8 16 -5 22 11 17 16 13 16 -11z m107 -115 c-3 -10 -5 -2 -5 17 0 19 2 27 5 18 2 -10 2 -26 0 -35z m2299 10 c3 -12 4 -28 1 -35 -3 -7 -6 -3 -6 8 -1 12 -8 25 -17 28 -8 3 -12 2 -9 -4 3 -6 1 -10 -4 -10 -6 0 -11 9 -11 19 0 28 39 23 46 -6z m-45 -28 c5 4 9 2 9 -3 0 -6 -6 -12 -12 -14 -21 -8 -38 3 -38 24 0 18 1 18 16 4 8 -9 20 -14 25 -11z m-63 -14 c-7 -9 -14 -18 -15 -20 -2 -2 -3 5 -3 16 0 11 7 20 15 20 12 0 12 -3 3 -16z m-158 -26 c0 -9 9 -15 25 -15 14 0 25 -4 25 -9 0 -10 -12 -9 -47 3 -23 7 -33 36 -13 36 6 0 10 -7 10 -15z m-2560 -105 c0 -11 -4 -20 -10 -20 -5 0 -10 9 -10 20 0 11 5 20 10 20 6 0 10 -9 10 -20z m1470 -160 c0 -17 -2 -19 -14 -8 -10 9 -11 15 -2 20 16 11 16 10 16 -12z m150 0 c-20 -13 -40 -13 -40 0 0 6 12 10 28 10 21 0 24 -2 12 -10z m75 0 c8 -13 -25 -13 -45 0 -12 8 -9 10 12 10 15 0 30 -4 33 -10z m2035 -456 c0 -3 -7 -12 -15 -21 -20 -19 -32 -9 -15 12 12 15 30 20 30 9z m-3703 -196 c12 -40 35 -93 51 -117 24 -35 29 -52 26 -92 -1 -27 -6 -50 -11 -51 -21 -3 -100 183 -103 244 -6 109 8 115 37 16z m92 -101 c1 -5 -3 -5 -9 -2 -5 3 -10 16 -9 28 0 21 1 21 9 2 5 -11 9 -24 9 -28z m61 -139 c19 -24 38 -44 42 -46 4 -2 8 -10 8 -18 0 -8 7 -25 16 -38 24 -37 -1 -42 -47 -10 -22 15 -44 35 -48 43 -11 22 -20 111 -11 111 3 0 22 -19 40 -42z m290 -280 l20 -42 -35 38 c-40 44 -41 46 -20 46 8 0 24 -19 35 -42z m2588 6 c-9 -9 -22 -14 -30 -11 -8 3 -4 8 12 15 35 15 37 14 18 -4z m-2517 -102 c-15 -5 -41 23 -41 44 0 13 6 11 26 -12 16 -16 22 -30 15 -32z m278 -131 c7 -5 12 -13 10 -18 -2 -6 -13 -2 -23 8 -20 19 -12 26 13 10z m171 -119 c0 -12 -4 -12 -20 3 -11 10 -20 25 -20 33 0 12 4 12 20 -3 11 -10 20 -25 20 -33z m1114 -143 c4 -3 -1 -12 -10 -20 -13 -11 -18 -11 -21 -1 -3 8 -26 12 -69 12 -35 0 -64 3 -64 8 0 9 155 10 164 1z m84 -5 c12 -4 22 -11 22 -16 0 -14 -73 -5 -78 10 -4 13 19 16 56 6z m-405 -35 c-6 -6 -23 -9 -39 -7 l-29 4 35 10 c38 12 49 9 33 -7z"/>
 <path d="M2692 4081 c1 -17 5 -28 10 -25 11 7 10 41 -1 49 -5 3 -9 -8 -9 -24z"/>
 <path d="M6536 3365 c7 -75 10 -85 25 -85 18 0 7 110 -13 133 -18 22 -19 21 -12 -48z"/>
 <path d="M3605 7190 c4 -6 10 -8 15 -5 5 3 11 -5 13 -17 4 -20 4 -19 6 5 1 21 -3 27 -20 27 -11 0 -17 -5 -14 -10z"/>
 <path d="M4270 7191 c0 -4 11 -6 25 -3 14 2 25 6 25 8 0 2 -11 4 -25 4 -14 0 -25 -4 -25 -9z"/>
 <path d="M4110 7006 c0 -19 -4 -36 -8 -38 -5 -1 -3 -16 4 -33 12 -29 13 -27 14 38 0 37 -2 67 -5 67 -3 0 -5 -15 -5 -34z"/>
 <path d="M3344 6873 c10 -11 36 -12 36 -2 0 5 -10 9 -22 9 -12 0 -18 -3 -14 -7z"/>
 <path d="M4907 6663 c-2 -5 -1 -19 4 -33 7 -23 7 -23 8 8 1 31 -3 40 -12 25z"/>
 <path d="M4648 6506 c-14 -5 -31 -19 -37 -30 -8 -19 -10 -19 -10 -3 -1 17 -3 17 -16 3 -27 -27 -104 -40 -290 -52 -49 -3 -101 -7 -115 -9 -14 -1 -42 -3 -63 -4 -23 -1 -36 -5 -32 -11 4 -6 11 -8 16 -5 5 4 9 1 9 -5 0 -7 6 -8 18 -1 11 6 33 6 57 1 21 -5 42 -7 47 -4 4 3 17 0 28 -6 11 -6 20 -7 20 -3 0 14 160 9 169 -5 4 -7 15 -10 24 -6 11 4 17 1 17 -7 0 -11 3 -11 10 1 9 13 10 13 10 0 1 -8 6 -4 11 10 8 18 12 21 18 11 6 -10 13 -10 28 -2 11 5 23 7 27 4 3 -3 6 3 6 15 0 26 37 31 46 7 4 -8 10 -12 15 -9 12 7 11 -47 0 -65 -5 -7 -13 -11 -18 -8 -6 4 -16 -5 -24 -20 l-14 -25 -6 23 -7 24 -1 -24 c-1 -18 -5 -22 -21 -18 -11 3 -20 1 -20 -5 0 -5 -4 -6 -10 -3 -5 3 -10 2 -10 -4 0 -5 -9 -13 -20 -16 -11 -4 -18 -10 -15 -15 3 -4 -4 -6 -14 -3 -13 3 -21 -2 -26 -16 -3 -12 -10 -19 -15 -16 -4 3 -13 -2 -20 -10 -6 -7 -17 -12 -25 -9 -7 3 -16 1 -20 -5 -3 -6 -15 -11 -26 -11 -10 0 -19 -4 -19 -10 0 -6 -6 -9 -12 -7 -9 1 -12 -9 -10 -32 2 -20 -2 -37 -10 -42 -10 -7 -10 -9 0 -9 6 0 12 -9 12 -19 0 -16 10 -21 53 -28 44 -8 54 -6 68 9 9 10 21 18 28 18 6 0 12 20 12 48 l2 47 6 -39 c4 -27 12 -40 24 -42 19 -3 23 12 5 19 -18 6 17 44 48 51 13 4 24 13 24 21 0 8 5 15 10 15 6 0 10 9 10 20 0 13 9 22 26 26 24 6 65 37 61 46 -1 2 4 -3 11 -11 10 -13 12 -12 13 5 0 10 3 13 6 7 8 -21 23 -15 24 10 1 15 4 10 9 -13 l7 -35 2 39 c1 54 18 33 20 -26 1 -13 8 -10 31 14 22 21 30 40 31 66 2 36 2 36 8 7 4 -22 12 -31 30 -33 19 -2 22 2 18 18 -3 13 0 20 9 20 11 0 14 17 14 71 0 64 -1 69 -16 55 -8 -9 -19 -14 -24 -11 -4 3 -10 -5 -13 -16 -4 -15 -11 -20 -21 -16 -11 4 -16 1 -16 -12 0 -21 -27 -36 -32 -19 -7 19 -30 -3 -25 -23 3 -11 1 -19 -4 -19 -5 0 -10 15 -10 33 -1 17 -3 24 -6 15 -2 -10 -9 -18 -14 -18 -5 0 -9 -6 -9 -14 0 -7 -9 -16 -19 -19 -12 -3 -21 -16 -24 -33 -2 -16 -5 6 -6 49 l-1 77 29 0 c24 0 29 5 33 30 4 27 2 30 -23 30 -16 0 -32 6 -36 13 -6 10 -15 11 -35 3z m-278 -423 c0 -16 -4 -23 -8 -17 -4 6 -15 10 -24 8 -10 -1 -18 2 -18 7 0 5 9 9 20 9 11 0 20 5 20 10 0 6 2 10 5 10 3 0 5 -12 5 -27z"/>
 <path d="M4933 6444 c0 -19 5 -31 13 -31 8 0 14 9 14 19 0 11 -4 17 -9 13 -5 -3 -11 3 -14 12 -2 10 -4 4 -4 -13z"/>
 <path d="M4005 6415 l-30 -13 33 -1 c22 -1 32 4 32 14 0 8 -1 15 -2 15 -2 -1 -16 -7 -33 -15z"/>
 <path d="M3233 6120 c0 -25 2 -35 4 -22 2 12 2 32 0 45 -2 12 -4 2 -4 -23z"/>
 <path d="M4269 6088 c-5 -16 -3 -58 3 -58 4 0 8 14 8 30 0 17 -2 30 -5 30 -3 0 -5 -1 -6 -2z"/>
 <path d="M5707 6083 c-3 -5 -1 -17 4 -28 7 -17 8 -17 8 8 1 27 -4 34 -12 20z"/>
 <path d="M4480 5930 c-9 -6 -11 -10 -3 -10 7 0 10 -7 7 -15 -4 -8 -1 -15 5 -15 6 0 11 11 11 25 0 28 0 28 -20 15z"/>
 <path d="M4423 5903 c-7 -2 -13 -11 -13 -19 0 -22 54 -14 58 9 3 17 -17 22 -45 10z"/>
 <path d="M4752 5693 c-1 -32 -4 -85 -8 -118 l-6 -60 22 23 c18 19 22 35 22 90 1 37 3 57 5 44 2 -12 9 -20 14 -17 13 9 0 54 -22 76 -11 11 -20 19 -22 19 -1 0 -4 -26 -5 -57z"/>
 <path d="M5873 5565 c0 -22 2 -30 4 -17 2 12 2 30 0 40 -3 9 -5 -1 -4 -23z"/>
 <path d="M5970 5505 c0 -24 5 -35 15 -35 18 0 19 12 4 27 -8 8 -8 13 0 17 16 10 13 26 -4 26 -10 0 -15 -11 -15 -35z"/>
 <path d="M5977 5443 c-12 -11 -8 -34 8 -49 13 -14 15 -11 15 20 0 34 -8 44 -23 29z"/>
 <path d="M2640 5363 c0 -5 5 -15 10 -23 8 -12 10 -11 10 8 0 12 -4 22 -10 22 -5 0 -10 -3 -10 -7z"/>
 <path d="M2530 4938 c0 -36 4 -35 14 5 4 16 2 27 -4 27 -5 0 -10 -14 -10 -32z"/>
 <path d="M6060 4923 c0 -13 5 -23 10 -23 13 0 13 11 0 30 -8 12 -10 11 -10 -7z"/>
 <path d="M2491 4893 c0 -23 -7 -44 -13 -46 -10 -4 -10 -6 0 -6 10 -1 10 -6 2 -21 -14 -26 8 -189 27 -209 12 -11 14 2 13 90 -2 177 -2 179 18 180 11 0 7 4 -10 10 -15 6 -29 18 -31 27 -3 9 -5 -2 -6 -25z"/>
 <path d="M5412 4849 c2 -7 10 -15 17 -17 8 -3 12 1 9 9 -2 7 -10 15 -17 17 -8 3 -12 -1 -9 -9z"/>
 <path d="M5550 4844 c0 -15 -2 -16 -9 -5 -6 10 -10 10 -16 1 -5 -8 -19 -10 -41 -5 -32 6 -47 -6 -24 -20 14 -9 12 -46 -5 -75 l-14 -25 -1 23 c0 13 -4 20 -10 17 -5 -3 -10 -15 -10 -26 0 -16 -4 -19 -21 -14 -14 5 -25 1 -35 -12 -14 -17 -14 -17 -29 1 -8 10 -16 23 -18 29 -5 17 -47 -12 -47 -33 0 -23 -16 -35 -26 -19 -4 8 -3 9 4 5 7 -4 12 -1 12 9 0 9 -4 13 -10 10 -6 -4 -10 6 -10 23 0 38 -23 47 -58 25 -39 -26 -54 -41 -42 -45 6 -2 12 -16 13 -32 2 -25 -3 -30 -35 -41 -30 -11 -39 -11 -57 1 -27 19 -27 44 -1 44 22 0 28 35 8 43 -10 4 -10 6 0 6 14 1 49 31 36 31 -3 0 -1 6 5 14 7 8 21 12 31 9 14 -4 20 0 20 12 0 12 5 15 20 10 11 -3 32 -9 47 -11 16 -3 38 -15 50 -26 13 -12 26 -19 29 -15 13 13 -9 43 -50 70 -57 36 -107 36 -160 0 -80 -54 -93 -75 -98 -158 -3 -46 -20 -52 -54 -18 -12 12 -39 27 -61 33 -23 7 -47 23 -58 40 -11 16 -23 26 -27 24 -10 -6 -23 24 -14 33 3 3 12 0 20 -6 12 -10 20 -9 40 4 14 9 29 14 35 11 5 -3 20 -2 33 3 17 7 18 10 6 10 -10 1 -18 7 -18 14 0 7 -3 8 -8 2 -4 -5 -29 -11 -57 -12 -88 -4 -109 -9 -113 -23 -3 -8 -9 -18 -15 -21 -5 -4 0 -12 12 -18 11 -7 21 -9 21 -6 0 3 10 0 23 -6 20 -11 39 -26 88 -71 10 -10 24 -18 29 -18 6 0 10 -5 10 -12 0 -6 3 -8 6 -5 4 4 19 0 33 -7 45 -24 135 -45 166 -40 17 3 50 12 75 19 25 7 81 19 125 26 44 6 92 18 107 26 15 7 39 14 53 15 14 1 25 8 25 15 0 7 10 14 23 15 12 1 29 2 38 3 23 1 119 47 119 56 0 4 7 10 16 13 8 3 13 2 10 -3 -3 -5 3 -11 14 -14 17 -4 20 0 20 28 0 18 6 36 13 38 6 3 2 6 -10 6 -13 1 -23 5 -23 9 0 5 -24 8 -52 8 -29 -1 -63 5 -75 13 -21 12 -23 11 -23 -5z"/>
 <path d="M4963 4833 c-7 -2 -13 -13 -13 -24 0 -15 3 -17 13 -9 6 6 21 17 32 25 l20 14 -20 0 c-11 0 -26 -3 -32 -6z"/>
 <path d="M5688 4715 c2 -14 6 -25 8 -25 2 0 4 11 4 25 0 14 -4 25 -9 25 -4 0 -6 -11 -3 -25z"/>
 <path d="M3631 4697 c-1 -11 -6 -15 -13 -11 -7 5 -8 3 -4 -5 5 -8 0 -14 -14 -18 -12 -3 -19 -11 -16 -19 3 -8 -2 -11 -16 -9 -24 5 -37 15 -20 15 7 0 11 10 11 23 -1 13 -3 16 -6 6 -3 -13 -52 -49 -67 -49 -3 0 -6 6 -6 13 0 9 -10 12 -30 9 -16 -2 -27 -8 -24 -13 4 -7 -27 -13 -38 -8 -2 1 -20 -6 -41 -14 -39 -17 -86 -63 -87 -85 0 -7 -7 -15 -15 -18 -11 -4 -12 -11 -5 -24 5 -9 6 -20 3 -24 -10 -9 -43 -7 -43 3 0 5 -9 11 -20 14 -11 3 -20 12 -20 21 0 9 -4 16 -10 16 -5 0 -10 7 -10 15 0 8 -8 15 -17 15 -26 1 26 29 54 30 12 0 28 7 37 15 8 8 20 15 26 15 6 0 20 9 32 20 21 19 21 19 -33 -1 -30 -11 -62 -18 -72 -15 -10 2 -29 -6 -44 -20 -14 -13 -31 -21 -37 -17 -23 15 -87 13 -102 -2 -9 -8 -11 -15 -5 -15 6 0 11 -5 11 -10 0 -15 -24 -7 -32 10 -5 12 -7 12 -7 -2 -1 -10 -7 -18 -13 -19 -13 0 29 -21 47 -23 6 -1 13 10 16 24 6 21 7 19 8 -12 1 -31 5 -38 21 -38 14 0 20 -7 21 -22 0 -22 1 -22 9 -3 6 13 9 15 9 5 1 -13 2 -13 11 0 8 12 10 9 10 -13 0 -24 3 -27 20 -22 11 3 20 2 20 -4 0 -5 25 -10 58 -9 31 0 64 -2 72 -5 30 -11 214 -26 220 -18 3 5 38 9 78 8 53 0 76 4 83 14 5 8 9 9 9 4 0 -6 11 -12 25 -13 18 -1 25 3 26 16 0 14 2 14 9 -3 7 -17 9 -17 9 -3 1 11 14 21 39 27 23 7 44 22 57 41 11 16 26 30 33 30 6 0 12 9 12 21 0 14 -5 19 -15 16 -8 -4 -17 -2 -20 4 -4 5 -10 7 -15 4 -5 -3 -15 3 -22 15 -7 11 -22 20 -33 20 -18 -1 -19 -1 -2 -11 9 -5 17 -20 17 -33 0 -25 -22 -51 -33 -39 -4 3 -7 1 -7 -4 0 -17 -31 -9 -46 12 -11 15 -17 16 -26 7 -7 -7 -24 -12 -40 -12 -20 0 -31 8 -43 30 -27 52 -16 89 17 57 7 -8 32 -13 56 -12 29 1 42 -3 42 -12 0 -7 5 -13 10 -13 6 0 10 -12 11 -27 0 -16 3 -22 6 -15 4 9 8 10 18 2 10 -8 15 -8 21 1 4 7 3 9 -3 6 -6 -4 -17 1 -24 10 -10 12 -10 14 -1 9 7 -4 12 -1 12 8 0 9 -4 16 -10 16 -5 0 -10 13 -10 29 0 28 2 29 29 21 36 -10 65 7 55 33 -7 19 -59 24 -69 7 -4 -6 -11 -8 -16 -5 -5 4 -10 -4 -10 -17 -1 -20 -2 -21 -6 -3 -6 25 -23 44 -23 26 0 -7 -5 -9 -10 -6 -6 3 -13 -1 -16 -9 -5 -12 -9 -13 -19 -3 -9 8 -10 16 -3 24 5 7 8 18 5 25 -3 8 -6 6 -6 -5z m-177 -113 c25 -10 19 -34 -8 -34 -32 0 -47 -21 -40 -57 8 -40 -18 -51 -46 -21 -38 41 -26 64 50 105 29 15 25 14 44 7z m53 -10 c-4 -4 1 -14 11 -23 24 -23 25 -40 2 -34 -11 3 -20 12 -20 19 0 8 -4 14 -10 14 -5 0 -10 7 -10 15 0 8 8 15 17 15 9 0 13 -3 10 -6z m-179 -87 c6 -7 7 -18 3 -26 -7 -11 -11 -9 -20 7 -6 11 -11 23 -11 26 0 11 17 6 28 -7z"/>
 <path d="M4707 4665 c-11 -7 -27 -12 -38 -10 -28 5 -32 -10 -9 -36 16 -20 19 -21 20 -6 0 9 2 17 5 17 18 0 111 -44 120 -57 7 -10 19 -14 29 -10 9 4 27 2 41 -3 15 -6 26 -6 30 1 4 5 12 7 18 3 7 -3 3 2 -7 10 -11 9 -29 16 -41 16 -12 0 -30 7 -41 15 -10 8 -27 15 -36 15 -10 0 -18 5 -18 10 0 6 -11 15 -25 22 -13 6 -22 15 -19 19 8 13 -9 10 -29 -6z"/>
 <path d="M4964 4538 c1 -29 36 -33 36 -4 0 14 -7 22 -19 23 -13 1 -18 -5 -17 -19z"/>
 <path d="M5412 4498 c6 -18 28 -21 28 -4 0 9 -7 16 -16 16 -9 0 -14 -5 -12 -12z"/>
 <path d="M2942 4479 c3 -8 20 -14 42 -15 21 -1 42 -7 47 -15 6 -10 9 -8 9 9 0 21 -4 23 -38 21 -21 -2 -44 1 -51 5 -9 6 -12 4 -9 -5z"/>
 <path d="M3550 4386 c0 -8 -8 -17 -17 -19 -10 -3 2 -5 27 -5 43 -1 44 -1 21 12 -18 10 -20 15 -10 19 10 4 9 6 -3 6 -10 1 -18 -5 -18 -13z"/>
 <path d="M3365 4350 c-3 -5 3 -10 14 -10 12 0 21 5 21 10 0 6 -6 10 -14 10 -8 0 -18 -4 -21 -10z"/>
 <path d="M2790 4288 c0 -20 23 -104 33 -115 7 -10 4 -13 -11 -13 -11 0 -26 -8 -33 -17 -13 -15 -12 -16 9 -11 18 5 22 2 22 -18 0 -13 4 -24 9 -24 6 0 12 -15 14 -32 3 -29 4 -27 5 10 1 23 7 42 13 42 7 0 8 -11 4 -30 -5 -24 -4 -29 8 -24 9 3 25 1 36 -6 17 -8 21 -8 21 4 0 8 -9 18 -20 21 -23 7 -25 20 -8 39 7 8 16 9 23 4 5 -5 19 -15 30 -22 16 -12 17 -16 6 -30 -14 -17 -5 -21 18 -7 8 5 29 0 58 -16 l44 -25 6 21 c6 25 18 27 27 5 4 -11 13 -13 28 -8 13 3 25 11 26 15 2 5 7 7 12 4 15 -9 70 17 70 33 0 14 11 17 58 19 31 1 68 4 82 6 14 3 42 8 63 12 20 4 40 11 43 16 3 5 17 9 32 9 19 0 23 3 13 9 -11 7 -10 10 5 14 11 3 33 4 49 3 17 -2 44 5 62 15 19 11 35 14 38 8 11 -17 35 -9 35 12 0 11 -4 17 -10 14 -5 -3 -10 3 -10 13 0 14 -7 20 -26 20 -15 0 -30 6 -35 13 -7 12 -9 12 -9 1 0 -10 -13 -13 -50 -10 -34 2 -50 -1 -50 -9 0 -6 -4 -15 -10 -18 -6 -3 -7 1 -4 9 10 25 -12 19 -24 -6 l-11 -23 0 23 c-1 18 -4 21 -18 14 -21 -11 -164 -39 -208 -41 -52 -3 -130 -9 -130 -11 0 -1 -10 -3 -22 -6 -19 -3 -23 1 -24 24 -1 20 -2 22 -6 7 -6 -24 -23 -44 -23 -27 0 8 -7 9 -24 2 -20 -7 -25 -5 -29 12 -3 11 -11 18 -18 16 -19 -6 -23 -28 -5 -28 10 0 16 -8 15 -22 -1 -16 -3 -18 -6 -6 -2 9 -16 19 -30 23 -14 3 -32 13 -41 21 -13 14 -13 17 -1 25 9 5 10 9 2 9 -6 0 -18 7 -26 15 -18 18 -97 37 -97 23z m240 -132 c0 -7 14 -27 30 -45 48 -49 17 -41 -41 12 -23 20 -25 47 -4 47 8 0 15 -6 15 -14z m-140 -16 c0 -5 -11 -10 -25 -10 -14 0 -25 5 -25 10 0 6 11 10 25 10 14 0 25 -4 25 -10z m234 -19 c3 -5 15 -7 26 -4 14 4 20 0 20 -12 0 -13 -6 -15 -32 -10 -17 4 -38 14 -46 21 -11 12 -10 14 7 14 11 0 22 -4 25 -9z m106 -12 c0 -5 -9 -9 -20 -9 -11 0 -20 6 -20 14 0 9 7 12 20 9 11 -3 20 -9 20 -14z"/>
 <path d="M5784 4211 c4 -5 0 -12 -6 -14 -10 -4 -10 -6 0 -6 7 -1 11 -5 7 -10 -3 -5 -1 -12 5 -16 6 -4 10 6 10 24 0 17 -5 31 -11 31 -5 0 -8 -4 -5 -9z"/>
 <path d="M5782 4124 c-7 -8 -17 -12 -23 -9 -5 4 -9 1 -9 -5 0 -7 9 -14 19 -17 14 -4 21 -16 24 -42 3 -27 4 -23 5 19 2 40 5 51 12 40 8 -13 10 -13 10 1 0 23 -22 30 -38 13z"/>
 <path d="M5753 3885 c0 -22 2 -30 4 -17 2 12 2 30 0 40 -3 9 -5 -1 -4 -23z"/>
 <path d="M5713 3845 c0 -33 2 -45 4 -27 2 18 2 45 0 60 -2 15 -4 0 -4 -33z"/>
 <path d="M2830 3832 c0 -15 4 -20 16 -15 9 3 12 9 7 12 -4 3 -11 10 -15 15 -5 5 -8 0 -8 -12z"/>
 <path d="M5752 3760 c0 -19 2 -27 5 -17 2 9 2 25 0 35 -3 9 -5 1 -5 -18z"/>
 <path d="M5713 3510 c0 -47 2 -66 4 -42 2 23 2 61 0 85 -2 23 -4 4 -4 -43z"/>
 <path d="M3040 3290 c0 -8 5 -22 10 -30 9 -13 10 -13 10 0 0 8 -5 22 -10 30 -9 13 -10 13 -10 0z"/>
 <path d="M3184 2989 c-3 -6 -1 -16 5 -22 8 -8 11 -5 11 11 0 24 -5 28 -16 11z"/>
 <path d="M3312 2878 c-1 -26 -7 -38 -17 -38 -8 0 -19 -10 -26 -21 -10 -20 -9 -21 17 -15 16 4 30 9 32 11 2 1 1 25 -1 51 -3 42 -4 43 -5 12z"/>
 <path d="M5312 2850 c0 -19 2 -27 5 -17 2 9 2 25 0 35 -3 9 -5 1 -5 -18z"/>
 <path d="M3178 2865 c-8 -8 4 -65 13 -65 12 0 12 57 0 64 -4 3 -10 3 -13 1z"/>
 <path d="M3372 2830 c0 -19 2 -27 5 -17 2 9 2 25 0 35 -3 9 -5 1 -5 -18z"/>
 <path d="M3553 2735 c0 -22 2 -30 4 -17 2 12 2 30 0 40 -3 9 -5 -1 -4 -23z"/>
 <path d="M5014 2625 c-4 -8 -10 -12 -15 -9 -5 3 -9 0 -9 -6 0 -18 44 -7 48 13 4 21 -16 23 -24 2z"/>
 <path d="M3930 2588 c0 -11 -5 -15 -15 -12 -8 4 -15 2 -15 -4 0 -13 38 -23 46 -11 3 5 0 17 -5 26 -10 17 -10 17 -11 1z"/>
 </g>

</svg>