<svg xmlns="http://www.w3.org/2000/svg"><defs><font horiz-adv-x="1229"><font-face ascent="1638" bbox="-1019 -555 1945 2163" cap-height="1456" descent="-410" panose-1="0 0 0 0 0 0 0 0 0 0" underline-position="-300" underline-thickness="100" unicode-range="U+0002-FFFD" units-per-em="2048" x-height="1082"/><missing-glyph/><glyph glyph-name=".notdef"/><glyph glyph-name=".null" horiz-adv-x="0"/><glyph glyph-name="nonmarkingreturn" unicode="&#xd;"/><glyph glyph-name="NULL" horiz-adv-x="0"/><glyph glyph-name="NULL" horiz-adv-x="0"/><glyph glyph-name="uni0002"/><glyph glyph-name="uni0009" unicode="&#x9;"/><glyph glyph-name="space" unicode="&#x20;"/><glyph d="M690 471h-186v985h186v-985zM486 97q0 48 28.5 80t85.5 32 86.5-32 29.5-80q0-46-29.5-77t-86.5-31-85.5 31-28.5 77z" glyph-name="exclam" unicode="&#x21;"/><glyph d="M505 1427l-21-370h-130l1 354v125h150v-109zM862 1427l-21-370h-129l1 354v125h150z" glyph-name="quotedbl" unicode="&#x22;"/><glyph d="M707 410h-264l-80-410h-143l80 410h-239v137h265l69 354h-258v139h285l82 416h143l-82-416h264l82 416h143l-82-416h205v-139h-232l-69-354h226v-137h-252l-80-410h-143zM469 547h264l69 354h-264z" glyph-name="numbersign" unicode="&#x23;"/><glyph d="M907 375q1 91-66.5 156t-214.5 113q-93 29-168 67t-128.5 90.5-82.5 120.5-29 157q0 84 25.5 152t72 118.5 113 81.5 147.5 41v220h149v-220q168-23 261-141.5t94-322.5h-184q0 67-16.5 123.5t-48 97-77.5 63.5-105 23q-121 0-183-63t-63-170q0-50 16-89t50.5-71 89-59.5 131.5-53.5q94-31 169-69t127-89 79.5-118 27.5-156q0-87-27.5-156t-77.5-118.5-121.5-79.5-158.5-39v-192h-149v191q-78 8-149.5 36t-126.5 81.5-88 134.5-33 194h185q0-84 25-139.5t64.5-88.5 89.5-47 101-14q65 0 117 16t88 46.5 55.5 74 19.5 98.5z" glyph-name="dollar" unicode="&#x24;"/><glyph d="M44 1194q0 57 17.5 108.5t51 90.5 83.5 61.5 115 22.5q66 0 116.5-22.5t84-61.5 51-90.5 17.5-108.5v-77q0-57-17.5-108t-51-89.5-83.5-61-115-22.5-115.5 22.5-84.5 61-51.5 89.5-17.5 108v77zM182 1117q0-31 7-59.5t23-51 40.5-36 60.5-13.5q35 0 59.5 13.5t39.5 36 22.5 51 7.5 59.5v77q0 31-7.5 60.5t-23 52-40 36-60.5 13.5q-35 0-59.5-13.5t-40-36-22.5-52-7-60.5v-77zM645 338q0 57 17.5 108t51.5 90 84 61.5 115 22.5q66 0 116-22.5t84-61.5 51.5-90 17.5-108v-78q0-57-17.5-108t-51.5-89.5-83.5-61-114.5-22.5q-66 0-116.5 22.5t-84.5 61-51.5 89.5-17.5 108v78zM783 260q0-31 7.5-60t23-51.5 40.5-36 61-13.5q35 0 59.5 13.5t39.5 36 22 51.5 7 60v78q0 31-7 60t-22.5 51.5-40.5 36-60 13.5q-36 0-60.5-13.5t-40-36-22.5-51.5-7-60v-78zM398 188l-111 62 567 1037 111-62z" glyph-name="percent" unicode="&#x25;"/><glyph d="M107 373q0 67 20 124t56 106.5 86 94 111 87.5q-67 91-106.5 172t-39.5 169q0 85 25.5 150.5t72.5 110 113 67.5 148 23q71 0 129-25t98.5-67.5 62.5-98.5 22-118q0-53-15.5-96.5t-43-81.5-65.5-72-82-67l-94-80 307-403q35 64 55 140t21 164h167q0-128-36.5-237.5t-106.5-197.5l181-237h-221l-83 110q-74-63-163-96.5t-187-33.5q-99 0-179 29t-136 81-86.5 124.5-30.5 158.5zM539 130q71 0 137 26t123 74l-323 431-28-24q-50-41-81-80t-47.5-73.5-22-63-5.5-47.5q0-51 16-95t47-77 77-52 107-19zM420 1128q0-56 25-114.5t70-123.5l117 93q31 21 51 44t31 46.5 15.5 47.5 4.5 47q0 30-9.5 58.5t-28 50-44.5 35-59 13.5q-43 0-75.5-16t-54-43-32.5-62.5-11-75.5z" glyph-name="ampersand" unicode="&#x26;"/><glyph d="M653 1425l-21-368h-138l1 352v127h158v-111z" glyph-name="quotesingle" unicode="&#x27;"/><glyph d="M357 591q0 143 22.5 269t60.5 233.5 87.5 196.5 104 158 109.5 118 105 77l39-122q-62-47-123.5-128t-110-196.5-79-266-30.5-337.5v-14q0-187 30.5-338t79-267 110-198.5 123.5-132.5l-39-113q-50 28-105.5 76.5t-110 118-104 158-87 196-60 233.5-22.5 269v10z" glyph-name="parenleft" unicode="&#x28;"/><glyph d="M849 581q0-143-22.5-269t-60.5-233.5-87.5-196-104-158-110-118-105.5-76.5l-39 113q62 46 123.5 128.5t110 199.5 79 269 30.5 339v14q0 187-32 339.5t-82.5 270-111 199.5-117.5 128l39 113q50-28 105.5-77t110-118 104-158 87.5-196.5 60.5-233.5 22.5-269v-10z" glyph-name="parenright" unicode="&#x29;"/><glyph d="M537 683l-377 96 54 175 365-151-25 421h178l-29-427 363 150 54-178-382-94 256-324-146-110-214 363-212-354-146 106z" glyph-name="asterisk" unicode="&#x2a;"/><glyph d="M710 781h407v-184h-407v-451h-185v451h-406v184h406v425h185v-425z" glyph-name="plus" unicode="&#x2b;"/><glyph d="M643 43q0-47-11.5-98.5t-34-102-54.5-96.5-74-82l-115 63q48 70 68 149t20 164v179h201v-176z" glyph-name="comma" unicode="&#x2c;"/><glyph d="M983 561h-765v152h765v-152z" glyph-name="hyphen" horiz-adv-x="1230" unicode="&#x2d;"/><glyph d="M496 120q0 30 9.5 56t27.5 45.5 45 30.5 63 11 63.5-11 46-30.5 28-45.5 9.5-56q0-29-9.5-54.5t-28-44.5-46-29.5-63.5-10.5-63 10.5-45 29.5-27.5 44.5-9.5 54.5z" glyph-name="period" unicode="&#x2e;"/><glyph d="M418-125h-166l608 1581h165z" glyph-name="slash" unicode="&#x2f;"/><glyph d="M1088 557q0-139-32-246.5t-92-181-147-111.5-199-38q-111 0-198.5 38t-148.5 111.5-93.5 181-32.5 246.5v341q0 139 32 246.5t92.5 181.5 148 112.5 198.5 38.5q112 0 199.5-38.5t148-112.5 92.5-181.5 32-246.5v-341zM331 594l567 435q-16 145-84.5 220.5t-197.5 75.5q-146 0-215.5-98.5t-69.5-287.5v-345zM902 852l-566-433q17-141 87-215t195-74q147 0 215.5 100t68.5 288v334z" glyph-name="zero" unicode="&#x30;"/><glyph d="M774 0h-185v1220l-381-145v169l551 212h15v-1456z" glyph-name="one" unicode="&#x31;"/><glyph d="M1067 0h-954v133l477 530q64 71 107 126t69 101.5 37 88 11 85.5q0 54-17.5 101.5t-51 82.5-81 55.5-107.5 20.5q-73 0-126.5-21t-89-59.5-53-93.5-17.5-123h-186q0 92 32 173.5t92.5 142.5 148 97 199.5 36q103 0 185.5-30.5t139.5-84.5 87.5-128 30.5-161q0-65-22-128.5t-59.5-125.5-87-122.5-104.5-120.5l-391-424h731v-151z" glyph-name="two" unicode="&#x32;"/><glyph d="M390 817h132q70 0 123.5 19t90 52 55.5 79 19 101q0 127-65 191.5t-190 64.5q-59 0-107.5-17.5t-83-50.5-53.5-79-19-103h-186q0 83 32.5 156.5t91.5 128 141.5 86 183.5 31.5q98 0 179-26.5t139-78.5 90-129 32-178q0-42-13-87t-40-87.5-69.5-80-101.5-62.5q71-23 118.5-60t76-83 40-97 11.5-101q0-102-35-181t-97-133.5-146.5-83-182.5-28.5q-96 0-180.5 27t-146.5 79-98.5 127-36.5 171h185q0-57 19.5-104t55.5-80 87.5-51 114.5-18 114 16.5 87 50.5 55.5 84.5 19.5 119.5q0 68-22.5 117.5t-63 82.5-98 49-126.5 16h-132v150z" glyph-name="three" unicode="&#x33;"/><glyph d="M924 489h203v-151h-203v-338h-185v338h-664v109l652 1009h197v-967zM280 489h459v721l-30-56z" glyph-name="four" unicode="&#x34;"/><glyph d="M240 730l73 726h747v-180h-591l-41-388q43 25 103 44t139 19q101 0 181-35t136-98.5 86-153.5 30-200q0-104-28-193t-84.5-153.5-142.5-101-202-36.5q-89 0-168 25t-140.5 75-101 126-49.5 177h176q17-124 91.5-188t191.5-64q66 0 117 23.5t85.5 67 52 104.5 17.5 136q0 68-19.5 127t-56.5 102.5-91 68.5-124 25q-46 0-79.5-6.5t-60.5-18.5-50.5-29-48.5-39z" glyph-name="five" unicode="&#x35;"/><glyph d="M856 1457v-166h-16q-92 0-164.5-19t-127.5-52-94.5-78.5-65.5-99.5-40-113-18-120q26 31 60 57.5t73.5 46 85 31 95.5 11.5q109 0 188-41.5t130-109.5 75-154 24-175q0-102-28.5-192t-85.5-157.5-141.5-106.5-195.5-39q-79 0-144.5 23t-117.5 62.5-91 93.5-64.5 116-38.5 129-13 134v87q0 100 12.5 200.5t42.5 192.5 81 172.5 128.5 139.5 184.5 93 250 34h16zM614 801q-47 0-91-15t-82-42-67-65-46-84v-62q0-96 23-170.5t62-125.5 90-77.5 107-26.5q65 0 115 25t84.5 69 52 105.5 17.5 133.5q0 64-16 124.5t-49 107.5-83 75-117 28z" glyph-name="six" unicode="&#x36;"/><glyph d="M1096 1352l-603-1352h-194l601 1294h-788v162h984v-104z" glyph-name="seven" unicode="&#x37;"/><glyph d="M1070 1076q-1-109-59-194t-155-133q56-24 101.5-59.5t78-81.5 50-100 17.5-115q0-99-36.5-176t-99-129.5-146.5-80-180-27.5q-98 0-182.5 27t-147 79.5-98.5 129.5-36 177q0 61 17 115.5t49 100 77 81.5 101 60q-48 24-87 57.5t-66 75-42 90.5-15 103q0 95 32 169.5t88.5 125.5 135 78 171.5 27q92 0 171-27t137-78 91-125.5 33-169.5zM918 397q0 61-20.5 112t-57.5 87.5-88.5 56.5-112.5 20q-63 0-114-20t-87-56.5-55.5-87.5-19.5-112q0-63 19.5-112.5t55.5-83.5 87.5-52 115.5-18q61 0 112 18t87.5 52 57 83.5 20.5 112.5zM884 1073q0 55-18.5 101t-51 79.5-77.5 52-99 18.5-98-17.5-76-50.5-49.5-79.5-17.5-103.5 17.5-102.5 50-78 77-50 98.5-17.5q53 0 98 17.5t77.5 50 50.5 78.5 18 102z" glyph-name="eight" unicode="&#x38;"/><glyph d="M373 164q99 0 174 17.5t130.5 49.5 92.5 75.5 60.5 96 34.5 111 14 119.5q-24-30-55-56.5t-70-46.5-86.5-31.5-103.5-11.5q-108 0-186.5 42.5t-129.5 111.5-75 156-24 175q0 103 28.5 194.5t85 160 141 109 196.5 40.5q84 0 151.5-23.5t119-65 88.5-98 60.5-122 34.5-137 11-143.5v-67q0-93-9-190.5t-35.5-188.5-74.5-171.5-125-140.5-187-95-261-35h-19v165h19zM594 640q47 0 91.5 15.5t82 44 67 67 46.5 85.5v60q0 97-22.5 173t-61 128.5-89 80.5-107.5 28q-65 0-115-26t-84.5-71.5-52.5-108-18-134.5q0-64 16-125.5t48.5-109.5 82-77.5 116.5-29.5z" glyph-name="nine" unicode="&#x39;"/><glyph d="M546 120q0 30 9.5 56t27.5 45.5 45 30.5 63 11 63.5-11 46-30.5 28-45.5 9.5-56q0-29-9.5-54.5t-28-44.5-46-29.5-63.5-10.5-63 10.5-45 29.5-27.5 44.5-9.5 54.5zM546 996q0 30 9.5 56t27.5 45.5 45 30.5 63 11 63.5-11 46-30.5 28-45.5 9.5-56q0-29-9.5-54.5t-28-44.5-46-29.5-63.5-10.5-63 10.5-45 29.5-27.5 44.5-9.5 54.5z" glyph-name="colon" unicode="&#x3a;"/><glyph d="M537 996q0 30 9.5 56t27.5 45.5 45 30.5 63 11 63.5-11 46-30.5 28-45.5 9.5-56q0-29-9.5-54.5t-28-44.5-46-29.5-63.5-10.5-63 10.5-45 29.5-27.5 44.5-9.5 54.5zM775 43q0-47-11.5-98.5t-34-102-54.5-96.5-74-82l-115 63q48 70 68 149t20 164v179h201v-176z" glyph-name="semicolon" unicode="&#x3b;"/><glyph d="M406 663l-53-17 53-18 612-236v-196l-848 379v146l848 378v-196z" glyph-name="less" unicode="&#x3c;"/><glyph d="M1066 780h-893v161h893v-161zM1066 365h-893v160h893v-160z" glyph-name="equal" unicode="&#x3d;"/><glyph d="M178 909v191l883-378v-146l-883-379v192l647 244 60 17-60 19z" glyph-name="greater" unicode="&#x3e;"/><glyph d="M511 410q1 72 6 118.5t21 83 46 70 80 79.5q34 35 69.5 72t65 77.5 48.5 85.5 19 95q0 109-63 166.5t-180 57.5q-47 0-91.5-11.5t-79-36-55.5-62-21-89.5h-185q1 84 35 151t91.5 113.5 136 71 169.5 24.5q101 0 180.5-25.5t134.5-74.5 84-119 29-160q0-72-25-135.5t-64-120-87.5-105.5-95.5-91q-30-29-46.5-55t-24.5-53-10-57.5-2-69.5h-185zM490 97q0 48 28.5 80t85.5 32 86.5-32 29.5-80q0-46-29.5-77t-86.5-31-85.5 31-28.5 77z" glyph-name="question" unicode="&#x3f;"/><glyph d="M1159 789q-3-80-19-163.5t-48.5-151.5-83.5-111-125-43q-61 0-101.5 32t-57.5 89q-35-56-86.5-88.5t-113.5-32.5q-49 0-85 26t-58.5 73-31 112-2.5 143q9 111 37 200.5t72.5 152 103.5 96 130 33.5q67 0 111-26.5t70-62.5l-44-504q-3-41 2-66.5t14.5-40 23.5-19.5 30-5q37 0 65.5 28.5t47.5 77 29 113.5 11 138q4 127-21 228t-76.5 171-126.5 107-171 37q-101 0-184.5-47.5t-144.5-132.5-96-203-39-258q-5-136 19-242t77-179.5 135.5-112 194.5-38.5q30 0 61 4.5t61 13 57 20.5 49 27l32-117q-25-19-57-33t-67-23.5-71-14-68-4.5q-147 0-252.5 51.5t-172 144.5-96 221.5-24.5 281.5q4 103 25 200.5t57.5 182.5 88 155.5 115.5 121.5 140.5 79 162.5 28q122 0 217-47.5t159.5-135.5 96.5-211.5 28-274.5zM470 674q-5-102 17-159t70-57q49 0 89 27t70 90l39 445q-28 13-58 13-53 0-92.5-25.5t-66.5-72-43.5-113-24.5-148.5z" glyph-name="at" unicode="&#x40;"/><glyph d="M869 377h-486l-117-377h-185l470 1456h155l462-1456h-184zM433 538h387l-192 632z" glyph-name="A" unicode="&#x41;"/><glyph d="M172 0v1456h433q90-1 176-23.5t153-69.5 107-120 39-175q-1-57-18.5-104t-48-84.5-71.5-65.5-87-48q58-17 106.5-48.5t83.5-76 54.5-100.5 19.5-121q1-102-39-180t-107-130.5-154.5-80.5-180.5-29h-466zM358 681v-524h285q58 1 110 19.5t92 51.5 63.5 81 23.5 109q1 62-20.5 110t-59.5 81.5-89 51.5-110 20h-295zM358 835h258q52 1 102 16.5t89 45 63 72.5 24 100q0 61-23.5 104t-63 70.5-91 40.5-105.5 14h-253v-463z" glyph-name="B" unicode="&#x42;"/><glyph d="M1117 438q-13-101-52-185.5t-101.5-145-148-94-190.5-33.5q-90 0-163.5 25.5t-131 70.5-99 106-69 133-41 151-14.5 160v203q1 81 14.5 160t41 151 69 133.5 99 106.5 130.5 70.5 164 25.5q109 0 195-33.5t148-95 99.5-147.5 49.5-190h-185q-9 66-31 123t-59 100-90.5 67.5-126.5 24.5q-66 0-116.5-21.5t-87-58.5-61-86-39.5-104-21.5-112.5-6.5-111.5v-205q0-54 6.5-111.5t21.5-113 39-104.5 61-86.5 87-59 117-21.5q73 0 126.5 23t90.5 64.5 59 98 31 122.5h185z" glyph-name="C" unicode="&#x43;"/><glyph d="M155 0v1456h337q152-2 271.5-51.5t202-138 126-212 44.5-273.5v-107q-1-150-44.5-273.5t-126-212-202-138-271.5-50.5h-337zM343 1304v-1153h149q118 1 204 41.5t142.5 110.5 84 165 28.5 206v109q-1 111-29 205.5t-84 164-142 109.5-204 42h-149z" glyph-name="D" unicode="&#x44;"/><glyph d="M975 673h-608v-516h709v-157h-894v1456h885v-158h-700v-468h608v-157z" glyph-name="E" unicode="&#x45;"/><glyph d="M984 643h-606v-643h-187v1456h894v-158h-707v-498h606v-157z" glyph-name="F" unicode="&#x46;"/><glyph d="M1116 191q-92-108-211-160t-261-51q-90 1-165.5 27.5t-135.5 73-105 109.5-75.5 136.5-46 154-16.5 162.5v169q1 81 14.5 161.5t41.5 154.5 70 137.5 100.5 110 132.5 73.5 166 27q102 0 188-31.5t150-90 103-141 48-184.5h-183q-11 63-34 116.5t-60.5 91.5-89.5 59.5-121 21.5q-66 0-117-22.5t-89-60.5-63-88.5-41-106.5-23-114-7-112v-171q1-55 9.5-113.5t26.5-114.5 46-106 67.5-88 91.5-60.5 118-23.5q38-1 79.5 3t80.5 16 73 32.5 57 53.5l2 327h-296v156h472z" glyph-name="G" unicode="&#x47;"/><glyph d="M1087 0h-175v673h-597v-673h-174v1456h174v-626h597v626h175v-1456z" glyph-name="H" unicode="&#x48;"/><glyph d="M174 1456h880v-161h-349v-1135h349v-160h-880v160h341v1135h-341v161z" glyph-name="I" unicode="&#x49;"/><glyph d="M857 1456h189v-1013q-2-101-38.5-186t-99.5-146.5-148.5-96-186.5-34.5q-102 0-185.5 31t-145 88.5-98.5 139-46 182.5h188q3-61 24.5-113t58.5-90.5 88.5-59.5 115.5-21q66 0 118 24.5t88.5 66.5 56 97.5 21.5 117.5v1013z" glyph-name="J" unicode="&#x4a;"/><glyph d="M523 676l-162-184v-492h-189v1456h189v-711l141 176 427 535h225l-509-637 543-819h-225z" glyph-name="K" unicode="&#x4b;"/><glyph d="M383 157h712v-157h-897v1456h185v-1299z" glyph-name="L" unicode="&#x4c;"/><glyph d="M377 1456l237-728 256 728h230v-1456h-180v581l15 608-269-784h-106l-247 763 15-587v-581h-180v1456h229z" glyph-name="M" unicode="&#x4d;"/><glyph d="M1086 0h-188l-565 1088-3-1088h-187v1456h188l565-1086 3 1086h187v-1456z" glyph-name="N" unicode="&#x4e;"/><glyph d="M1121 644q-1-78-13.5-157.5t-38.5-153.5-66.5-138-96.5-112-128.5-75.5-162.5-27.5-162.5 27.5-128.5 75.5-97 112.5-67.5 138.5-39.5 153-14 157v166q1 78 13.5 157.5t39 153.5 67 138.5 96.5 113 128.5 76 162.5 27.5 163-27.5 129-75.5 96.5-112.5 67-138.5 39-154 13.5-158v-166zM938 812q-1 52-7 108.5t-20.5 112-38.5 106-60 89-85 61-114 22.5q-64 0-113-23t-85-61.5-60-89-38.5-106-21-112-7.5-107.5v-168q1-51 7.5-108t21.5-112.5 39-106.5 60-89.5 85-61.5 114-23 114.5 23 85 61.5 59 89 38 106 20 112.5 6.5 109v168z" glyph-name="O" unicode="&#x4f;"/><glyph d="M376 584v-584h-185v1456h472q98-2 185.5-31t153.5-84 104.5-136 38.5-186-38.5-185.5-104.5-135.5-153.5-84-185.5-30h-287zM376 736h287q64 1 118 20.5t94 55.5 62.5 87.5 22.5 117.5-22.5 119-62 90-94 57-118.5 21h-287v-568z" glyph-name="P" unicode="&#x50;"/><glyph d="M1134 663q-1-81-14-163t-39.5-158-68-142.5-99.5-115.5l251-209-127-121-288 244q-62-18-134-18-93 0-167 28.5t-131.5 77.5-99.5 115.5-69 142.5-40 157.5-14 161.5v128q1 80 14 162t40 158 68 142.5 98.5 116 132 78 167.5 28.5 167.5-28.5 132-77.5 99-115.5 68-142.5 39.5-158.5 14-162.5v-128zM950 793q-1 55-6.5 114.5t-20 117-39 109.5-61.5 91.5-88.5 62.5-120.5 23q-68 0-119-23.5t-88-63-61.5-91.5-39.5-109.5-21.5-117-6.5-113.5v-130q0-54 6.5-113.5t21.5-117.5 39.5-110 61.5-92 88.5-63.5 119.5-23.5q69 0 120.5 23.5t88.5 63 61 91.5 38.5 110 20 117.5 6.5 114.5v130z" glyph-name="Q" unicode="&#x51;"/><glyph d="M656 594h-291v-594h-184v1456h427q102-2 192-29t157.5-81 106-135.5 38.5-191.5q0-71-20.5-130t-56.5-107-86-85-110-63l309-622-1-12h-195zM365 746h248q62 1 117 19.5t96.5 53.5 65.5 85.5 24 116.5q0 70-23 122.5t-64 88-97.5 53.5-123.5 19h-243v-558z" glyph-name="R" unicode="&#x52;"/><glyph d="M936 368q0 67-30.5 113t-78.5 77.5-105.5 52.5-110.5 38q-77 25-156.5 60t-145 86-107 120.5-41.5 163.5 41.5 168 108.5 125 152 77.5 171 26.5q95 0 183-31.5t156-88.5 109-138 43-181h-190q-8 63-31 114.5t-61 88.5-90.5 57.5-118.5 20.5q-53 0-103.5-15t-90-45-63-74-23.5-102q1-63 32-106.5t78.5-73.5 103-50 104.5-35q54-17 109-38.5t106-49.5 95-63 77-79.5 51.5-98 18.5-118.5q0-98-43.5-171t-112.5-121.5-156-73-174-24.5q-97 0-190 30t-166.5 86.5-119.5 138-49 185.5h189q9-68 37-120.5t72-89 101.5-55 125.5-18.5q54 0 106.5 13.5t93.5 42 67 72 26 103.5z" glyph-name="S" unicode="&#x53;"/><glyph d="M1156 1298h-450v-1298h-180v1298h-450v158h1080v-158z" glyph-name="T" unicode="&#x54;"/><glyph d="M1088 1456l2-986q-2-102-37-191t-98-155.5-150-105-191-38.5q-106 0-193 38t-149 104.5-97 156-36 191.5l2 986h176l4-986q1-65 20.5-125t56-106 91-74 125.5-28 125 27.5 90.5 74 55.5 106.5 21 125l3 986h179z" glyph-name="U" unicode="&#x55;"/><glyph d="M610 298l344 1158h197l-459-1456h-161l-460 1456h198z" glyph-name="V" unicode="&#x56;"/><glyph d="M896 394l111 1062h175l-177-1456h-189l-187 1097-189-1097h-190l-177 1456h176l111-1062 187 1062h161z" glyph-name="W" unicode="&#x57;"/><glyph d="M625 885l314 571h218l-423-722 433-734h-216l-322 582-323-582h-219l434 734-423 722h217z" glyph-name="X" unicode="&#x58;"/><glyph d="M603 725l332 731h210l-453-913-3-543h-172l-3 543-453 913h211z" glyph-name="Y" unicode="&#x59;"/><glyph d="M325 157h754v-157h-963l-2 144 725 1154h-712v158h923l2-141z" glyph-name="Z" unicode="&#x5a;"/><glyph d="M822 1512h-221v-1672h221v-152h-396v1976h396v-152z" glyph-name="bracketleft" unicode="&#x5b;"/><glyph d="M231 1456h167l608-1581h-167z" glyph-name="backslash" unicode="&#x5c;"/><glyph d="M405 1664h397v-1976h-397v152h222v1672h-222v152z" glyph-name="bracketright" unicode="&#x5d;"/><glyph d="M403 677h-172l320 779h127l319-779h-171l-198 486-15 68-15-68z" glyph-name="asciicircum" unicode="&#x5e;"/><glyph d="M1072-151h-917v151h917v-151z" glyph-name="underscore" unicode="&#x5f;"/><glyph d="M813 1215h-150l-248 266h223z" glyph-name="grave" unicode="&#x60;"/><glyph d="M885 0q-11 21-17.5 52.5t-9.5 65.5q-28-28-62.5-53t-76-44-88.5-30-100-11q-86 0-155.5 25t-118 67.5-75 101-26.5 126.5q0 89 35.5 156t100.5 111.5 156.5 66.5 204.5 22h202v85q0 49-18 88t-51 66.5-80.5 42.5-106.5 15q-55 0-98.5-14t-73.5-37-46.5-54.5-16.5-65.5h-186q1 59 30.5 116t85 102.5 135 73.5 180.5 28q92 0 171-22.5t136.5-68 90.5-113.5 33-159v-503q0-54 10-114.5t28-105.5v-16h-193zM558 141q54 0 101 14t85.5 37 66.5 52.5 44 61.5v219h-172q-162 0-252-48t-90-151q0-40 13.5-74t40.5-58.5 68-38.5 95-14z" glyph-name="a" unicode="&#x61;"/><glyph d="M1091 529q0-116-28-216.5t-82-174.5-133.5-116-182.5-42q-104 0-180.5 37t-130.5 106l-9-123h-170v1536h185v-570q53 66 128 101t175 35q104 0 184-41t134-114 82-174.5 28-222.5v-21zM906 550q0 79-15.5 150.5t-49.5 126-89 86.5-135 32q-48 0-88-12.5t-71.5-35-56-53-41.5-66.5v-473q18-36 42.5-66.5t56.5-53.5 72-35.5 88-12.5q76 0 130.5 31.5t89 85.5 51 125 16.5 150v21z" glyph-name="b" unicode="&#x62;"/><glyph d="M635 130q50 0 97.5 16t84.5 44.5 59.5 67 23.5 83.5h175q-1-72-37.5-137.5t-97.5-115-140-79-165-29.5q-123 0-215 44t-153.5 118.5-92.5 172-31 205.5v42q0 107 31 205t92.5 172.5 153.5 118.5 215 44q96 0 176.5-30.5t139-83 91.5-124.5 33-154h-175q-1 49-21.5 92.5t-55.5 76.5-83.5 52-104.5 19q-86 0-144.5-34.5t-94.5-90-51.5-124.5-15.5-139v-42q0-71 15.5-140.5t51-125 94-90 145.5-34.5z" glyph-name="c" unicode="&#x63;"/><glyph d="M139 550q0 121 30.5 222.5t87 174.5 136.5 114 179 41q97 0 169.5-32.5t125.5-94.5v561h185v-1536h-170l-8 114q-54-66-129-100t-175-34q-98 0-177.5 42t-135.5 116-87 174.5-31 216.5v21zM324 529q0-79 17-150t52.5-125 90.5-85.5 132-31.5q47 0 85 11t69 31.5 55 49 42 63.5v502q-36 66-97 108.5t-152 42.5q-78 0-133.5-32t-91-86.5-52.5-126-17-150.5v-21z" glyph-name="d" unicode="&#x64;"/><glyph d="M652-20q-114 0-209.5 39t-163.5 109-106 166-38 209v42q0 131 42 234.5t111.5 175 158 109.5 181.5 38q117 0 204.5-40.5t145.5-112 86.5-168.5 28.5-210v-83h-773q3-74 28.5-139t70-113.5 106.5-76.5 137-28q99 0 176 40t128 106l113-88q-27-41-67.5-78.5t-93.5-66.5-120-46.5-146-17.5zM628 950q-56 0-106-20.5t-90-60-67.5-97-38.5-132.5h582v14q-3 54-20.5 107t-51.5 95-85.5 68-122.5 26z" glyph-name="e" unicode="&#x65;"/><glyph d="M450 0v939h-298v143h298v76q0 104 30.5 182.5t86 131.5 133.5 80 174 27q66 0 128.5-11t128.5-28l-22-153q-41 14-95.5 24.5t-116.5 10.5q-130-1-195.5-66t-65.5-198v-76h417v-143h-417v-939h-186z" glyph-name="f" horiz-adv-x="1230" unicode="&#x66;"/><glyph d="M140 550q0 121 29.5 222.5t85.5 174.5 136 114 181 41q100 0 175.5-35.5t128.5-102.5l9 118h168v-1059q0-107-33.5-190t-94-141-144.5-88-186-30q-42 0-96 9.5t-109.5 31-107 57.5-88.5 89l96 111q34-41 70-69.5t73-45.5 74-24.5 74-7.5q66 0 119 19t90.5 55.5 57.5 90.5 20 124v93q-54-62-127.5-94.5t-170.5-32.5q-99 0-179 42t-135.5 116-85.5 174.5-30 216.5v21zM325 529q0-79 16.5-150t52-125 90.5-85.5 132-31.5q48 0 86.5 11.5t69 32.5 54.5 50 42 64v496q-18 34-42 62t-55 48.5-69 32-84 11.5q-78 0-133.5-32t-91-86.5-52-126-16.5-150.5v-21z" glyph-name="g" unicode="&#x67;"/><glyph d="M359 921q58 85 143 132.5t191 48.5q85 0 154.5-24.5t118.5-76.5 75.5-131.5 26.5-188.5v-681h-185v683q0 133-63.5 198t-181.5 64q-89 0-161.5-43.5t-117.5-115.5v-786h-185v1536h185v-615z" glyph-name="h" unicode="&#x68;"/><glyph d="M203 1082h553v-922h353v-160h-906v160h368v761h-368v161zM547 1366q0 46 27.5 77.5t83.5 31.5q55 0 83-31.5t28-77.5q0-45-28-75t-83-30q-56 0-83.5 30t-27.5 75z" glyph-name="i" unicode="&#x69;"/><glyph d="M299 1082h546v-1089q0-104-28.5-184t-83-134.5-133-83-178.5-28.5q-57 0-106.5 3.5t-104.5 13.5l13 152q17-3 43-5.5t52.5-4 51-2 38.5-.5q52 0 98 13.5t80 45.5 53.5 84.5 19.5 129.5v928h-361v161zM634 1367q0 45 27 76.5t83 31.5 84-31.5 28-76.5-28-75.5-84-30.5-83 30.5-27 75.5z" glyph-name="j" unicode="&#x6a;"/><glyph d="M498 505l-136-131v-374h-186v1536h186v-940l121 130 355 356h225l-438-451 505-631h-235z" glyph-name="k" unicode="&#x6b;"/><glyph d="M203 1536h553v-1376h353v-160h-906v160h368v1215h-368v161z" glyph-name="l" unicode="&#x6c;"/><glyph d="M259 1082l5-102q33 57 86.5 89t129.5 33q149 0 199-116 32 52 84.5 83.5t127.5 32.5q119 0 183-73t64-221v-808h-176v810q0 136-125 135-33 0-57-9t-40-24.5-25-36-12-42.5v-833h-176v811q0 65-29 100t-92 34q-58 0-90-23t-47-61v-861h-176v1082h166z" glyph-name="m" unicode="&#x6d;"/><glyph d="M340 1082l13-160q59 84 145 131.5t192 48.5q85 0 154.5-24t118.5-75 75.5-129.5 26.5-186.5v-687h-185v683q0 72-16 122t-47.5 81-77 45-104.5 14q-93 0-163.5-46.5t-112.5-122.5v-776h-185v1082h166z" glyph-name="n" unicode="&#x6e;"/><glyph d="M122 551q0 117 34 217.5t97.5 174.5 154.5 116.5 205 42.5q115 0 206.5-42.5t155-116.5 97.5-174.5 34-217.5v-22q0-117-34-217t-97.5-174-154.5-116-205-42q-115 0-206.5 42t-155 116-97.5 174-34 217v22zM307 529q0-80 19-152.5t57.5-127.5 96.5-87 135-32q76 0 133.5 32t96 87 57.5 127.5 19 152.5v22q0 79-19.5 151.5t-58 127.5-96 87.5-134.5 32.5-134-32.5-95.5-87.5-57.5-127.5-19-151.5v-22z" glyph-name="o" unicode="&#x6f;"/><glyph d="M1087 529q0-116-28-216.5t-82-174.5-133.5-116-181.5-42q-99 0-174.5 32t-129.5 92v-520h-185v1498h169l9-118q54 67 130.5 102.5t177.5 35.5q104 0 184-41t134-114 82-174.5 28-222.5v-21zM902 550q0 79-17.5 150.5t-54 126-92.5 86.5-134 32q-89 0-149.5-41.5t-96.5-106.5v-521q36-64 96-104.5t152-40.5q77 0 133 32.5t92 87.5 53.5 127 17.5 151v21z" glyph-name="p" unicode="&#x70;"/><glyph d="M140 550q0 121 29 222.5t85 174.5 137.5 114 185.5 41q96 0 169.5-32.5t127.5-94.5l8 107h170v-1498h-185v514q-54-57-126-87.5t-166-30.5q-103 0-183.5 42t-136.5 116-85.5 174.5-29.5 216.5v21zM325 529q0-79 17.5-151t53.5-127 91.5-87.5 132.5-32.5q89 0 149 40t98 104v534q-19 31-43.5 56.5t-55 44.5-67 29.5-79.5 10.5q-77 0-133-33t-92.5-88.5-54-127.5-17.5-151v-21z" glyph-name="q" unicode="&#x71;"/><glyph d="M883 1102q26 0 54-1.5t53.5-5 47-8.5 35.5-11l-25-181q-54 12-102.5 17.5t-101.5 5.5q-130 0-210.5-59t-118.5-165v-694h-186v1082h176l9-172q66 89 158.5 140.5t210.5 51.5z" glyph-name="r" unicode="&#x72;"/><glyph d="M893 287q0 33-13 59.5t-44 48.5-82 40.5-127 33.5q-93 19-169.5 46t-131 64.5-84.5 88-30 117.5q0 66 31 123.5t87 100.5 133.5 68 170.5 25q100 0 180-26t136-72 86.5-107.5 30.5-132.5h-185q0 35-18 68.5t-50 59.5-77.5 42-102.5 16q-59 0-103.5-13t-74-35-44.5-51-15-60q0-32 12-57t41.5-45 79-36 125.5-31q100-21 179-48.5t133-66 82.5-89.5 28.5-118q0-72-32.5-131t-90.5-101-139-65-177-23q-110 0-196 29.5t-145.5 78-91 112.5-31.5 133h185q4-57 30.5-96t66-63 87.5-34 95-10q117 0 185 43t69 114z" glyph-name="s" unicode="&#x73;"/><glyph d="M612 1344v-262h412v-143h-412v-588q0-63 16-104t44-65.5 64.5-34.5 77.5-10q30 0 62 3.5t62.5 8.5 57 10.5 43.5 9.5l26-131q-23-14-56-24.5t-72-18-82.5-11.5-86.5-4q-72 0-134.5 20.5t-108.5 65-72.5 115-26.5 170.5v588h-284v143h284v262h186z" glyph-name="t" unicode="&#x74;"/><glyph d="M876 149q-54-80-135-124.5t-187-44.5q-85 0-154 26.5t-118 82.5-75.5 142.5-26.5 207.5v643h185v-645q0-88 14-146t42-92.5 68.5-48.5 93.5-14q113 0 182.5 46t103.5 124v776h186v-1082h-168z" glyph-name="u" unicode="&#x75;"/><glyph d="M598 266l17-67 18 67 303 816h189l-441-1082h-141l-445 1082h190z" glyph-name="v" unicode="&#x76;"/><glyph d="M338 392l22-155 27 155 173 690h119l172-690 29-170 27 170 120 690h164l-230-1082h-146l-169 663-28 168-27-168-167-663h-146l-230 1082h164z" glyph-name="w" unicode="&#x77;"/><glyph d="M621 681l289 401h217l-403-535 414-547h-214l-299 412-299-412h-216l414 547-403 535h214z" glyph-name="x" unicode="&#x78;"/><glyph d="M572 384l48-131 330 829h207l-549-1249q-19-42-48.5-89t-71.5-87-98-67-129-27q-13 0-29 1.5t-32 4-30 5.5-23 5l30 151q7 0 19-1t25-2 25-1.5 19-.5q38 0 69.5 21t56 50 42 60 27.5 51l74 144-466 1031h207z" glyph-name="y" unicode="&#x79;"/><glyph d="M396 151h689v-151h-925v136l646 793h-637v153h880v-131z" glyph-name="z" unicode="&#x7a;"/><glyph d="M978-366q-65 2-118 22t-95 54-72.5 79-51 96.5-30.5 106-10 107.5v169q0 144-68.5 209t-209.5 66v145q141 0 209.5 64.5t68.5 209.5v170q0 53 9 107.5t28 106 48.5 96.5 71.5 79 96.5 54 123.5 22l21-115q-72-2-114.5-34t-64-81.5-27.5-111.5-6-123v-170q-1-120-56-210.5t-171-137.5q116-46 171-136.5t56-209.5v-169q0-62 10-123.5t34.5-111 65-81.5 102.5-34z" glyph-name="braceleft" unicode="&#x7b;"/><glyph d="M689-398h-149v1854h149v-1854z" glyph-name="bar" unicode="&#x7c;"/><glyph d="M323-251q61 2 102 34t65.5 81.5 35 111 10.5 123.5v169q0 119 55 209.5t171 136.5q-116 47-171 137.5t-55 210.5v170q0 61-6.5 123t-28 111.5-63.5 81.5-114 34l20 115q69-2 123.5-22t96.5-54 71.5-79 48.5-96.5 28-106 9-107.5v-170q0-145 69-209.5t209-64.5v-145q-140-1-209-66t-69-209v-169q0-80-22-161.5t-68.5-148.5-117.5-110-169-45z" glyph-name="braceright" unicode="&#x7d;"/><glyph d="M1180 740q0-66-22-127t-62-108-95-75-122-28q-47 0-87.5 9t-79 27-76 44-77.5 60q-55 45-105 71.5t-106 25.5q-35 0-65.5-14.5t-52.5-39-35-58-13-71.5l-134 17q0 66 22 126t61.5 105 94.5 71.5 122 26.5q46 0 87.5-9.5t80.5-27.5 76.5-44 76.5-58q57-48 105.5-73.5t104.5-24.5q35 0 65.5 16t53 42.5 35.5 61.5 13 73z" glyph-name="asciitilde" unicode="&#x7e;"/><glyph glyph-name="nonbreakingspace" unicode="&#xa0;"/><glyph d="M522 611h185v-983h-185v983zM728 990q0-46-29.5-77.5t-85.5-31.5q-57 0-86 31.5t-29 77.5q0 48 29 80.5t86 32.5q56 0 85.5-32.5t29.5-80.5z" glyph-name="exclamdown" unicode="&#xa1;"/><glyph d="M639 130q50 0 97.5 16t84.5 44.5 59.5 67 23.5 83.5h175q-1-64-30-122.5t-78-106-114.5-80.5-138.5-45v-232h-185v235q-96 18-168.5 67.5t-120.5 120.5-72.5 159-24.5 183v42q0 95 24.5 182.5t72.5 159 120.5 121 168.5 67.5v226h185v-222q80-12 146-46.5t114-85.5 74.5-116 26.5-138h-175q-1 49-21.5 92.5t-55.5 76.5-83.5 52-104.5 19q-86 0-144.5-34.5t-94.5-90-51.5-124.5-15.5-139v-42q0-71 15.5-140.5t51-125 94-90 145.5-34.5z" glyph-name="cent" unicode="&#xa2;"/><glyph d="M463 626l8-226q0-69-14.5-135t-46.5-114h738l-1-151h-1030v151h75q27 7 45.5 35t29.5 64.5 15 77 4 72.5l-8 226h-165v152h160l-9 261q0 102 33.5 183t92.5 137.5 141 86.5 178 30 172-28 128.5-79 80.5-122 28-158h-186q0 63-19.5 107.5t-53 73-77 42-91.5 13.5q-51 0-95.5-19.5t-76.5-56-50.5-90-18.5-120.5l8-261h320v-152h-315z" glyph-name="sterling" unicode="&#xa3;"/><glyph d="M931 84q-62-50-137-77t-160-27-159.5 27-136.5 75l-104-108-131 135 112 115q-38 63-58 136.5t-20 154.5q0 86 22 163t64 142l-120 124 131 135 117-122q60 44 131.5 68t151.5 24 152-24.5 132-69.5l120 125 132-136-124-128q40-64 62-140t22-161q0-80-20-152.5t-56-134.5l116-119-132-136zM309 515q0-74 25-140t68.5-115.5 103-79 128.5-29.5 128 29.5 102.5 79 68 115.5 24.5 140-24.5 140-68 115.5-102.5 78.5-128 29-128.5-29-103-78.5-68.5-115.5-25-140z" glyph-name="currency" unicode="&#xa4;"/><glyph d="M614 779l369 677h212l-421-720h318v-121h-388l-1-2v-167h389v-120h-389v-326h-185v326h-380v120h380v169h-380v121h316l-421 720h212z" glyph-name="yen" unicode="&#xa5;"/><glyph d="M511-270v791h185v-791h-185zM696 698h-185v758h185v-758z" glyph-name="brokenbar" unicode="&#xa6;"/><glyph d="M1140 431q0-97-49-166t-137-109q69-48 105.5-116t36.5-168q0-88-35.5-156t-100-115-154-71.5-198.5-24.5q-98 0-191.5 22.5t-166.5 73-118 133-45 202.5l185 2q0-78 30-131.5t78-87 108-48 120-14.5q70 0 126 16t95.5 44 60.5 67 21 86q0 48-19 83t-61 63.5-108.5 54.5-162.5 55q-106 29-192.5 63.5t-147.5 83.5-94 116-33 162q0 94 48 163.5t134 110.5q-66 49-101.5 117t-35.5 168q0 84 35.5 151.5t99.5 115.5 154 73.5 199 25.5q114 0 205-28.5t154.5-83 98-135 34.5-184.5h-185q0 58-20.5 109.5t-59.5 89-96.5 59.5-130.5 22q-75 0-131.5-16.5t-95-45-57.5-67.5-19-84q0-52 17-88t57.5-64.5 107.5-53 167-52.5q108-30 194.5-65t147.5-83 93.5-114.5 32.5-160.5zM598 691q-45 12-85.5 24.5t-77.5 26.5q-78-18-117.5-68t-39.5-121q0-53 18-90t59-66.5 109-54.5 168-53q44-13 84-25t77-26q76 20 119 69.5t44 120.5q0 48-20 84.5t-63 66.5-111 56.5-164 55.5z" glyph-name="section" unicode="&#xa7;"/><glyph d="M287 1371q0 45 27.5 75.5t81.5 30.5 82-30.5 28-75.5-28-75-82-30-81.5 30-27.5 75zM717 1369q0 45 27.5 76t81.5 31 82-31 28-76q0-44-28-74.5t-82-30.5-81.5 30.5-27.5 74.5z" glyph-name="dieresis" unicode="&#xa8;"/><glyph d="M862 443q0-116-65.5-175.5t-183.5-59.5q-62 0-110 22t-81 60.5-51 91.5-18 116v87q0 62 18 115.5t51 92.5 81 61 110 22q118 0 184-60t66-175h-110q-1 71-34.5 104t-105.5 33q-38 0-66.5-15t-47.5-40.5-28-61-9-75.5v-88q0-41 9-76t28-61 47.5-41 66.5-15q72 0 105 33t34 105h110zM177 542q0-98 34-184.5t94-151 141.5-101.5 176.5-37q94 0 175.5 37.5t141.5 102 94 150.5 34 184q0 97-34 182.5t-94 149.5-141.5 100.5-175.5 36.5q-95 0-176.5-36.5t-141.5-100.5-94-149.5-34-182.5zM90 542q0 78 18.5 149.5t52.5 134 82.5 113.5 107.5 87 128 56 144 20q113 0 210-44t168.5-119.5 112.5-177.5 41-219-41-219.5-112.5-179-168.5-120.5-210-44-210.5 44-169 120.5-112.5 179-41 219.5z" glyph-name="copyright" unicode="&#xa9;"/><glyph d="M780 705q-15 44-21 97-30-43-86-76.5t-140-34.5q-118 0-183.5 61t-65.5 166q0 112 86.5 171.5t244.5 59.5h141v52q-1 65-32 100t-94 35q-67 0-107.5-26.5t-41.5-78.5l-161 12q1 51 23.5 94t63 74 97.5 48 126 17q65 0 118.5-17.5t91-52 58.5-86.5 21-120v-314q0-48 6-92t20-89h-165zM572 828q27 0 56.5 8.5t55 23 45 32.5 27.5 36v109h-140q-79 0-124.5-33t-45.5-82q0-45 32-69.5t94-24.5z" glyph-name="ordfeminine" unicode="&#xaa;"/><glyph d="M390 515l258-397h-141l-295 388v19l295 389h141zM725 515l258-397h-141l-295 388v19l295 389h141z" glyph-name="guillemotleft" unicode="&#xab;"/><glyph d="M1019 375h-185v264h-645v161h830v-425z" glyph-name="logicalnot" unicode="&#xac;"/><glyph d="M983 561h-765v152h765v-152z" glyph-name="uni00AD" horiz-adv-x="1230" unicode="&#xad;"/><glyph d="M87 540q0 117 41 219.5t112.5 178.5 169 119.5 210.5 43.5 210-43.5 168.5-119.5 112.5-178.5 41-219.5-41-219.5-112.5-178-168.5-119.5-210-44-210.5 44-169 119.5-112.5 178-41 219.5zM174 540q0-98 34-183.5t94-149.5 141.5-101 176.5-37q94 0 175.5 37t141.5 101 94 149.5 34 183.5-34 184-94 149.5-141.5 100-175.5 36.5q-95 0-176.5-36.5t-141.5-100-94-149.5-34-184zM508 485v-253h-107v635h211q55 0 99-12t75.5-36 48.5-60 17-84q0-56-35-95t-101-61l147-287h-110l-120 253h-125zM508 582h119q48 1 83 24t35 65q0 55-30 77t-103 22h-104v-188z" glyph-name="registered" unicode="&#xae;"/><glyph d="M971 1313h-714v143h714v-143z" glyph-name="macron" unicode="&#xaf;"/><glyph d="M971 1313h-714v143h714v-143z" glyph-name="macron" unicode="&#x2c9;"/><glyph d="M361 1216q0 53 20.5 100.5t55 83 81 56 98.5 20.5q51 0 96.5-20.5t79.5-56 54-83 20-100.5-20-100-54-81.5-79.5-54.5-96.5-20q-52 0-98.5 20t-81 54.5-55 81-20.5 100.5zM485 1216q0-27 10.5-50.5t28-41 41.5-27 51-9.5 50 9.5 40.5 27 27 41 9.5 50.5q0 28-9.5 52.5t-27 42.5-40.5 28-50 10-51-10-41.5-28-28-42.5-10.5-52.5z" glyph-name="degree" unicode="&#xb0;"/><glyph d="M709 855h363v-152h-363v-414h-168v414h-385v152h385v412h168v-412zM1030 1h-835v151h835v-151z" glyph-name="plusminus" unicode="&#xb1;"/><glyph d="M934 667h-599v108l288 271q65 60 93 103.5t28 78.5q0 49-33 79.5t-91 30.5q-74 0-109.5-37.5t-36.5-95.5h-158q0 54 21 102t60 83.5 94.5 56 124.5 20.5q66 0 119-16.5t90-47.5 57-74.5 20-98.5q0-40-13.5-75.5t-39-70-61-70-78.5-74.5l-175-145h399v-128z" glyph-name="twosuperior" unicode="&#xb2;"/><glyph d="M526 1125h84q70 0 108 29t38 80q0 45-33 74t-100 29q-57 0-94-24t-38-68h-157q0 51 22.5 92t61 69.5 90.5 44 112 15.5q64 0 118-14.5t93-43 60.5-70.5 21.5-97q0-56-35.5-101t-100.5-70q150-42 150-184 0-56-23.5-99t-65-72-97.5-44.5-120-15.5q-57 0-110.5 13.5t-95 42-67 72.5-25.5 105h158q1-46 40.5-75.5t104.5-29.5q68 0 106 30t37 81q0 63-43.5 89t-115.5 26h-84v116z" glyph-name="threesuperior" unicode="&#xb3;"/><glyph d="M594 1481h224l-268-266h-140z" glyph-name="acute" unicode="&#xb4;"/><glyph d="M373 1082v-622q0-100 16-164t45.5-101 70-51 88.5-14q107 0 169.5 41t91.5 112v799h186v-1082h-167l-9 116q-44-65-108.5-100.5t-154.5-35.5q-146 0-228 73v-469h-185v1498h185z" glyph-name="mu" unicode="&#xb5;"/><glyph d="M790 0v520h-87q-118 0-209.5 35t-154.5 97-95.5 148-32.5 188q0 101 32.5 186.5t95.5 148 154.5 98 209.5 35.5h273v-1456h-186z" glyph-name="paragraph" unicode="&#xb6;"/><glyph d="M504 729q0 48 29 80t86 32q56 0 85.5-32t29.5-80q0-47-29.5-78.5t-85.5-31.5q-57 0-86 31.5t-29 78.5z" glyph-name="periodcentered" unicode="&#xb7;"/><glyph d="M630 0l-12-52q29-5 56.5-17t49-32 34.5-50.5 13-73.5q0-97-79-153t-224-57l-7 107q34 0 64 5.5t52.5 17.5 36 30.5 13.5 45.5q0 25-10 42t-30.5 27.5-50.5 16.5-70 9l31 134h133z" glyph-name="cedilla" unicode="&#xb8;"/><glyph d="M758 665h-157v601l-215-57v128l354 117h18v-789z" glyph-name="onesuperior" unicode="&#xb9;"/><glyph d="M272 1141q0 73 24 134.5t68.5 106 107.5 69.5 142 25 142.5-25 108-69.5 68-106 23.5-134.5v-117q0-72-23.5-133.5t-67.5-106-107-69.5-142-25q-80 0-143.5 25t-108 69.5-68.5 106-24 133.5v117zM435 1024q0-42 11-77.5t33.5-61.5 56.5-41 80-15q44 0 77.5 15t55.5 41 33.5 61.5 11.5 77.5v117q0 41-11.5 76.5t-34 62-56 41.5-78.5 15-78.5-15-56-41.5-33.5-62-11-76.5v-117z" glyph-name="ordmasculine" unicode="&#xba;"/><glyph d="M383 949l294-389v-19l-294-389h-142l258 398-258 399h142zM728 949l294-389v-19l-294-389h-142l258 398-258 399h142z" glyph-name="guillemotright" unicode="&#xbb;"/><glyph d="M383.117 751h-141.304v540.915l-193.505-51.3018v115.203l318.608 105.303h16.2002v-710.119zM402 221l-113 66 513 954 114-66zM1068.12 269.107h96.3027v-117.003h-96.3027v-152.104h-141.304v152.104h-337.509l-5.40039 91.8018 339.31 466.213h144.903v-441.012zM726.111 269.107h200.705v260.107l-15.3008-25.2012z" glyph-name="onequarter" unicode="&#xbc;"/><glyph d="M342 221l-113 66 513 954 114-66zM371.117 747h-141.304v540.915l-193.505-51.3018v115.203l318.608 105.303h16.2002v-710.119zM1173.82 0h-539.114v97.2031l259.207 243.906q58.502 54.001 83.7021 93.1523 25.2012 39.1514 25.2012 70.6523 0 44.1006-29.7012 71.5518-29.7012 27.4502-81.9023 27.4502-66.6016 0-98.5527-33.751-31.9502-33.751-32.8506-85.9521h-142.204q0 48.6016 18.9004 91.8027t54.002 75.1523q35.1006 31.9502 85.0518 50.4014 49.9521 18.4502 112.054 18.4502 59.4014 0 107.103-14.8506t81.002-42.751q33.3018-27.9004 51.3018-67.0518t18-88.6523q0-36.001-12.1494-67.9521-12.1504-31.9512-35.1016-63.002-22.9502-31.0508-54.9014-63.001-31.9512-31.9512-70.6523-67.0518l-157.504-130.504h359.109v-115.203z" glyph-name="onehalf" unicode="&#xbd;"/><glyph d="M469 220l-113 66 513 954 114-66zM1101.12 269.107h96.3027v-117.003h-96.3027v-152.104h-141.304v152.104h-337.509l-5.40039 91.8018 339.31 466.213h144.903v-441.012zM759.111 269.107h200.705v260.107l-15.3008-25.2012zM220.513 1157.11h75.6016q63.002 0 97.2031 26.1006t34.2012 72.002q0 40.501-29.7012 66.6016t-90.0029 26.1006q-51.3008 0-84.6016-21.6006t-34.2012-61.2012h-141.304q0 45.9014 20.25 82.8018 20.251 36.9014 54.9023 62.5518 34.6504 25.6514 81.4521 39.6016 46.8008 13.9502 100.803 13.9502 57.6016 0 106.202-13.0508 48.6016-13.0498 83.7021-38.7002 35.1016-25.6514 54.4521-63.4521t19.3506-87.3027q0-50.4014-31.9512-90.9023t-90.4521-63.002q135.003-37.8008 135.003-165.604 0-50.4023-21.1504-89.1025-21.1504-38.7012-58.501-64.8018-37.3516-26.1016-87.7529-40.0518t-108.003-13.9502q-51.3008 0-99.4521 12.1504t-85.5029 37.8008q-37.3506 25.6514-60.3018 65.252-22.9502 39.6016-22.9502 94.5029h142.204q.899414-41.4014 36.4512-67.9521 35.5508-26.5508 94.0518-26.5508 61.2021 0 95.4033 27.001 34.2002 27.001 33.3008 72.9014 0 56.7021-39.1514 80.1025t-103.953 23.4004h-75.6016v104.403z" glyph-name="threequarters" unicode="&#xbe;"/><glyph d="M724 673q-1-71-5.5-117t-19.5-82-44.5-69.5-78.5-78.5q-31-35-64-72.5t-60.5-78.5-45-86-17.5-96q0-109 58-166.5t167-57.5q43 0 83.5 11.5t72 36 50.5 62 19 89.5h185q-1-84-32.5-151t-86.5-113.5-129.5-71-161.5-24.5q-97 0-173.5 25.5t-129 74.5-80 119-27.5 160q0 72 23.5 136t60 120.5 82 106 90.5 92.5q29 29 45 54t23.5 51.5 9 56.5 1.5 69h185zM509 988q0 48 29 80.5t86 32.5 86-32.5 29-80.5q0-46-29-77.5t-86-31.5-86 31.5-29 77.5z" glyph-name="questiondown" unicode="&#xbf;"/><glyph d="M869 377h-486l-117-377h-185l470 1456h155l462-1456h-184zM433 538h387l-192 632zM710 1561h-150l-248 266h223z" glyph-name="Agrave" unicode="&#xc0;"/><glyph d="M869 377h-486l-117-377h-185l470 1456h155l462-1456h-184zM433 538h387l-192 632zM727 1824h224l-268-266h-140z" glyph-name="Aacute" unicode="&#xc1;"/><glyph d="M869 377h-486l-117-377h-185l470 1456h155l462-1456h-184zM433 538h387l-192 632zM933 1624v-25h-154l-150 151-149-151h-152v26l245 239h112z" glyph-name="Acircumflex" unicode="&#xc2;"/><glyph d="M869 377h-486l-117-377h-185l470 1456h155l462-1456h-184zM433 538h387l-192 632zM973 1844q0-45-15.5-86t-42.5-71.5-65-48.5-83-18q-33 0-59 7t-47.5 17.5-40.5 23-38.5 23-41.5 17.5-49 7q-44 0-72.5-32.5t-29.5-78.5l-104 24q0 45 15.5 86.5t42.5 73 64.5 50.5 83.5 19q42 0 75.5-15t65-32.5 64-32.5 71.5-15q21 0 40 9t32.5 24 22 35.5 8.5 43.5z" glyph-name="Atilde" unicode="&#xc3;"/><glyph d="M869 377h-486l-117-377h-185l470 1456h155l462-1456h-184zM433 538h387l-192 632zM302 1718q0 45 27.5 75.5t81.5 30.5 82-30.5 28-75.5-28-75-82-30-81.5 30-27.5 75zM732 1716q0 45 27.5 76t81.5 31 82-31 28-76q0-44-28-74.5t-82-30.5-81.5 30.5-27.5 74.5z" glyph-name="Adieresis" unicode="&#xc4;"/><glyph d="M869 377h-486l-117-377h-185l470 1456h155l462-1456h-184zM433 538h387l-192 632zM424 1732q0 43 16.5 79.5t44 63 65 41.5 79.5 15 78.5-15 64-41.5 43.5-63 16-79.5-16-79-43.5-61.5-64-39.5-78.5-14-79.5 14-65 39.5-44 61.5-16.5 79zM523 1732q0-22 8.5-41t23-33.5 33.5-22.5 41-8 40.5 8 32.5 22 22 33 8 42q0 48-29.5 78.5t-73.5 30.5-75-30.5-31-78.5z" glyph-name="Aring" unicode="&#xc5;"/><glyph d="M1195 0h-531l-1 353h-310l-123-353h-198l560 1456h580v-152h-337l2-471h302v-151h-302l1-531h357v-151zM414 527h249l-2 706z" glyph-name="AE" unicode="&#xc6;"/><glyph d="M1117 438q-13-101-52-185.5t-101.5-145-148-94-190.5-33.5q-90 0-163.5 25.5t-131 70.5-99 106-69 133-41 151-14.5 160v203q1 81 14.5 160t41 151 69 133.5 99 106.5 130.5 70.5 164 25.5q109 0 195-33.5t148-95 99.5-147.5 49.5-190h-185q-9 66-31 123t-59 100-90.5 67.5-126.5 24.5q-66 0-116.5-21.5t-87-58.5-61-86-39.5-104-21.5-112.5-6.5-111.5v-205q0-54 6.5-111.5t21.5-113 39-104.5 61-86.5 87-59 117-21.5q73 0 126.5 23t90.5 64.5 59 98 31 122.5h185zM684 0l-12-52q29-5 56.5-17t49-32 34.5-50.5 13-73.5q0-97-79-153t-224-57l-7 107q34 0 64 5.5t52.5 17.5 36 30.5 13.5 45.5q0 25-10 42t-30.5 27.5-50.5 16.5-70 9l31 134h133z" glyph-name="Ccedilla" unicode="&#xc7;"/><glyph d="M975 673h-608v-516h709v-157h-894v1456h885v-158h-700v-468h608v-157zM700 1561h-150l-248 266h223z" glyph-name="Egrave" unicode="&#xc8;"/><glyph d="M975 673h-608v-516h709v-157h-894v1456h885v-158h-700v-468h608v-157zM717 1824h224l-268-266h-140z" glyph-name="Eacute" unicode="&#xc9;"/><glyph d="M975 673h-608v-516h709v-157h-894v1456h885v-158h-700v-468h608v-157zM923 1624v-25h-154l-150 151-149-151h-152v26l245 239h112z" glyph-name="Ecircumflex" unicode="&#xca;"/><glyph d="M975 673h-608v-516h709v-157h-894v1456h885v-158h-700v-468h608v-157zM292 1718q0 45 27.5 75.5t81.5 30.5 82-30.5 28-75.5-28-75-82-30-81.5 30-27.5 75zM722 1716q0 45 27.5 76t81.5 31 82-31 28-76q0-44-28-74.5t-82-30.5-81.5 30.5-27.5 74.5z" glyph-name="Edieresis" unicode="&#xcb;"/><glyph d="M174 1456h880v-161h-349v-1135h349v-160h-880v160h341v1135h-341v161zM648 1561h-150l-248 266h223z" glyph-name="Igrave" unicode="&#xcc;"/><glyph d="M174 1456h880v-161h-349v-1135h349v-160h-880v160h341v1135h-341v161zM665 1824h224l-268-266h-140z" glyph-name="Iacute" unicode="&#xcd;"/><glyph d="M174 1456h880v-161h-349v-1135h349v-160h-880v160h341v1135h-341v161zM871 1624v-25h-154l-150 151-149-151h-152v26l245 239h112z" glyph-name="Icircumflex" unicode="&#xce;"/><glyph d="M174 1456h880v-161h-349v-1135h349v-160h-880v160h341v1135h-341v161zM241 1718q0 45 27.5 75.5t81.5 30.5 82-30.5 28-75.5-28-75-82-30-81.5 30-27.5 75zM671 1716q0 45 27.5 76t81.5 31 82-31 28-76q0-44-28-74.5t-82-30.5-81.5 30.5-27.5 74.5z" glyph-name="Idieresis" unicode="&#xcf;"/><glyph d="M185 0v666h-229v151h229v639h337q152-2 271.5-51.5t202-138 126-212 44.5-273.5v-107q-1-150-44.5-273.5t-126-212-202-138-271.5-50.5h-337zM593 666h-220v-515h149q118 1 204 41.5t142.5 110.5 84 165 28.5 206v109q-1 111-29 205.5t-84 164-142 109.5-204 42h-149v-487h220v-151z" glyph-name="Eth" horiz-adv-x="1259" unicode="&#xd0;"/><glyph d="M1086 0h-188l-565 1088-3-1088h-187v1456h188l565-1086 3 1086h187v-1456zM934 1844q0-45-15.5-86t-42.5-71.5-65-48.5-83-18q-33 0-59 7t-47.5 17.5-40.5 23-38.5 23-41.5 17.5-49 7q-44 0-72.5-32.5t-29.5-78.5l-104 24q0 45 15.5 86.5t42.5 73 64.5 50.5 83.5 19q42 0 75.5-15t65-32.5 64-32.5 71.5-15q21 0 40 9t32.5 24 22 35.5 8.5 43.5z" glyph-name="Ntilde" unicode="&#xd1;"/><glyph d="M1121 644q-1-78-13.5-157.5t-38.5-153.5-66.5-138-96.5-112-128.5-75.5-162.5-27.5-162.5 27.5-128.5 75.5-97 112.5-67.5 138.5-39.5 153-14 157v166q1 78 13.5 157.5t39 153.5 67 138.5 96.5 113 128.5 76 162.5 27.5 163-27.5 129-75.5 96.5-112.5 67-138.5 39-154 13.5-158v-166zM938 812q-1 52-7 108.5t-20.5 112-38.5 106-60 89-85 61-114 22.5q-64 0-113-23t-85-61.5-60-89-38.5-106-21-112-7.5-107.5v-168q1-51 7.5-108t21.5-112.5 39-106.5 60-89.5 85-61.5 114-23 114.5 23 85 61.5 59 89 38 106 20 112.5 6.5 109v168zM714 1582h-150l-248 266h223z" glyph-name="Ograve" unicode="&#xd2;"/><glyph d="M1121 644q-1-78-13.5-157.5t-38.5-153.5-66.5-138-96.5-112-128.5-75.5-162.5-27.5-162.5 27.5-128.5 75.5-97 112.5-67.5 138.5-39.5 153-14 157v166q1 78 13.5 157.5t39 153.5 67 138.5 96.5 113 128.5 76 162.5 27.5 163-27.5 129-75.5 96.5-112.5 67-138.5 39-154 13.5-158v-166zM938 812q-1 52-7 108.5t-20.5 112-38.5 106-60 89-85 61-114 22.5q-64 0-113-23t-85-61.5-60-89-38.5-106-21-112-7.5-107.5v-168q1-51 7.5-108t21.5-112.5 39-106.5 60-89.5 85-61.5 114-23 114.5 23 85 61.5 59 89 38 106 20 112.5 6.5 109v168zM731 1845h224l-268-266h-140z" glyph-name="Oacute" unicode="&#xd3;"/><glyph d="M1121 644q-1-78-13.5-157.5t-38.5-153.5-66.5-138-96.5-112-128.5-75.5-162.5-27.5-162.5 27.5-128.5 75.5-97 112.5-67.5 138.5-39.5 153-14 157v166q1 78 13.5 157.5t39 153.5 67 138.5 96.5 113 128.5 76 162.5 27.5 163-27.5 129-75.5 96.5-112.5 67-138.5 39-154 13.5-158v-166zM938 812q-1 52-7 108.5t-20.5 112-38.5 106-60 89-85 61-114 22.5q-64 0-113-23t-85-61.5-60-89-38.5-106-21-112-7.5-107.5v-168q1-51 7.5-108t21.5-112.5 39-106.5 60-89.5 85-61.5 114-23 114.5 23 85 61.5 59 89 38 106 20 112.5 6.5 109v168zM937 1645v-25h-154l-150 151-149-151h-152v26l245 239h112z" glyph-name="Ocircumflex" unicode="&#xd4;"/><glyph d="M1121 644q-1-78-13.5-157.5t-38.5-153.5-66.5-138-96.5-112-128.5-75.5-162.5-27.5-162.5 27.5-128.5 75.5-97 112.5-67.5 138.5-39.5 153-14 157v166q1 78 13.5 157.5t39 153.5 67 138.5 96.5 113 128.5 76 162.5 27.5 163-27.5 129-75.5 96.5-112.5 67-138.5 39-154 13.5-158v-166zM938 812q-1 52-7 108.5t-20.5 112-38.5 106-60 89-85 61-114 22.5q-64 0-113-23t-85-61.5-60-89-38.5-106-21-112-7.5-107.5v-168q1-51 7.5-108t21.5-112.5 39-106.5 60-89.5 85-61.5 114-23 114.5 23 85 61.5 59 89 38 106 20 112.5 6.5 109v168zM977 1865q0-45-15.5-86t-42.5-71.5-65-48.5-83-18q-33 0-59 7t-47.5 17.5-40.5 23-38.5 23-41.5 17.5-49 7q-44 0-72.5-32.5t-29.5-78.5l-104 24q0 45 15.5 86.5t42.5 73 64.5 50.5 83.5 19q42 0 75.5-15t65-32.5 64-32.5 71.5-15q21 0 40 9t32.5 24 22 35.5 8.5 43.5z" glyph-name="Otilde" unicode="&#xd5;"/><glyph d="M1121 644q-1-78-13.5-157.5t-38.5-153.5-66.5-138-96.5-112-128.5-75.5-162.5-27.5-162.5 27.5-128.5 75.5-97 112.5-67.5 138.5-39.5 153-14 157v166q1 78 13.5 157.5t39 153.5 67 138.5 96.5 113 128.5 76 162.5 27.5 163-27.5 129-75.5 96.5-112.5 67-138.5 39-154 13.5-158v-166zM938 812q-1 52-7 108.5t-20.5 112-38.5 106-60 89-85 61-114 22.5q-64 0-113-23t-85-61.5-60-89-38.5-106-21-112-7.5-107.5v-168q1-51 7.5-108t21.5-112.5 39-106.5 60-89.5 85-61.5 114-23 114.5 23 85 61.5 59 89 38 106 20 112.5 6.5 109v168zM306 1739q0 45 27.5 75.5t81.5 30.5 82-30.5 28-75.5-28-75-82-30-81.5 30-27.5 75zM736 1737q0 45 27.5 76t81.5 31 82-31 28-76q0-44-28-74.5t-82-30.5-81.5 30.5-27.5 74.5z" glyph-name="Odieresis" unicode="&#xd6;"/><glyph d="M181 329l330 337-327 334 119 123 328-335 329 335 119-123-328-334 331-337-119-123-332 337-331-337z" glyph-name="multiply" unicode="&#xd7;"/><glyph d="M1113 644q-1-78-13.5-157.5t-38.5-153.5-66.5-138-96.5-112-128.5-75.5-162.5-27.5q-91 0-162 27.5t-128 75.5l-104-176h-142l160 270q-34 49-59 105t-41.5 116-24.5 122.5-8 123.5v166q1 78 13.5 157.5t39 153.5 67 138.5 96.5 113 128.5 76 162.5 27.5q102 0 180.5-34.5t137.5-93.5l99 168h142l-161-272q28-47 48.5-99.5t34-108 20-113 7.5-113.5v-166zM280 644q1-69 12.5-146.5t40.5-147.5l498 843q-37 53-92.5 85.5t-133.5 32.5q-64 0-113-23t-85-61.5-60-89-38.5-106-21-112-7.5-107.5v-168zM930 812q-1 58-8.5 122.5t-26.5 126.5l-491-830q37-41 87-64.5t116-23.5q65 0 114.5 23t85 61.5 59 89 38 106 20 112.5 6.5 109v168z" glyph-name="Oslash" unicode="&#xd8;"/><glyph d="M1088 1456l2-986q-2-102-37-191t-98-155.5-150-105-191-38.5q-106 0-193 38t-149 104.5-97 156-36 191.5l2 986h176l4-986q1-65 20.5-125t56-106 91-74 125.5-28 125 27.5 90.5 74 55.5 106.5 21 125l3 986h179zM740 1549h-150l-248 266h223z" glyph-name="Ugrave" unicode="&#xd9;"/><glyph d="M1088 1456l2-986q-2-102-37-191t-98-155.5-150-105-191-38.5q-106 0-193 38t-149 104.5-97 156-36 191.5l2 986h176l4-986q1-65 20.5-125t56-106 91-74 125.5-28 125 27.5 90.5 74 55.5 106.5 21 125l3 986h179zM757 1812h224l-268-266h-140z" glyph-name="Uacute" unicode="&#xda;"/><glyph d="M1088 1456l2-986q-2-102-37-191t-98-155.5-150-105-191-38.5q-106 0-193 38t-149 104.5-97 156-36 191.5l2 986h176l4-986q1-65 20.5-125t56-106 91-74 125.5-28 125 27.5 90.5 74 55.5 106.5 21 125l3 986h179zM963 1612v-25h-154l-150 151-149-151h-152v26l245 239h112z" glyph-name="Ucircumflex" unicode="&#xdb;"/><glyph d="M1088 1456l2-986q-2-102-37-191t-98-155.5-150-105-191-38.5q-106 0-193 38t-149 104.5-97 156-36 191.5l2 986h176l4-986q1-65 20.5-125t56-106 91-74 125.5-28 125 27.5 90.5 74 55.5 106.5 21 125l3 986h179zM332 1706q0 45 27.5 75.5t81.5 30.5 82-30.5 28-75.5-28-75-82-30-81.5 30-27.5 75zM762 1704q0 45 27.5 76t81.5 31 82-31 28-76q0-44-28-74.5t-82-30.5-81.5 30.5-27.5 74.5z" glyph-name="Udieresis" unicode="&#xdc;"/><glyph d="M603 725l332 731h210l-453-913-3-543h-172l-3 543-453 913h211zM707 1823h224l-268-266h-140z" glyph-name="Yacute" unicode="&#xdd;"/><glyph d="M353 1456v-293h277q117 0 207.5-31.5t153-88 95-134.5 32.5-171-32.5-171-95-134.5-153-88-207.5-31.5h-277v-313h-185v1456h185zM353 1011v-546h277q78 0 135 22.5t94.5 60 55.5 86.5 18 102q0 54-18 103.5t-55 88-94.5 61-135.5 22.5h-277z" glyph-name="Thorn" unicode="&#xde;"/><glyph d="M353 0h-184v1087q0 112 29.5 200t82 148 124.5 91.5 157 31.5q75 0 140-20.5t114-62.5 77-105.5 28-149.5q0-79-20-132.5t-44-95.5-43.5-80.5-19.5-88.5q0-46 22.5-83t56.5-72 74-70 74-76 56.5-91 22.5-115q0-85-25.5-148t-71.5-105-109.5-63-139.5-21q-41 0-85 5.5t-84.5 15-74.5 22.5-54 29l42 155q18-11 44.5-24.5t58-25 66-19 68.5-7.5q47 0 81 13.5t56 37.5 32.5 56 10.5 70q0 47-22.5 85.5t-56.5 73-74 70-74 77-57 93-23 119.5q0 39 10 72t25.5 62.5 33.5 57 33.5 57 25.5 61 10 69.5q0 50-15 87.5t-39.5 63-56 38.5-63.5 13q-99 0-158.5-82t-60.5-237v-1087z" glyph-name="germandbls" unicode="&#xdf;"/><glyph d="M885 0q-11 21-17.5 52.5t-9.5 65.5q-28-28-62.5-53t-76-44-88.5-30-100-11q-86 0-155.5 25t-118 67.5-75 101-26.5 126.5q0 89 35.5 156t100.5 111.5 156.5 66.5 204.5 22h202v85q0 49-18 88t-51 66.5-80.5 42.5-106.5 15q-55 0-98.5-14t-73.5-37-46.5-54.5-16.5-65.5h-186q1 59 30.5 116t85 102.5 135 73.5 180.5 28q92 0 171-22.5t136.5-68 90.5-113.5 33-159v-503q0-54 10-114.5t28-105.5v-16h-193zM558 141q54 0 101 14t85.5 37 66.5 52.5 44 61.5v219h-172q-162 0-252-48t-90-151q0-40 13.5-74t40.5-58.5 68-38.5 95-14zM706 1239h-150l-248 266h223z" glyph-name="agrave" unicode="&#xe0;"/><glyph d="M885 0q-11 21-17.5 52.5t-9.5 65.5q-28-28-62.5-53t-76-44-88.5-30-100-11q-86 0-155.5 25t-118 67.5-75 101-26.5 126.5q0 89 35.5 156t100.5 111.5 156.5 66.5 204.5 22h202v85q0 49-18 88t-51 66.5-80.5 42.5-106.5 15q-55 0-98.5-14t-73.5-37-46.5-54.5-16.5-65.5h-186q1 59 30.5 116t85 102.5 135 73.5 180.5 28q92 0 171-22.5t136.5-68 90.5-113.5 33-159v-503q0-54 10-114.5t28-105.5v-16h-193zM558 141q54 0 101 14t85.5 37 66.5 52.5 44 61.5v219h-172q-162 0-252-48t-90-151q0-40 13.5-74t40.5-58.5 68-38.5 95-14zM723 1502h224l-268-266h-140z" glyph-name="aacute" unicode="&#xe1;"/><glyph d="M885 0q-11 21-17.5 52.5t-9.5 65.5q-28-28-62.5-53t-76-44-88.5-30-100-11q-86 0-155.5 25t-118 67.5-75 101-26.5 126.5q0 89 35.5 156t100.5 111.5 156.5 66.5 204.5 22h202v85q0 49-18 88t-51 66.5-80.5 42.5-106.5 15q-55 0-98.5-14t-73.5-37-46.5-54.5-16.5-65.5h-186q1 59 30.5 116t85 102.5 135 73.5 180.5 28q92 0 171-22.5t136.5-68 90.5-113.5 33-159v-503q0-54 10-114.5t28-105.5v-16h-193zM558 141q54 0 101 14t85.5 37 66.5 52.5 44 61.5v219h-172q-162 0-252-48t-90-151q0-40 13.5-74t40.5-58.5 68-38.5 95-14zM929 1302v-25h-154l-150 151-149-151h-152v26l245 239h112z" glyph-name="acircumflex" unicode="&#xe2;"/><glyph d="M885 0q-11 21-17.5 52.5t-9.5 65.5q-28-28-62.5-53t-76-44-88.5-30-100-11q-86 0-155.5 25t-118 67.5-75 101-26.5 126.5q0 89 35.5 156t100.5 111.5 156.5 66.5 204.5 22h202v85q0 49-18 88t-51 66.5-80.5 42.5-106.5 15q-55 0-98.5-14t-73.5-37-46.5-54.5-16.5-65.5h-186q1 59 30.5 116t85 102.5 135 73.5 180.5 28q92 0 171-22.5t136.5-68 90.5-113.5 33-159v-503q0-54 10-114.5t28-105.5v-16h-193zM558 141q54 0 101 14t85.5 37 66.5 52.5 44 61.5v219h-172q-162 0-252-48t-90-151q0-40 13.5-74t40.5-58.5 68-38.5 95-14zM969 1522q0-45-15.5-86t-42.5-71.5-65-48.5-83-18q-33 0-59 7t-47.5 17.5-40.5 23-38.5 23-41.5 17.5-49 7q-44 0-72.5-32.5t-29.5-78.5l-104 24q0 45 15.5 86.5t42.5 73 64.5 50.5 83.5 19q42 0 75.5-15t65-32.5 64-32.5 71.5-15q21 0 40 9t32.5 24 22 35.5 8.5 43.5z" glyph-name="atilde" unicode="&#xe3;"/><glyph d="M885 0q-11 21-17.5 52.5t-9.5 65.5q-28-28-62.5-53t-76-44-88.5-30-100-11q-86 0-155.5 25t-118 67.5-75 101-26.5 126.5q0 89 35.5 156t100.5 111.5 156.5 66.5 204.5 22h202v85q0 49-18 88t-51 66.5-80.5 42.5-106.5 15q-55 0-98.5-14t-73.5-37-46.5-54.5-16.5-65.5h-186q1 59 30.5 116t85 102.5 135 73.5 180.5 28q92 0 171-22.5t136.5-68 90.5-113.5 33-159v-503q0-54 10-114.5t28-105.5v-16h-193zM558 141q54 0 101 14t85.5 37 66.5 52.5 44 61.5v219h-172q-162 0-252-48t-90-151q0-40 13.5-74t40.5-58.5 68-38.5 95-14zM298 1396q0 45 27.5 75.5t81.5 30.5 82-30.5 28-75.5-28-75-82-30-81.5 30-27.5 75zM728 1394q0 45 27.5 76t81.5 31 82-31 28-76q0-44-28-74.5t-82-30.5-81.5 30.5-27.5 74.5z" glyph-name="adieresis" unicode="&#xe4;"/><glyph d="M885 0q-11 21-17.5 52.5t-9.5 65.5q-28-28-62.5-53t-76-44-88.5-30-100-11q-86 0-155.5 25t-118 67.5-75 101-26.5 126.5q0 89 35.5 156t100.5 111.5 156.5 66.5 204.5 22h202v85q0 49-18 88t-51 66.5-80.5 42.5-106.5 15q-55 0-98.5-14t-73.5-37-46.5-54.5-16.5-65.5h-186q1 59 30.5 116t85 102.5 135 73.5 180.5 28q92 0 171-22.5t136.5-68 90.5-113.5 33-159v-503q0-54 10-114.5t28-105.5v-16h-193zM558 141q54 0 101 14t85.5 37 66.5 52.5 44 61.5v219h-172q-162 0-252-48t-90-151q0-40 13.5-74t40.5-58.5 68-38.5 95-14zM420 1410q0 43 16.5 79.5t44 63 65 41.5 79.5 15 78.5-15 64-41.5 43.5-63 16-79.5-16-79-43.5-61.5-64-39.5-78.5-14-79.5 14-65 39.5-44 61.5-16.5 79zM519 1410q0-22 8.5-41t23-33.5 33.5-22.5 41-8 40.5 8 32.5 22 22 33 8 42q0 48-29.5 78.5t-73.5 30.5-75-30.5-31-78.5z" glyph-name="aring" unicode="&#xe5;"/><glyph d="M896-20q-103 0-177 37.5t-120 108.5q-19-29-44.5-55.5t-58.5-46.5-73-32-88-12q-71 0-125 22t-91 61.5-56.5 96-19.5 125.5q0 166 104 258t301 92h63v148q0 76-31 121.5t-99 45.5q-63 0-102-41.5t-39-116.5l-179 8q0 69 22.5 124.5t64 95 100.5 61 131 21.5q83 0 145.5-27t101.5-80q43 51 102.5 79t133.5 28q81 0 142.5-26.5t103.5-75 63.5-117 21.5-152.5v-234h-505v-86q0-66 13.5-118t43-88 75.5-55.5 112-19.5q38 0 67.5 7t53 17.5 42.5 22.5 35 23l46-136q-13-10-36-24.5t-57.5-27.5-81-22.5-105.5-9.5zM862 950q-45 0-77.5-19.5t-53.5-52.5-31.5-77-11.5-92v-69h329v128q0 35-10 67.5t-30 58-49 41-66 15.5zM371 130q37 0 75 21.5t66 50.5l-1 293h-61q-53 0-95-17.5t-71-47-44.5-68-15.5-81.5q0-31 9.5-58.5t28-48 46-32.5 63.5-12z" glyph-name="ae" unicode="&#xe6;"/><glyph d="M635 130q50 0 97.5 16t84.5 44.5 59.5 67 23.5 83.5h175q-1-72-37.5-137.5t-97.5-115-140-79-165-29.5q-123 0-215 44t-153.5 118.5-92.5 172-31 205.5v42q0 107 31 205t92.5 172.5 153.5 118.5 215 44q96 0 176.5-30.5t139-83 91.5-124.5 33-154h-175q-1 49-21.5 92.5t-55.5 76.5-83.5 52-104.5 19q-86 0-144.5-34.5t-94.5-90-51.5-124.5-15.5-139v-42q0-71 15.5-140.5t51-125 94-90 145.5-34.5zM705 0l-12-52q29-5 56.5-17t49-32 34.5-50.5 13-73.5q0-97-79-153t-224-57l-7 107q34 0 64 5.5t52.5 17.5 36 30.5 13.5 45.5q0 25-10 42t-30.5 27.5-50.5 16.5-70 9l31 134h133z" glyph-name="ccedilla" unicode="&#xe7;"/><glyph d="M652-20q-114 0-209.5 39t-163.5 109-106 166-38 209v42q0 131 42 234.5t111.5 175 158 109.5 181.5 38q117 0 204.5-40.5t145.5-112 86.5-168.5 28.5-210v-83h-773q3-74 28.5-139t70-113.5 106.5-76.5 137-28q99 0 176 40t128 106l113-88q-27-41-67.5-78.5t-93.5-66.5-120-46.5-146-17.5zM628 950q-56 0-106-20.5t-90-60-67.5-97-38.5-132.5h582v14q-3 54-20.5 107t-51.5 95-85.5 68-122.5 26zM701 1240h-150l-248 266h223z" glyph-name="egrave" unicode="&#xe8;"/><glyph d="M652-20q-114 0-209.5 39t-163.5 109-106 166-38 209v42q0 131 42 234.5t111.5 175 158 109.5 181.5 38q117 0 204.5-40.5t145.5-112 86.5-168.5 28.5-210v-83h-773q3-74 28.5-139t70-113.5 106.5-76.5 137-28q99 0 176 40t128 106l113-88q-27-41-67.5-78.5t-93.5-66.5-120-46.5-146-17.5zM628 950q-56 0-106-20.5t-90-60-67.5-97-38.5-132.5h582v14q-3 54-20.5 107t-51.5 95-85.5 68-122.5 26zM718 1503h224l-268-266h-140z" glyph-name="eacute" unicode="&#xe9;"/><glyph d="M652-20q-114 0-209.5 39t-163.5 109-106 166-38 209v42q0 131 42 234.5t111.5 175 158 109.5 181.5 38q117 0 204.5-40.5t145.5-112 86.5-168.5 28.5-210v-83h-773q3-74 28.5-139t70-113.5 106.5-76.5 137-28q99 0 176 40t128 106l113-88q-27-41-67.5-78.5t-93.5-66.5-120-46.5-146-17.5zM628 950q-56 0-106-20.5t-90-60-67.5-97-38.5-132.5h582v14q-3 54-20.5 107t-51.5 95-85.5 68-122.5 26zM924 1303v-25h-154l-150 151-149-151h-152v26l245 239h112z" glyph-name="ecircumflex" unicode="&#xea;"/><glyph d="M652-20q-114 0-209.5 39t-163.5 109-106 166-38 209v42q0 131 42 234.5t111.5 175 158 109.5 181.5 38q117 0 204.5-40.5t145.5-112 86.5-168.5 28.5-210v-83h-773q3-74 28.5-139t70-113.5 106.5-76.5 137-28q99 0 176 40t128 106l113-88q-27-41-67.5-78.5t-93.5-66.5-120-46.5-146-17.5zM628 950q-56 0-106-20.5t-90-60-67.5-97-38.5-132.5h582v14q-3 54-20.5 107t-51.5 95-85.5 68-122.5 26zM293 1397q0 45 27.5 75.5t81.5 30.5 82-30.5 28-75.5-28-75-82-30-81.5 30-27.5 75zM723 1395q0 45 27.5 76t81.5 31 82-31 28-76q0-44-28-74.5t-82-30.5-81.5 30.5-27.5 74.5z" glyph-name="edieresis" unicode="&#xeb;"/><glyph d="M203 1082h553v-922h353v-160h-906v160h368v761h-368v161zM747 1218h-150l-248 266h223z" glyph-name="igrave" unicode="&#xec;"/><glyph d="M203 1082h553v-922h353v-160h-906v160h368v761h-368v161zM764 1481h224l-268-266h-140z" glyph-name="iacute" unicode="&#xed;"/><glyph d="M203 1082h553v-922h353v-160h-906v160h368v761h-368v161zM970 1281v-25h-154l-150 151-149-151h-152v26l245 239h112z" glyph-name="icircumflex" unicode="&#xee;"/><glyph d="M203 1082h553v-922h353v-160h-906v160h368v761h-368v161zM339 1375q0 45 27.5 75.5t81.5 30.5 82-30.5 28-75.5-28-75-82-30-81.5 30-27.5 75zM769 1373q0 45 27.5 76t81.5 31 82-31 28-76q0-44-28-74.5t-82-30.5-81.5 30.5-27.5 74.5z" glyph-name="idieresis" unicode="&#xef;"/><glyph d="M845 1286q104-118 162.5-282.5t58.5-370.5v-62q0-138-37.5-247.5t-104.5-186-158.5-117-200.5-40.5q-108 0-198.5 37.5t-156 103.5-101.5 155-36 191q0 115 36.5 209t102 161 155 103.5 194.5 36.5q88 0 164.5-34t133.5-90q-23 110-68 194t-107 147l-266-152-73 99 239 137q-41 27-84.5 47.5t-89.5 36.5l57 159q80-22 151.5-58.5t134.5-87.5l230 132 73-100zM881 635q0 13-.5 25t-.5 25q-17 27-45.5 52.5t-68.5 45-91.5 31-113.5 11.5q-69 0-125-28.5t-95.5-77.5-60.5-114-21-138q0-62 21-122.5t60.5-108 97-77 131.5-29.5q72 0 129.5 32t98 89.5 62.5 139 22 180.5v64z" glyph-name="eth" unicode="&#xf0;"/><glyph d="M340 1082l13-160q59 84 145 131.5t192 48.5q85 0 154.5-24t118.5-75 75.5-129.5 26.5-186.5v-687h-185v683q0 72-16 122t-47.5 81-77 45-104.5 14q-93 0-163.5-46.5t-112.5-122.5v-776h-185v1082h166zM949 1522q0-45-15.5-86t-42.5-71.5-65-48.5-83-18q-33 0-59 7t-47.5 17.5-40.5 23-38.5 23-41.5 17.5-49 7q-44 0-72.5-32.5t-29.5-78.5l-104 24q0 45 15.5 86.5t42.5 73 64.5 50.5 83.5 19q42 0 75.5-15t65-32.5 64-32.5 71.5-15q21 0 40 9t32.5 24 22 35.5 8.5 43.5z" glyph-name="ntilde" unicode="&#xf1;"/><glyph d="M122 551q0 117 34 217.5t97.5 174.5 154.5 116.5 205 42.5q115 0 206.5-42.5t155-116.5 97.5-174.5 34-217.5v-22q0-117-34-217t-97.5-174-154.5-116-205-42q-115 0-206.5 42t-155 116-97.5 174-34 217v22zM307 529q0-80 19-152.5t57.5-127.5 96.5-87 135-32q76 0 133.5 32t96 87 57.5 127.5 19 152.5v22q0 79-19.5 151.5t-58 127.5-96 87.5-134.5 32.5-134-32.5-95.5-87.5-57.5-127.5-19-151.5v-22zM695 1239h-150l-248 266h223z" glyph-name="ograve" unicode="&#xf2;"/><glyph d="M122 551q0 117 34 217.5t97.5 174.5 154.5 116.5 205 42.5q115 0 206.5-42.5t155-116.5 97.5-174.5 34-217.5v-22q0-117-34-217t-97.5-174-154.5-116-205-42q-115 0-206.5 42t-155 116-97.5 174-34 217v22zM307 529q0-80 19-152.5t57.5-127.5 96.5-87 135-32q76 0 133.5 32t96 87 57.5 127.5 19 152.5v22q0 79-19.5 151.5t-58 127.5-96 87.5-134.5 32.5-134-32.5-95.5-87.5-57.5-127.5-19-151.5v-22zM712 1502h224l-268-266h-140z" glyph-name="oacute" unicode="&#xf3;"/><glyph d="M122 551q0 117 34 217.5t97.5 174.5 154.5 116.5 205 42.5q115 0 206.5-42.5t155-116.5 97.5-174.5 34-217.5v-22q0-117-34-217t-97.5-174-154.5-116-205-42q-115 0-206.5 42t-155 116-97.5 174-34 217v22zM307 529q0-80 19-152.5t57.5-127.5 96.5-87 135-32q76 0 133.5 32t96 87 57.5 127.5 19 152.5v22q0 79-19.5 151.5t-58 127.5-96 87.5-134.5 32.5-134-32.5-95.5-87.5-57.5-127.5-19-151.5v-22zM918 1302v-25h-154l-150 151-149-151h-152v26l245 239h112z" glyph-name="ocircumflex" unicode="&#xf4;"/><glyph d="M122 551q0 117 34 217.5t97.5 174.5 154.5 116.5 205 42.5q115 0 206.5-42.5t155-116.5 97.5-174.5 34-217.5v-22q0-117-34-217t-97.5-174-154.5-116-205-42q-115 0-206.5 42t-155 116-97.5 174-34 217v22zM307 529q0-80 19-152.5t57.5-127.5 96.5-87 135-32q76 0 133.5 32t96 87 57.5 127.5 19 152.5v22q0 79-19.5 151.5t-58 127.5-96 87.5-134.5 32.5-134-32.5-95.5-87.5-57.5-127.5-19-151.5v-22zM958 1522q0-45-15.5-86t-42.5-71.5-65-48.5-83-18q-33 0-59 7t-47.5 17.5-40.5 23-38.5 23-41.5 17.5-49 7q-44 0-72.5-32.5t-29.5-78.5l-104 24q0 45 15.5 86.5t42.5 73 64.5 50.5 83.5 19q42 0 75.5-15t65-32.5 64-32.5 71.5-15q21 0 40 9t32.5 24 22 35.5 8.5 43.5z" glyph-name="otilde" unicode="&#xf5;"/><glyph d="M122 551q0 117 34 217.5t97.5 174.5 154.5 116.5 205 42.5q115 0 206.5-42.5t155-116.5 97.5-174.5 34-217.5v-22q0-117-34-217t-97.5-174-154.5-116-205-42q-115 0-206.5 42t-155 116-97.5 174-34 217v22zM307 529q0-80 19-152.5t57.5-127.5 96.5-87 135-32q76 0 133.5 32t96 87 57.5 127.5 19 152.5v22q0 79-19.5 151.5t-58 127.5-96 87.5-134.5 32.5-134-32.5-95.5-87.5-57.5-127.5-19-151.5v-22zM287 1396q0 45 27.5 75.5t81.5 30.5 82-30.5 28-75.5-28-75-82-30-81.5 30-27.5 75zM717 1394q0 45 27.5 76t81.5 31 82-31 28-76q0-44-28-74.5t-82-30.5-81.5 30.5-27.5 74.5z" glyph-name="odieresis" unicode="&#xf6;"/><glyph d="M1113 600h-998v184h998v-184zM507 1097q0 45 27.5 76t81.5 31 82-31 28-76-28-75-82-30-81.5 30-27.5 75zM505 282q0 45 27.5 76t81.5 31 82-31 28-76q0-44-28-74.5t-82-30.5-81.5 30.5-27.5 74.5z" glyph-name="divide" unicode="&#xf7;"/><glyph d="M122 551q0 117 34 217.5t97.5 174.5 154.5 116.5 205 42.5q57 0 107.5-10.5t95.5-30.5l73 148h123l-101-205q94-75 144.5-192t50.5-261v-22q0-117-34-217t-97.5-174-154.5-116-205-42q-54 0-101.5 9.5t-90.5 26.5l-74-151h-123l101 205q-99 73-152 192t-53 267v22zM307 529q0-91 24-169.5t72-135.5l342 694q-29 15-61.5 23.5t-70.5 8.5q-77 0-134-32.5t-95.5-87.5-57.5-127.5-19-151.5v-22zM921 551q0 85-22 161t-67 133l-340-689q55-26 123-26 76 0 133.5 32t96 87 57.5 127.5 19 152.5v22z" glyph-name="oslash" unicode="&#xf8;"/><glyph d="M876 149q-54-80-135-124.5t-187-44.5q-85 0-154 26.5t-118 82.5-75.5 142.5-26.5 207.5v643h185v-645q0-88 14-146t42-92.5 68.5-48.5 93.5-14q113 0 182.5 46t103.5 124v776h186v-1082h-168zM694 1219h-150l-248 266h223z" glyph-name="ugrave" unicode="&#xf9;"/><glyph d="M876 149q-54-80-135-124.5t-187-44.5q-85 0-154 26.5t-118 82.5-75.5 142.5-26.5 207.5v643h185v-645q0-88 14-146t42-92.5 68.5-48.5 93.5-14q113 0 182.5 46t103.5 124v776h186v-1082h-168zM711 1482h224l-268-266h-140z" glyph-name="uacute" unicode="&#xfa;"/><glyph d="M876 149q-54-80-135-124.5t-187-44.5q-85 0-154 26.5t-118 82.5-75.5 142.5-26.5 207.5v643h185v-645q0-88 14-146t42-92.5 68.5-48.5 93.5-14q113 0 182.5 46t103.5 124v776h186v-1082h-168zM917 1282v-25h-154l-150 151-149-151h-152v26l245 239h112z" glyph-name="ucircumflex" unicode="&#xfb;"/><glyph d="M876 149q-54-80-135-124.5t-187-44.5q-85 0-154 26.5t-118 82.5-75.5 142.5-26.5 207.5v643h185v-645q0-88 14-146t42-92.5 68.5-48.5 93.5-14q113 0 182.5 46t103.5 124v776h186v-1082h-168zM287 1376q0 45 27.5 75.5t81.5 30.5 82-30.5 28-75.5-28-75-82-30-81.5 30-27.5 75zM717 1374q0 45 27.5 76t81.5 31 82-31 28-76q0-44-28-74.5t-82-30.5-81.5 30.5-27.5 74.5z" glyph-name="udieresis" unicode="&#xfc;"/><glyph d="M572 384l48-131 330 829h207l-549-1249q-19-42-48.5-89t-71.5-87-98-67-129-27q-13 0-29 1.5t-32 4-30 5.5-23 5l30 151q7 0 19-1t25-2 25-1.5 19-.5q38 0 69.5 21t56 50 42 60 27.5 51l74 144-466 1031h207zM731 1482h224l-268-266h-140z" glyph-name="yacute" unicode="&#xfd;"/><glyph d="M1087 529q0-116-27-216.5t-80.5-174.5-131.5-116-180-42q-100 0-177 32.5t-133 94.5v-523h-185v1974h185v-588q55 64 131 98t176 34q104 0 183-41t132-114 80-174.5 27-222.5v-21zM902 550q0 79-17 150.5t-52.5 126-90.5 86.5-132 32q-91 0-153-41.5t-99-107.5v-518q38-65 99-106t155-41q76 0 131 32.5t90 87.5 52 127 17 151v21z" glyph-name="thorn" unicode="&#xfe;"/><glyph d="M572 384l48-131 330 829h207l-549-1249q-19-42-48.5-89t-71.5-87-98-67-129-27q-13 0-29 1.5t-32 4-30 5.5-23 5l30 151q7 0 19-1t25-2 25-1.5 19-.5q38 0 69.5 21t56 50 42 60 27.5 51l74 144-466 1031h207zM306 1376q0 45 27.5 75.5t81.5 30.5 82-30.5 28-75.5-28-75-82-30-81.5 30-27.5 75zM736 1374q0 45 27.5 76t81.5 31 82-31 28-76q0-44-28-74.5t-82-30.5-81.5 30.5-27.5 74.5z" glyph-name="ydieresis" unicode="&#xff;"/><glyph d="M869 377h-486l-117-377h-185l470 1456h155l462-1456h-184zM433 538h387l-192 632zM990 1643h-714v143h714v-143z" glyph-name="Amacron" unicode="&#x100;"/><glyph d="M885 0q-11 21-17.5 52.5t-9.5 65.5q-28-28-62.5-53t-76-44-88.5-30-100-11q-86 0-155.5 25t-118 67.5-75 101-26.5 126.5q0 89 35.5 156t100.5 111.5 156.5 66.5 204.5 22h202v85q0 49-18 88t-51 66.5-80.5 42.5-106.5 15q-55 0-98.5-14t-73.5-37-46.5-54.5-16.5-65.5h-186q1 59 30.5 116t85 102.5 135 73.5 180.5 28q92 0 171-22.5t136.5-68 90.5-113.5 33-159v-503q0-54 10-114.5t28-105.5v-16h-193zM558 141q54 0 101 14t85.5 37 66.5 52.5 44 61.5v219h-172q-162 0-252-48t-90-151q0-40 13.5-74t40.5-58.5 68-38.5 95-14zM986 1321h-714v143h714v-143z" glyph-name="amacron" unicode="&#x101;"/><glyph d="M869 377h-486l-117-377h-185l470 1456h155l462-1456h-184zM433 538h387l-192 632zM928 1866q0-59-21-108.5t-60-84.5-94-54.5-123-19.5q-69 0-124 19.5t-94 54.5-60.5 84.5-21.5 108.5h150q0-30 9-57.5t27-47.5 46-32 68-12q39 0 66.5 12t45.5 32 27 47.5 9 57.5h150z" glyph-name="Abreve" unicode="&#x102;"/><glyph d="M885 0q-11 21-17.5 52.5t-9.5 65.5q-28-28-62.5-53t-76-44-88.5-30-100-11q-86 0-155.5 25t-118 67.5-75 101-26.5 126.5q0 89 35.5 156t100.5 111.5 156.5 66.5 204.5 22h202v85q0 49-18 88t-51 66.5-80.5 42.5-106.5 15q-55 0-98.5-14t-73.5-37-46.5-54.5-16.5-65.5h-186q1 59 30.5 116t85 102.5 135 73.5 180.5 28q92 0 171-22.5t136.5-68 90.5-113.5 33-159v-503q0-54 10-114.5t28-105.5v-16h-193zM558 141q54 0 101 14t85.5 37 66.5 52.5 44 61.5v219h-172q-162 0-252-48t-90-151q0-40 13.5-74t40.5-58.5 68-38.5 95-14zM924 1544q0-59-21-108.5t-60-84.5-94-54.5-123-19.5q-69 0-124 19.5t-94 54.5-60.5 84.5-21.5 108.5h150q0-30 9-57.5t27-47.5 46-32 68-12q39 0 66.5 12t45.5 32 27 47.5 9 57.5h150z" glyph-name="abreve" unicode="&#x103;"/><glyph d="M551 1456h155l462-1456h-48q-78-42-125-97.5t-47-121.5q0-34 18-54.5t60-20.5q32-1 58.5 8.5t42.5 17.5l31-121q-28-16-70.5-30t-107.5-14q-41 0-76 12t-61 36-41 59.5-15 82.5q0 36 13 72t37.5 70.5 59.5 66.5 79 59l-107 352h-486l-117-377h-185zM433 538h387l-192 632z" glyph-name="Aogonek" unicode="&#x104;"/><glyph d="M879 14q-8 21-13 48t-8 56q-28-28-62.5-53t-76-44-88.5-30-100-11q-86 0-155.5 25t-118 67.5-75 101-26.5 126.5q0 89 35.5 156t100.5 111.5 156.5 66.5 204.5 22h202v85q0 49-18 88t-51 66.5-80.5 42.5-106.5 15q-55 0-98.5-14t-73.5-37-46.5-54.5-16.5-65.5h-186q1 59 30.5 116t85 102.5 135 73.5 180.5 28q92 0 171-22.5t136.5-68 90.5-113.5 33-159v-503q0-54 10-114.5t28-105.5v-16h-38q-78-42-125-97.5t-47-121.5q0-34 18-54.5t60-20.5q32-1 58.5 8.5t42.5 17.5l31-121q-28-16-70.5-30t-107.5-14q-41 0-76 12t-61 36-41 59.5-15 82.5q0 68 45.5 135.5t126.5 121.5zM558 141q54 0 101 14t85.5 37 66.5 52.5 44 61.5v219h-172q-162 0-252-48t-90-151q0-40 13.5-74t40.5-58.5 68-38.5 95-14z" glyph-name="aogonek" unicode="&#x105;"/><glyph d="M1117 438q-13-101-52-185.5t-101.5-145-148-94-190.5-33.5q-90 0-163.5 25.5t-131 70.5-99 106-69 133-41 151-14.5 160v203q1 81 14.5 160t41 151 69 133.5 99 106.5 130.5 70.5 164 25.5q109 0 195-33.5t148-95 99.5-147.5 49.5-190h-185q-9 66-31 123t-59 100-90.5 67.5-126.5 24.5q-66 0-116.5-21.5t-87-58.5-61-86-39.5-104-21.5-112.5-6.5-111.5v-205q0-54 6.5-111.5t21.5-113 39-104.5 61-86.5 87-59 117-21.5q73 0 126.5 23t90.5 64.5 59 98 31 122.5h185zM764 1845h224l-268-266h-140z" glyph-name="Cacute" unicode="&#x106;"/><glyph d="M635 130q50 0 97.5 16t84.5 44.5 59.5 67 23.5 83.5h175q-1-72-37.5-137.5t-97.5-115-140-79-165-29.5q-123 0-215 44t-153.5 118.5-92.5 172-31 205.5v42q0 107 31 205t92.5 172.5 153.5 118.5 215 44q96 0 176.5-30.5t139-83 91.5-124.5 33-154h-175q-1 49-21.5 92.5t-55.5 76.5-83.5 52-104.5 19q-86 0-144.5-34.5t-94.5-90-51.5-124.5-15.5-139v-42q0-71 15.5-140.5t51-125 94-90 145.5-34.5zM741 1502h224l-268-266h-140z" glyph-name="cacute" unicode="&#x107;"/><glyph d="M1117 438q-13-101-52-185.5t-101.5-145-148-94-190.5-33.5q-90 0-163.5 25.5t-131 70.5-99 106-69 133-41 151-14.5 160v203q1 81 14.5 160t41 151 69 133.5 99 106.5 130.5 70.5 164 25.5q109 0 195-33.5t148-95 99.5-147.5 49.5-190h-185q-9 66-31 123t-59 100-90.5 67.5-126.5 24.5q-66 0-116.5-21.5t-87-58.5-61-86-39.5-104-21.5-112.5-6.5-111.5v-205q0-54 6.5-111.5t21.5-113 39-104.5 61-86.5 87-59 117-21.5q73 0 126.5 23t90.5 64.5 59 98 31 122.5h185zM970 1645v-25h-154l-150 151-149-151h-152v26l245 239h112z" glyph-name="Ccircumflex" unicode="&#x108;"/><glyph d="M635 130q50 0 97.5 16t84.5 44.5 59.5 67 23.5 83.5h175q-1-72-37.5-137.5t-97.5-115-140-79-165-29.5q-123 0-215 44t-153.5 118.5-92.5 172-31 205.5v42q0 107 31 205t92.5 172.5 153.5 118.5 215 44q96 0 176.5-30.5t139-83 91.5-124.5 33-154h-175q-1 49-21.5 92.5t-55.5 76.5-83.5 52-104.5 19q-86 0-144.5-34.5t-94.5-90-51.5-124.5-15.5-139v-42q0-71 15.5-140.5t51-125 94-90 145.5-34.5zM947 1302v-25h-154l-150 151-149-151h-152v26l245 239h112z" glyph-name="ccircumflex" unicode="&#x109;"/><glyph d="M1117 438q-13-101-52-185.5t-101.5-145-148-94-190.5-33.5q-90 0-163.5 25.5t-131 70.5-99 106-69 133-41 151-14.5 160v203q1 81 14.5 160t41 151 69 133.5 99 106.5 130.5 70.5 164 25.5q109 0 195-33.5t148-95 99.5-147.5 49.5-190h-185q-9 66-31 123t-59 100-90.5 67.5-126.5 24.5q-66 0-116.5-21.5t-87-58.5-61-86-39.5-104-21.5-112.5-6.5-111.5v-205q0-54 6.5-111.5t21.5-113 39-104.5 61-86.5 87-59 117-21.5q73 0 126.5 23t90.5 64.5 59 98 31 122.5h185zM550 1726q0 48 29 80t86 32 86-32 29-80q0-46-29-77.5t-86-31.5-86 31.5-29 77.5z" glyph-name="uni010A" unicode="&#x10a;"/><glyph d="M635 130q50 0 97.5 16t84.5 44.5 59.5 67 23.5 83.5h175q-1-72-37.5-137.5t-97.5-115-140-79-165-29.5q-123 0-215 44t-153.5 118.5-92.5 172-31 205.5v42q0 107 31 205t92.5 172.5 153.5 118.5 215 44q96 0 176.5-30.5t139-83 91.5-124.5 33-154h-175q-1 49-21.5 92.5t-55.5 76.5-83.5 52-104.5 19q-86 0-144.5-34.5t-94.5-90-51.5-124.5-15.5-139v-42q0-71 15.5-140.5t51-125 94-90 145.5-34.5zM527 1383q0 48 29 80t86 32 86-32 29-80q0-46-29-77.5t-86-31.5-86 31.5-29 77.5z" glyph-name="uni010B" unicode="&#x10b;"/><glyph d="M1117 438q-13-101-52-185.5t-101.5-145-148-94-190.5-33.5q-90 0-163.5 25.5t-131 70.5-99 106-69 133-41 151-14.5 160v203q1 81 14.5 160t41 151 69 133.5 99 106.5 130.5 70.5 164 25.5q109 0 195-33.5t148-95 99.5-147.5 49.5-190h-185q-9 66-31 123t-59 100-90.5 67.5-126.5 24.5q-66 0-116.5-21.5t-87-58.5-61-86-39.5-104-21.5-112.5-6.5-111.5v-205q0-54 6.5-111.5t21.5-113 39-104.5 61-86.5 87-59 117-21.5q73 0 126.5 23t90.5 64.5 59 98 31 122.5h185zM665 1734l151 152h160v-18l-254-248h-114l-251 245v21h157z" glyph-name="Ccaron" unicode="&#x10c;"/><glyph d="M635 130q50 0 97.5 16t84.5 44.5 59.5 67 23.5 83.5h175q-1-72-37.5-137.5t-97.5-115-140-79-165-29.5q-123 0-215 44t-153.5 118.5-92.5 172-31 205.5v42q0 107 31 205t92.5 172.5 153.5 118.5 215 44q96 0 176.5-30.5t139-83 91.5-124.5 33-154h-175q-1 49-21.5 92.5t-55.5 76.5-83.5 52-104.5 19q-86 0-144.5-34.5t-94.5-90-51.5-124.5-15.5-139v-42q0-71 15.5-140.5t51-125 94-90 145.5-34.5zM642 1391l151 152h160v-18l-254-248h-114l-251 245v21h157z" glyph-name="ccaron" unicode="&#x10d;"/><glyph d="M155 0v1456h337q152-2 271.5-51.5t202-138 126-212 44.5-273.5v-107q-1-150-44.5-273.5t-126-212-202-138-271.5-50.5h-337zM343 1304v-1153h149q118 1 204 41.5t142.5 110.5 84 165 28.5 206v109q-1 111-29 205.5t-84 164-142 109.5-204 42h-149zM574 1713l151 152h160v-18l-254-248h-114l-251 245v21h157z" glyph-name="Dcaron" unicode="&#x10e;"/><glyph d="M139 550q0 121 30.5 222.5t87 174.5 136.5 114 179 41q97 0 169.5-32.5t125.5-94.5v561h185v-1536h-170l-8 114q-54-66-129-100t-175-34q-98 0-177.5 42t-135.5 116-87 174.5-31 216.5v21zM324 529q0-79 17-150t52.5-125 90.5-85.5 132-31.5q47 0 85 11t69 31.5 55 49 42 63.5v502q-36 66-97 108.5t-152 42.5q-78 0-133.5-32t-91-86.5-52.5-126-17-150.5v-21zM1510 1410q0-47-11.5-99t-34-102.5-54.5-96.5-74-82l-101 72q47 71 70.5 145t23.5 160v150h181v-147z" glyph-name="dcaron" horiz-adv-x="1379" unicode="&#x10f;"/><glyph d="M185 0v666h-229v151h229v639h337q152-2 271.5-51.5t202-138 126-212 44.5-273.5v-107q-1-150-44.5-273.5t-126-212-202-138-271.5-50.5h-337zM593 666h-220v-515h149q118 1 204 41.5t142.5 110.5 84 165 28.5 206v109q-1 111-29 205.5t-84 164-142 109.5-204 42h-149v-487h220v-151z" glyph-name="Dcroat" horiz-adv-x="1259" unicode="&#x110;"/><glyph d="M1249 1234h-197v-1234h-170l-8 114q-54-66-129-100t-175-34q-98 0-177.5 42t-135.5 116-87 174.5-31 216.5v21q0 121 30.5 222.5t87 174.5 136.5 114 179 41q97 0 169.5-32.5t125.5-94.5v259h-255v151h255v151h185v-151h197v-151zM324 529q0-79 17-150t52.5-125 90.5-85.5 132-31.5q47 0 85 11t69 31.5 55 49 42 63.5v502q-36 66-97 108.5t-152 42.5q-78 0-133.5-32t-91-86.5-52.5-126-17-150.5v-21z" glyph-name="dcroat" horiz-adv-x="1259" unicode="&#x111;"/><glyph d="M975 673h-608v-516h709v-157h-894v1456h885v-158h-700v-468h608v-157zM980 1643h-714v143h714v-143z" glyph-name="Emacron" unicode="&#x112;"/><glyph d="M652-20q-114 0-209.5 39t-163.5 109-106 166-38 209v42q0 131 42 234.5t111.5 175 158 109.5 181.5 38q117 0 204.5-40.5t145.5-112 86.5-168.5 28.5-210v-83h-773q3-74 28.5-139t70-113.5 106.5-76.5 137-28q99 0 176 40t128 106l113-88q-27-41-67.5-78.5t-93.5-66.5-120-46.5-146-17.5zM628 950q-56 0-106-20.5t-90-60-67.5-97-38.5-132.5h582v14q-3 54-20.5 107t-51.5 95-85.5 68-122.5 26zM981 1322h-714v143h714v-143z" glyph-name="emacron" unicode="&#x113;"/><glyph d="M975 673h-608v-516h709v-157h-894v1456h885v-158h-700v-468h608v-157zM918 1866q0-59-21-108.5t-60-84.5-94-54.5-123-19.5q-69 0-124 19.5t-94 54.5-60.5 84.5-21.5 108.5h150q0-30 9-57.5t27-47.5 46-32 68-12q39 0 66.5 12t45.5 32 27 47.5 9 57.5h150z" glyph-name="Ebreve" unicode="&#x114;"/><glyph d="M652-20q-114 0-209.5 39t-163.5 109-106 166-38 209v42q0 131 42 234.5t111.5 175 158 109.5 181.5 38q117 0 204.5-40.5t145.5-112 86.5-168.5 28.5-210v-83h-773q3-74 28.5-139t70-113.5 106.5-76.5 137-28q99 0 176 40t128 106l113-88q-27-41-67.5-78.5t-93.5-66.5-120-46.5-146-17.5zM628 950q-56 0-106-20.5t-90-60-67.5-97-38.5-132.5h582v14q-3 54-20.5 107t-51.5 95-85.5 68-122.5 26zM919 1545q0-59-21-108.5t-60-84.5-94-54.5-123-19.5q-69 0-124 19.5t-94 54.5-60.5 84.5-21.5 108.5h150q0-30 9-57.5t27-47.5 46-32 68-12q39 0 66.5 12t45.5 32 27 47.5 9 57.5h150z" glyph-name="ebreve" unicode="&#x115;"/><glyph d="M975 673h-608v-516h709v-157h-894v1456h885v-158h-700v-468h608v-157zM503 1705q0 48 29 80t86 32 86-32 29-80q0-46-29-77.5t-86-31.5-86 31.5-29 77.5z" glyph-name="Edotaccent" unicode="&#x116;"/><glyph d="M652-20q-114 0-209.5 39t-163.5 109-106 166-38 209v42q0 131 42 234.5t111.5 175 158 109.5 181.5 38q117 0 204.5-40.5t145.5-112 86.5-168.5 28.5-210v-83h-773q3-74 28.5-139t70-113.5 106.5-76.5 137-28q99 0 176 40t128 106l113-88q-27-41-67.5-78.5t-93.5-66.5-120-46.5-146-17.5zM628 950q-56 0-106-20.5t-90-60-67.5-97-38.5-132.5h582v14q-3 54-20.5 107t-51.5 95-85.5 68-122.5 26zM504 1384q0 48 29 80t86 32 86-32 29-80q0-46-29-77.5t-86-31.5-86 31.5-29 77.5z" glyph-name="edotaccent" unicode="&#x117;"/><glyph d="M975 673h-608v-516h709v-157h-84q-78-42-125-97.5t-47-121.5q0-34 18-54.5t60-20.5q32-1 58.5 8.5t42.5 17.5l31-121q-28-16-70.5-30t-107.5-14q-41 0-76 12t-61 36-41 59.5-15 82.5q0 63 40 126.5t112 116.5h-629v1456h885v-158h-700v-468h608v-157z" glyph-name="Eogonek" unicode="&#x118;"/><glyph d="M1079 189q-34-51-87.5-96.5t-128.5-74.5h1q-78-42-125-97.5t-47-121.5q0-34 18-54.5t60-20.5q32-1 58.5 8.5t42.5 17.5l31-121q-28-16-70.5-30t-107.5-14q-41 0-76 12t-61 36-41 59.5-15 82.5q0 53 27.5 105.5t78.5 100.5q-111 3-203.5 43t-159 109.5-103 164-36.5 205.5v42q0 131 42 234.5t111.5 175 158 109.5 181.5 38q117 0 204.5-40.5t145.5-112 86.5-168.5 28.5-210v-83h-773q3-74 28.5-139t70-113.5 106.5-76.5 137-28q99 0 176 40t128 106zM628 950q-56 0-106-20.5t-90-60-67.5-97-38.5-132.5h582v14q-3 54-20.5 107t-51.5 95-85.5 68-122.5 26z" glyph-name="eogonek" unicode="&#x119;"/><glyph d="M975 673h-608v-516h709v-157h-894v1456h885v-158h-700v-468h608v-157zM618 1713l151 152h160v-18l-254-248h-114l-251 245v21h157z" glyph-name="Ecaron" unicode="&#x11a;"/><glyph d="M652-20q-114 0-209.5 39t-163.5 109-106 166-38 209v42q0 131 42 234.5t111.5 175 158 109.5 181.5 38q117 0 204.5-40.5t145.5-112 86.5-168.5 28.5-210v-83h-773q3-74 28.5-139t70-113.5 106.5-76.5 137-28q99 0 176 40t128 106l113-88q-27-41-67.5-78.5t-93.5-66.5-120-46.5-146-17.5zM628 950q-56 0-106-20.5t-90-60-67.5-97-38.5-132.5h582v14q-3 54-20.5 107t-51.5 95-85.5 68-122.5 26zM619 1392l151 152h160v-18l-254-248h-114l-251 245v21h157z" glyph-name="ecaron" unicode="&#x11b;"/><glyph d="M1116 191q-92-108-211-160t-261-51q-90 1-165.5 27.5t-135.5 73-105 109.5-75.5 136.5-46 154-16.5 162.5v169q1 81 14.5 161.5t41.5 154.5 70 137.5 100.5 110 132.5 73.5 166 27q102 0 188-31.5t150-90 103-141 48-184.5h-183q-11 63-34 116.5t-60.5 91.5-89.5 59.5-121 21.5q-66 0-117-22.5t-89-60.5-63-88.5-41-106.5-23-114-7-112v-171q1-55 9.5-113.5t26.5-114.5 46-106 67.5-88 91.5-60.5 118-23.5q38-1 79.5 3t80.5 16 73 32.5 57 53.5l2 327h-296v156h472zM943 1645v-25h-154l-150 151-149-151h-152v26l245 239h112z" glyph-name="Gcircumflex" unicode="&#x11c;"/><glyph d="M140 550q0 121 29.5 222.5t85.5 174.5 136 114 181 41q100 0 175.5-35.5t128.5-102.5l9 118h168v-1059q0-107-33.5-190t-94-141-144.5-88-186-30q-42 0-96 9.5t-109.5 31-107 57.5-88.5 89l96 111q34-41 70-69.5t73-45.5 74-24.5 74-7.5q66 0 119 19t90.5 55.5 57.5 90.5 20 124v93q-54-62-127.5-94.5t-170.5-32.5q-99 0-179 42t-135.5 116-85.5 174.5-30 216.5v21zM325 529q0-79 16.5-150t52-125 90.5-85.5 132-31.5q48 0 86.5 11.5t69 32.5 54.5 50 42 64v496q-18 34-42 62t-55 48.5-69 32-84 11.5q-78 0-133.5-32t-91-86.5-52-126-16.5-150.5v-21zM907 1302v-25h-154l-150 151-149-151h-152v26l245 239h112z" glyph-name="gcircumflex" unicode="&#x11d;"/><glyph d="M1116 191q-92-108-211-160t-261-51q-90 1-165.5 27.5t-135.5 73-105 109.5-75.5 136.5-46 154-16.5 162.5v169q1 81 14.5 161.5t41.5 154.5 70 137.5 100.5 110 132.5 73.5 166 27q102 0 188-31.5t150-90 103-141 48-184.5h-183q-11 63-34 116.5t-60.5 91.5-89.5 59.5-121 21.5q-66 0-117-22.5t-89-60.5-63-88.5-41-106.5-23-114-7-112v-171q1-55 9.5-113.5t26.5-114.5 46-106 67.5-88 91.5-60.5 118-23.5q38-1 79.5 3t80.5 16 73 32.5 57 53.5l2 327h-296v156h472zM938 1887q0-59-21-108.5t-60-84.5-94-54.5-123-19.5q-69 0-124 19.5t-94 54.5-60.5 84.5-21.5 108.5h150q0-30 9-57.5t27-47.5 46-32 68-12q39 0 66.5 12t45.5 32 27 47.5 9 57.5h150z" glyph-name="Gbreve" unicode="&#x11e;"/><glyph d="M140 550q0 121 29.5 222.5t85.5 174.5 136 114 181 41q100 0 175.5-35.5t128.5-102.5l9 118h168v-1059q0-107-33.5-190t-94-141-144.5-88-186-30q-42 0-96 9.5t-109.5 31-107 57.5-88.5 89l96 111q34-41 70-69.5t73-45.5 74-24.5 74-7.5q66 0 119 19t90.5 55.5 57.5 90.5 20 124v93q-54-62-127.5-94.5t-170.5-32.5q-99 0-179 42t-135.5 116-85.5 174.5-30 216.5v21zM325 529q0-79 16.5-150t52-125 90.5-85.5 132-31.5q48 0 86.5 11.5t69 32.5 54.5 50 42 64v496q-18 34-42 62t-55 48.5-69 32-84 11.5q-78 0-133.5-32t-91-86.5-52-126-16.5-150.5v-21zM903 1544q0-59-21-108.5t-60-84.5-94-54.5-123-19.5q-69 0-124 19.5t-94 54.5-60.5 84.5-21.5 108.5h150q0-30 9-57.5t27-47.5 46-32 68-12q39 0 66.5 12t45.5 32 27 47.5 9 57.5h150z" glyph-name="gbreve" unicode="&#x11f;"/><glyph d="M1116 191q-92-108-211-160t-261-51q-90 1-165.5 27.5t-135.5 73-105 109.5-75.5 136.5-46 154-16.5 162.5v169q1 81 14.5 161.5t41.5 154.5 70 137.5 100.5 110 132.5 73.5 166 27q102 0 188-31.5t150-90 103-141 48-184.5h-183q-11 63-34 116.5t-60.5 91.5-89.5 59.5-121 21.5q-66 0-117-22.5t-89-60.5-63-88.5-41-106.5-23-114-7-112v-171q1-55 9.5-113.5t26.5-114.5 46-106 67.5-88 91.5-60.5 118-23.5q38-1 79.5 3t80.5 16 73 32.5 57 53.5l2 327h-296v156h472zM523 1726q0 48 29 80t86 32 86-32 29-80q0-46-29-77.5t-86-31.5-86 31.5-29 77.5z" glyph-name="uni0120" unicode="&#x120;"/><glyph d="M140 550q0 121 29.5 222.5t85.5 174.5 136 114 181 41q100 0 175.5-35.5t128.5-102.5l9 118h168v-1059q0-107-33.5-190t-94-141-144.5-88-186-30q-42 0-96 9.5t-109.5 31-107 57.5-88.5 89l96 111q34-41 70-69.5t73-45.5 74-24.5 74-7.5q66 0 119 19t90.5 55.5 57.5 90.5 20 124v93q-54-62-127.5-94.5t-170.5-32.5q-99 0-179 42t-135.5 116-85.5 174.5-30 216.5v21zM325 529q0-79 16.5-150t52-125 90.5-85.5 132-31.5q48 0 86.5 11.5t69 32.5 54.5 50 42 64v496q-18 34-42 62t-55 48.5-69 32-84 11.5q-78 0-133.5-32t-91-86.5-52-126-16.5-150.5v-21zM488 1383q0 48 29 80t86 32 86-32 29-80q0-46-29-77.5t-86-31.5-86 31.5-29 77.5z" glyph-name="uni0121" unicode="&#x121;"/><glyph d="M1116 191q-92-108-211-160t-261-51q-90 1-165.5 27.5t-135.5 73-105 109.5-75.5 136.5-46 154-16.5 162.5v169q1 81 14.5 161.5t41.5 154.5 70 137.5 100.5 110 132.5 73.5 166 27q102 0 188-31.5t150-90 103-141 48-184.5h-183q-11 63-34 116.5t-60.5 91.5-89.5 59.5-121 21.5q-66 0-117-22.5t-89-60.5-63-88.5-41-106.5-23-114-7-112v-171q1-55 9.5-113.5t26.5-114.5 46-106 67.5-88 91.5-60.5 118-23.5q38-1 79.5 3t80.5 16 73 32.5 57 53.5l2 327h-296v156h472zM729-136q0-42-8.5-88t-26.5-91-45.5-86.5-64.5-73.5l-105 72q37 62 55.5 125.5t18.5 138.5v73h176v-70z" glyph-name="Gcommaaccent" unicode="&#x122;"/><glyph d="M140 550q0 121 29.5 222.5t85.5 174.5 136 114 181 41q100 0 175.5-35.5t128.5-102.5l9 118h168v-1059q0-107-33.5-190t-94-141-144.5-88-186-30q-42 0-96 9.5t-109.5 31-107 57.5-88.5 89l96 111q34-41 70-69.5t73-45.5 74-24.5 74-7.5q66 0 119 19t90.5 55.5 57.5 90.5 20 124v93q-54-62-127.5-94.5t-170.5-32.5q-99 0-179 42t-135.5 116-85.5 174.5-30 216.5v21zM325 529q0-79 16.5-150t52-125 90.5-85.5 132-31.5q48 0 86.5 11.5t69 32.5 54.5 50 42 64v496q-18 34-42 62t-55 48.5-69 32-84 11.5q-78 0-133.5-32t-91-86.5-52-126-16.5-150.5v-21zM512 1383q0 44 13 88.5t33.5 84.5 45 73 48.5 54l107-83q-35-59-48.5-112t-13.5-114v-120h-185v129z" glyph-name="gcommaaccent" unicode="&#x123;"/><glyph d="M1087 0h-175v673h-597v-673h-174v1456h174v-626h597v626h175v-1456zM911 1624v-25h-154l-150 151-149-151h-152v26l245 239h112z" glyph-name="Hcircumflex" unicode="&#x124;"/><glyph d="M359 921q58 85 143 132.5t191 48.5q85 0 154.5-24.5t118.5-76.5 75.5-131.5 26.5-188.5v-681h-185v683q0 133-63.5 198t-181.5 64q-89 0-161.5-43.5t-117.5-115.5v-786h-185v1536h185v-615zM834 1663v-25h-154l-150 151-149-151h-152v26l245 239h112z" glyph-name="hcircumflex" unicode="&#x125;"/><glyph d="M1084 1167h128v-143h-128v-1024h-175v673h-597v-673h-174v1024h-114v143h114v289h174v-289h597v289h175v-289zM312 830h597v194h-597v-194z" glyph-name="Hbar" unicode="&#x126;"/><glyph d="M663 1234h-274v-313q58 85 143 132.5t191 48.5q85 0 154.5-24.5t118.5-76.5 75.5-131.5 26.5-188.5v-681h-185v683q0 133-63.5 198t-181.5 64q-89 0-161.5-43.5t-117.5-115.5v-786h-185v1234h-178v151h178v151h185v-151h274v-151z" glyph-name="hbar" horiz-adv-x="1259" unicode="&#x127;"/><glyph d="M174 1456h880v-161h-349v-1135h349v-160h-880v160h341v1135h-341v161zM911 1844q0-45-15.5-86t-42.5-71.5-65-48.5-83-18q-33 0-59 7t-47.5 17.5-40.5 23-38.5 23-41.5 17.5-49 7q-44 0-72.5-32.5t-29.5-78.5l-104 24q0 45 15.5 86.5t42.5 73 64.5 50.5 83.5 19q42 0 75.5-15t65-32.5 64-32.5 71.5-15q21 0 40 9t32.5 24 22 35.5 8.5 43.5z" glyph-name="Itilde" unicode="&#x128;"/><glyph d="M203 1082h553v-922h353v-160h-906v160h368v761h-368v161zM1010 1501q0-45-15.5-86t-42.5-71.5-65-48.5-83-18q-33 0-59 7t-47.5 17.5-40.5 23-38.5 23-41.5 17.5-49 7q-44 0-72.5-32.5t-29.5-78.5l-104 24q0 45 15.5 86.5t42.5 73 64.5 50.5 83.5 19q42 0 75.5-15t65-32.5 64-32.5 71.5-15q21 0 40 9t32.5 24 22 35.5 8.5 43.5z" glyph-name="itilde" unicode="&#x129;"/><glyph d="M174 1456h880v-161h-349v-1135h349v-160h-880v160h341v1135h-341v161zM929 1643h-714v143h714v-143z" glyph-name="Imacron" unicode="&#x12a;"/><glyph d="M203 1082h553v-922h353v-160h-906v160h368v761h-368v161zM1027 1301h-714v143h714v-143z" glyph-name="imacron" unicode="&#x12b;"/><glyph d="M174 1456h880v-161h-349v-1135h349v-160h-880v160h341v1135h-341v161zM867 1866q0-59-21-108.5t-60-84.5-94-54.5-123-19.5q-69 0-124 19.5t-94 54.5-60.5 84.5-21.5 108.5h150q0-30 9-57.5t27-47.5 46-32 68-12q39 0 66.5 12t45.5 32 27 47.5 9 57.5h150z" glyph-name="Ibreve" unicode="&#x12c;"/><glyph d="M203 1082h553v-922h353v-160h-906v160h368v761h-368v161zM965 1523q0-59-21-108.5t-60-84.5-94-54.5-123-19.5q-69 0-124 19.5t-94 54.5-60.5 84.5-21.5 108.5h150q0-30 9-57.5t27-47.5 46-32 68-12q39 0 66.5 12t45.5 32 27 47.5 9 57.5h150z" glyph-name="ibreve" unicode="&#x12d;"/><glyph d="M174 1456h880v-161h-349v-1135h349v-160h-292q-78-42-125-97.5t-47-121.5q0-34 18-54.5t60-20.5q32-1 58.5 8.5t42.5 17.5l31-121q-28-16-70.5-30t-107.5-14q-41 0-76 12t-61 36-41 59.5-15 82.5q0 63 40 126.5t112 116.5h-407v160h341v1135h-341v161z" glyph-name="Iogonek" unicode="&#x12e;"/><glyph d="M203 1082h553v-922h353v-160h-353q-78-42-125-97.5t-47-121.5q0-34 18-54.5t60-20.5q32-1 58.5 8.5t42.5 17.5l31-121q-28-16-70.5-30t-107.5-14q-41 0-76 12t-61 36-41 59.5-15 82.5q0 63 40 126.5t112 116.5h-372v160h368v761h-368v161zM547 1366q0 46 27.5 77.5t83.5 31.5q55 0 83-31.5t28-77.5q0-45-28-75t-83-30q-56 0-83.5 30t-27.5 75z" glyph-name="iogonek" unicode="&#x12f;"/><glyph d="M174 1456h880v-161h-349v-1135h349v-160h-880v160h341v1135h-341v161zM452 1705q0 48 29 80t86 32 86-32 29-80q0-46-29-77.5t-86-31.5-86 31.5-29 77.5z" glyph-name="Idotaccent" unicode="&#x130;"/><glyph d="M203 1082h553v-922h353v-160h-906v160h368v761h-368v161z" glyph-name="dotlessi" unicode="&#x131;"/><glyph d="M313 0h-185v1456h185v-1456zM915 1456h185v-1133q0-81-20.5-144.5t-63-107.5-107-67-151.5-23q-73 0-134.5 20.5t-105.5 62.5-69 106-25 151h186q0-99 40-144t108-45q46 0 76 13.5t48 38 25.5 60 7.5 79.5v1133z" glyph-name="IJ" unicode="&#x132;"/><glyph d="M686 1082h407v-1087q0-104-28.5-183.5t-83-134.5-133-83-178.5-28q-57 0-106.5 3.5t-104.5 13.5l13 158q17-3 43-5.5t53-4 51-2 38-.5q52 0 98 12.5t80 43 53.5 82 19.5 128.5v926h-222v161zM85 1082h420v-922h223v-160h-648v160h239v761h-234v161zM881 1363q0 45 27 76.5t83 31.5 84-31.5 28-76.5-28-75.5-84-30.5-83 30.5-27 75.5zM303 1362q0 45 27.5 76.5t83.5 31.5q55 0 83-31.5t28-76.5-28-75.5-83-30.5q-56 0-83.5 30.5t-27.5 75.5z" glyph-name="ij" unicode="&#x133;"/><glyph d="M857 1456h189v-1013q-2-101-38.5-186t-99.5-146.5-148.5-96-186.5-34.5q-102 0-185.5 31t-145 88.5-98.5 139-46 182.5h188q3-61 24.5-113t58.5-90.5 88.5-59.5 115.5-21q66 0 118 24.5t88.5 66.5 56 97.5 21.5 117.5v1013zM1247 1611v-25h-154l-150 151-149-151h-152v26l245 239h112z" glyph-name="Jcircumflex" unicode="&#x134;"/><glyph d="M260 1082h550v-1089q0-104-28.5-184t-83-134.5-133-83-178.5-28.5q-57 0-106.5 3.5t-104.5 13.5l13 152q17-3 42.5-5.5t52.5-4 51.5-2 38.5-.5q52 0 97.5 13.5t79.5 45.5 53.5 84.5 19.5 129.5v928h-364v161zM1013 1272v-25h-154l-150 151-149-151h-152v26l245 239h112z" glyph-name="jcircumflex" unicode="&#x135;"/><glyph d="M523 676l-162-184v-492h-189v1456h189v-711l141 176 427 535h225l-509-637 543-819h-225zM734-111q0-42-8.5-88t-26.5-91-45.5-86.5-64.5-73.5l-105 72q37 62 55.5 125.5t18.5 138.5v73h176v-70z" glyph-name="Kcommaaccent" unicode="&#x136;"/><glyph d="M498 505l-136-131v-374h-186v1536h186v-940l121 130 355 356h225l-438-451 505-631h-235zM650-109q0-42-8.5-88t-26.5-91-45.5-86.5-64.5-73.5l-105 72q37 62 55.5 125.5t18.5 138.5v73h176v-70z" glyph-name="kcommaaccent" unicode="&#x137;"/><glyph d="M521 477l-150-133v-344h-185v1082h185v-531l110 120 398 411h223l-456-479 492-603h-234z" glyph-name="kgreenlandic" unicode="&#x138;"/><glyph d="M383 157h712v-157h-897v1456h185v-1299zM392 1792h224l-268-266h-140z" glyph-name="Lacute" unicode="&#x139;"/><glyph d="M203 1536h553v-1376h353v-160h-906v160h368v1215h-368v161zM756 1894h224l-268-266h-140z" glyph-name="lacute" unicode="&#x13a;"/><glyph d="M383 157h712v-157h-897v1456h185v-1299zM735-117q0-42-8.5-88t-26.5-91-45.5-86.5-64.5-73.5l-105 72q37 62 55.5 125.5t18.5 138.5v73h176v-70z" glyph-name="Lcommaaccent" unicode="&#x13b;"/><glyph d="M203 1536h553v-1376h353v-160h-906v160h368v1215h-368v161zM762-116q0-42-8.5-88t-26.5-91-45.5-86.5-64.5-73.5l-105 72q37 62 55.5 125.5t18.5 138.5v73h176v-70z" glyph-name="lcommaaccent" unicode="&#x13c;"/><glyph d="M383 157h712v-157h-897v1456h185v-1299zM978 1309q0-47-11.5-99t-34-102.5-54.5-96.5-74-82l-101 72q47 71 70.5 145t23.5 160v150h181v-147z" glyph-name="Lcaron" unicode="&#x13d;"/><glyph d="M203 1536h553v-1376h353v-160h-906v160h368v1215h-368v161zM1249 1393q0-47-11.5-99t-34-102.5-54.5-96.5-74-82l-101 72q47 71 70.5 145t23.5 160v150h181v-147z" glyph-name="lcaron" horiz-adv-x="1379" unicode="&#x13e;"/><glyph d="M383 157h712v-157h-897v1456h185v-1299zM614 787q0 48 29 80t86 32 86-32 29-80q0-46-29-77.5t-86-31.5-86 31.5-29 77.5z" glyph-name="Ldot" unicode="&#x13f;"/><glyph d="M203 1536h553v-1376h353v-160h-906v160h368v1215h-368v161zM882 821q0 48 29 80t86 32 86-32 29-80q0-46-29-77.5t-86-31.5-86 31.5-29 77.5z" glyph-name="ldot" horiz-adv-x="1449" unicode="&#x140;"/><glyph d="M387 845l262 83v-162l-262-83v-526h712v-157h-897v624l-144-45v162l144 45v670h185v-611z" glyph-name="Lslash" unicode="&#x141;"/><glyph d="M756 973l290 132-1-162-289-132v-651h353v-160h-906v160h368v566l-339-154v162l339 154v487h-368v161h553v-563z" glyph-name="lslash" unicode="&#x142;"/><glyph d="M1086 0h-188l-565 1088-3-1088h-187v1456h188l565-1086 3 1086h187v-1456zM688 1824h224l-268-266h-140z" glyph-name="Nacute" unicode="&#x143;"/><glyph d="M340 1082l13-160q59 84 145 131.5t192 48.5q85 0 154.5-24t118.5-75 75.5-129.5 26.5-186.5v-687h-185v683q0 72-16 122t-47.5 81-77 45-104.5 14q-93 0-163.5-46.5t-112.5-122.5v-776h-185v1082h166zM703 1502h224l-268-266h-140z" glyph-name="nacute" unicode="&#x144;"/><glyph d="M1086 0h-188l-565 1088-3-1088h-187v1456h188l565-1086 3 1086h187v-1456zM684-117q0-42-8.5-88t-26.5-91-45.5-86.5-64.5-73.5l-105 72q37 62 55.5 125.5t18.5 138.5v73h176v-70z" glyph-name="Ncommaaccent" unicode="&#x145;"/><glyph d="M340 1082l13-160q59 84 145 131.5t192 48.5q85 0 154.5-24t118.5-75 75.5-129.5 26.5-186.5v-687h-185v683q0 72-16 122t-47.5 81-77 45-104.5 14q-93 0-163.5-46.5t-112.5-122.5v-776h-185v1082h166zM699-117q0-42-8.5-88t-26.5-91-45.5-86.5-64.5-73.5l-105 72q37 62 55.5 125.5t18.5 138.5v73h176v-70z" glyph-name="ncommaaccent" unicode="&#x146;"/><glyph d="M1086 0h-188l-565 1088-3-1088h-187v1456h188l565-1086 3 1086h187v-1456zM590 1713l151 152h160v-18l-254-248h-114l-251 245v21h157z" glyph-name="Ncaron" unicode="&#x147;"/><glyph d="M340 1082l13-160q59 84 145 131.5t192 48.5q85 0 154.5-24t118.5-75 75.5-129.5 26.5-186.5v-687h-185v683q0 72-16 122t-47.5 81-77 45-104.5 14q-93 0-163.5-46.5t-112.5-122.5v-776h-185v1082h166zM605 1391l151 152h160v-18l-254-248h-114l-251 245v21h157z" glyph-name="ncaron" unicode="&#x148;"/><glyph d="M340 1082l13-160q59 84 145 131.5t192 48.5q85 0 154.5-24t118.5-75 75.5-129.5 26.5-186.5v-687h-185v683q0 72-16 122t-47.5 81-77 45-104.5 14q-93 0-163.5-46.5t-112.5-122.5v-776h-185v1082h166zM205 1411q0-47-11.5-99t-34-102.5-54.5-96.5-74-82l-101 72q47 71 70.5 145t23.5 160v150h181v-147z" glyph-name="napostrophe" unicode="&#x149;"/><glyph d="M1052 1456l1-1545q0-82-21.5-146.5t-62-109.5-99.5-68.5-135-23.5q-30 0-55.5 4t-54.5 14l14 147q8-3 21.5-5.5t28-4 27.5-2.5 19-1q65 0 98.5 54.5t33.5 141.5v91l-507 1067v-1069h-185v1456h185l507-1067v1067h185z" glyph-name="Eng" unicode="&#x14a;"/><glyph d="M350 1082l12-154q54 81 133.5 127.5t185.5 46.5q86 0 154-25t115-76.5 72-131 25-187.5v-771q0-167-84.5-257t-238.5-91q-30 0-57 4t-57 14l14 157q9-3 23-5.5t29-4 28-2.5 20-1q67 0 102.5 48t35.5 138v767q0 143-59 205t-177 62q-94 0-157-36.5t-100-98.5v-810h-185v1082h166z" glyph-name="eng" unicode="&#x14b;"/><glyph d="M1121 644q-1-78-13.5-157.5t-38.5-153.5-66.5-138-96.5-112-128.5-75.5-162.5-27.5-162.5 27.5-128.5 75.5-97 112.5-67.5 138.5-39.5 153-14 157v166q1 78 13.5 157.5t39 153.5 67 138.5 96.5 113 128.5 76 162.5 27.5 163-27.5 129-75.5 96.5-112.5 67-138.5 39-154 13.5-158v-166zM938 812q-1 52-7 108.5t-20.5 112-38.5 106-60 89-85 61-114 22.5q-64 0-113-23t-85-61.5-60-89-38.5-106-21-112-7.5-107.5v-168q1-51 7.5-108t21.5-112.5 39-106.5 60-89.5 85-61.5 114-23 114.5 23 85 61.5 59 89 38 106 20 112.5 6.5 109v168zM994 1664h-714v143h714v-143z" glyph-name="Omacron" unicode="&#x14c;"/><glyph d="M122 551q0 117 34 217.5t97.5 174.5 154.5 116.5 205 42.5q115 0 206.5-42.5t155-116.5 97.5-174.5 34-217.5v-22q0-117-34-217t-97.5-174-154.5-116-205-42q-115 0-206.5 42t-155 116-97.5 174-34 217v22zM307 529q0-80 19-152.5t57.5-127.5 96.5-87 135-32q76 0 133.5 32t96 87 57.5 127.5 19 152.5v22q0 79-19.5 151.5t-58 127.5-96 87.5-134.5 32.5-134-32.5-95.5-87.5-57.5-127.5-19-151.5v-22zM975 1321h-714v143h714v-143z" glyph-name="omacron" unicode="&#x14d;"/><glyph d="M1121 644q-1-78-13.5-157.5t-38.5-153.5-66.5-138-96.5-112-128.5-75.5-162.5-27.5-162.5 27.5-128.5 75.5-97 112.5-67.5 138.5-39.5 153-14 157v166q1 78 13.5 157.5t39 153.5 67 138.5 96.5 113 128.5 76 162.5 27.5 163-27.5 129-75.5 96.5-112.5 67-138.5 39-154 13.5-158v-166zM938 812q-1 52-7 108.5t-20.5 112-38.5 106-60 89-85 61-114 22.5q-64 0-113-23t-85-61.5-60-89-38.5-106-21-112-7.5-107.5v-168q1-51 7.5-108t21.5-112.5 39-106.5 60-89.5 85-61.5 114-23 114.5 23 85 61.5 59 89 38 106 20 112.5 6.5 109v168zM932 1887q0-59-21-108.5t-60-84.5-94-54.5-123-19.5q-69 0-124 19.5t-94 54.5-60.5 84.5-21.5 108.5h150q0-30 9-57.5t27-47.5 46-32 68-12q39 0 66.5 12t45.5 32 27 47.5 9 57.5h150z" glyph-name="Obreve" unicode="&#x14e;"/><glyph d="M122 551q0 117 34 217.5t97.5 174.5 154.5 116.5 205 42.5q115 0 206.5-42.5t155-116.5 97.5-174.5 34-217.5v-22q0-117-34-217t-97.5-174-154.5-116-205-42q-115 0-206.5 42t-155 116-97.5 174-34 217v22zM307 529q0-80 19-152.5t57.5-127.5 96.5-87 135-32q76 0 133.5 32t96 87 57.5 127.5 19 152.5v22q0 79-19.5 151.5t-58 127.5-96 87.5-134.5 32.5-134-32.5-95.5-87.5-57.5-127.5-19-151.5v-22zM913 1544q0-59-21-108.5t-60-84.5-94-54.5-123-19.5q-69 0-124 19.5t-94 54.5-60.5 84.5-21.5 108.5h150q0-30 9-57.5t27-47.5 46-32 68-12q39 0 66.5 12t45.5 32 27 47.5 9 57.5h150z" glyph-name="obreve" unicode="&#x14f;"/><glyph d="M1121 644q-1-78-13.5-157.5t-38.5-153.5-66.5-138-96.5-112-128.5-75.5-162.5-27.5-162.5 27.5-128.5 75.5-97 112.5-67.5 138.5-39.5 153-14 157v166q1 78 13.5 157.5t39 153.5 67 138.5 96.5 113 128.5 76 162.5 27.5 163-27.5 129-75.5 96.5-112.5 67-138.5 39-154 13.5-158v-166zM938 812q-1 52-7 108.5t-20.5 112-38.5 106-60 89-85 61-114 22.5q-64 0-113-23t-85-61.5-60-89-38.5-106-21-112-7.5-107.5v-168q1-51 7.5-108t21.5-112.5 39-106.5 60-89.5 85-61.5 114-23 114.5 23 85 61.5 59 89 38 106 20 112.5 6.5 109v168zM910 1887h225l-305-269h-169zM587 1887h207l-245-269h-150z" glyph-name="Ohungarumlaut" unicode="&#x150;"/><glyph d="M122 551q0 117 34 217.5t97.5 174.5 154.5 116.5 205 42.5q115 0 206.5-42.5t155-116.5 97.5-174.5 34-217.5v-22q0-117-34-217t-97.5-174-154.5-116-205-42q-115 0-206.5 42t-155 116-97.5 174-34 217v22zM307 529q0-80 19-152.5t57.5-127.5 96.5-87 135-32q76 0 133.5 32t96 87 57.5 127.5 19 152.5v22q0 79-19.5 151.5t-58 127.5-96 87.5-134.5 32.5-134-32.5-95.5-87.5-57.5-127.5-19-151.5v-22zM891 1544h225l-305-269h-169zM568 1544h207l-245-269h-150z" glyph-name="ohungarumlaut" unicode="&#x151;"/><glyph d="M1190 0h-428q-62-7-128-13.5t-135-6.5q-97 0-174.5 33.5t-132 99.5-84 163.5-29.5 225.5v451q0 128 29 225.5t83 163.5 131.5 100 174.5 34q69 0 136-6t129-14h418v-152h-397v-476h344v-152h-344v-525h407v-151zM499 131q49 0 99 3v1186q-25 2-50 3t-51 1q-57 0-101-18.5t-73-61.5-44-113.5-15-175.5v-453q0-105 15-176.5t45-114.5 74-61.5 101-18.5z" glyph-name="OE" unicode="&#x152;"/><glyph d="M46 639q0 105 22.5 190t66 146 107.5 94 146 33q84 0 148-33.5t108-95.5q45 63 105 96t130 33q83 0 143.5-32t100-89 58.5-135 19-169v-181h-458v-64q0-68 10-123.5t30-95.5 51-61.5 74-21.5q68 0 113.5 21t77.5 49l55-126q-17-18-39.5-35t-52.5-30-68-21-86-8q-87 0-152.5 32.5t-110.5 94.5q-44-61-107.5-94t-146.5-33-147 33-108 93-66.5 145-22.5 190v198zM232 441q0-68 8.5-125.5t27.5-98.5 49-64 73-23q42 0 71.5 23t48.5 64 28 98.5 9 125.5v198q0 68-9 125t-28 98.5-49.5 64.5-72.5 23-71.5-23.5-48-64.5-27.5-98.5-9-124.5v-198zM742 647h273v85q0 42-7.5 81t-24 69.5-42 49-62.5 18.5q-32 0-57.5-21.5t-43-60.5-27-94.5-9.5-122.5v-4z" glyph-name="oe" unicode="&#x153;"/><glyph d="M656 594h-291v-594h-184v1456h427q102-2 192-29t157.5-81 106-135.5 38.5-191.5q0-71-20.5-130t-56.5-107-86-85-110-63l309-622-1-12h-195zM365 746h248q62 1 117 19.5t96.5 53.5 65.5 85.5 24 116.5q0 70-23 122.5t-64 88-97.5 53.5-123.5 19h-243v-558zM714 1812h224l-268-266h-140z" glyph-name="Racute" unicode="&#x154;"/><glyph d="M883 1102q26 0 54-1.5t53.5-5 47-8.5 35.5-11l-25-181q-54 12-102.5 17.5t-101.5 5.5q-130 0-210.5-59t-118.5-165v-694h-186v1082h176l9-172q66 89 158.5 140.5t210.5 51.5zM682 1502h224l-268-266h-140z" glyph-name="racute" unicode="&#x155;"/><glyph d="M656 594h-291v-594h-184v1456h427q102-2 192-29t157.5-81 106-135.5 38.5-191.5q0-71-20.5-130t-56.5-107-86-85-110-63l309-622-1-12h-195zM365 746h248q62 1 117 19.5t96.5 53.5 65.5 85.5 24 116.5q0 70-23 122.5t-64 88-97.5 53.5-123.5 19h-243v-558zM708-117q0-42-8.5-88t-26.5-91-45.5-86.5-64.5-73.5l-105 72q37 62 55.5 125.5t18.5 138.5v73h176v-70z" glyph-name="Rcommaaccent" unicode="&#x156;"/><glyph d="M883 1102q26 0 54-1.5t53.5-5 47-8.5 35.5-11l-25-181q-54 12-102.5 17.5t-101.5 5.5q-130 0-210.5-59t-118.5-165v-694h-186v1082h176l9-172q66 89 158.5 140.5t210.5 51.5zM522-117q0-42-8.5-88t-26.5-91-45.5-86.5-64.5-73.5l-105 72q37 62 55.5 125.5t18.5 138.5v73h176v-70z" glyph-name="rcommaaccent" unicode="&#x157;"/><glyph d="M656 594h-291v-594h-184v1456h427q102-2 192-29t157.5-81 106-135.5 38.5-191.5q0-71-20.5-130t-56.5-107-86-85-110-63l309-622-1-12h-195zM365 746h248q62 1 117 19.5t96.5 53.5 65.5 85.5 24 116.5q0 70-23 122.5t-64 88-97.5 53.5-123.5 19h-243v-558zM615 1701l151 152h160v-18l-254-248h-114l-251 245v21h157z" glyph-name="Rcaron" unicode="&#x158;"/><glyph d="M883 1102q26 0 54-1.5t53.5-5 47-8.5 35.5-11l-25-181q-54 12-102.5 17.5t-101.5 5.5q-130 0-210.5-59t-118.5-165v-694h-186v1082h176l9-172q66 89 158.5 140.5t210.5 51.5zM584 1391l151 152h160v-18l-254-248h-114l-251 245v21h157z" glyph-name="rcaron" unicode="&#x159;"/><glyph d="M936 368q0 67-30.5 113t-78.5 77.5-105.5 52.5-110.5 38q-77 25-156.5 60t-145 86-107 120.5-41.5 163.5 41.5 168 108.5 125 152 77.5 171 26.5q95 0 183-31.5t156-88.5 109-138 43-181h-190q-8 63-31 114.5t-61 88.5-90.5 57.5-118.5 20.5q-53 0-103.5-15t-90-45-63-74-23.5-102q1-63 32-106.5t78.5-73.5 103-50 104.5-35q54-17 109-38.5t106-49.5 95-63 77-79.5 51.5-98 18.5-118.5q0-98-43.5-171t-112.5-121.5-156-73-174-24.5q-97 0-190 30t-166.5 86.5-119.5 138-49 185.5h189q9-68 37-120.5t72-89 101.5-55 125.5-18.5q54 0 106.5 13.5t93.5 42 67 72 26 103.5zM724 1845h224l-268-266h-140z" glyph-name="Sacute" unicode="&#x15a;"/><glyph d="M893 287q0 33-13 59.5t-44 48.5-82 40.5-127 33.5q-93 19-169.5 46t-131 64.5-84.5 88-30 117.5q0 66 31 123.5t87 100.5 133.5 68 170.5 25q100 0 180-26t136-72 86.5-107.5 30.5-132.5h-185q0 35-18 68.5t-50 59.5-77.5 42-102.5 16q-59 0-103.5-13t-74-35-44.5-51-15-60q0-32 12-57t41.5-45 79-36 125.5-31q100-21 179-48.5t133-66 82.5-89.5 28.5-118q0-72-32.5-131t-90.5-101-139-65-177-23q-110 0-196 29.5t-145.5 78-91 112.5-31.5 133h185q4-57 30.5-96t66-63 87.5-34 95-10q117 0 185 43t69 114zM726 1502h224l-268-266h-140z" glyph-name="sacute" unicode="&#x15b;"/><glyph d="M936 368q0 67-30.5 113t-78.5 77.5-105.5 52.5-110.5 38q-77 25-156.5 60t-145 86-107 120.5-41.5 163.5 41.5 168 108.5 125 152 77.5 171 26.5q95 0 183-31.5t156-88.5 109-138 43-181h-190q-8 63-31 114.5t-61 88.5-90.5 57.5-118.5 20.5q-53 0-103.5-15t-90-45-63-74-23.5-102q1-63 32-106.5t78.5-73.5 103-50 104.5-35q54-17 109-38.5t106-49.5 95-63 77-79.5 51.5-98 18.5-118.5q0-98-43.5-171t-112.5-121.5-156-73-174-24.5q-97 0-190 30t-166.5 86.5-119.5 138-49 185.5h189q9-68 37-120.5t72-89 101.5-55 125.5-18.5q54 0 106.5 13.5t93.5 42 67 72 26 103.5zM930 1645v-25h-154l-150 151-149-151h-152v26l245 239h112z" glyph-name="Scircumflex" unicode="&#x15c;"/><glyph d="M893 287q0 33-13 59.5t-44 48.5-82 40.5-127 33.5q-93 19-169.5 46t-131 64.5-84.5 88-30 117.5q0 66 31 123.5t87 100.5 133.5 68 170.5 25q100 0 180-26t136-72 86.5-107.5 30.5-132.5h-185q0 35-18 68.5t-50 59.5-77.5 42-102.5 16q-59 0-103.5-13t-74-35-44.5-51-15-60q0-32 12-57t41.5-45 79-36 125.5-31q100-21 179-48.5t133-66 82.5-89.5 28.5-118q0-72-32.5-131t-90.5-101-139-65-177-23q-110 0-196 29.5t-145.5 78-91 112.5-31.5 133h185q4-57 30.5-96t66-63 87.5-34 95-10q117 0 185 43t69 114zM932 1302v-25h-154l-150 151-149-151h-152v26l245 239h112z" glyph-name="scircumflex" unicode="&#x15d;"/><glyph d="M936 368q0 67-30.5 113t-78.5 77.5-105.5 52.5-110.5 38q-77 25-156.5 60t-145 86-107 120.5-41.5 163.5 41.5 168 108.5 125 152 77.5 171 26.5q95 0 183-31.5t156-88.5 109-138 43-181h-190q-8 63-31 114.5t-61 88.5-90.5 57.5-118.5 20.5q-53 0-103.5-15t-90-45-63-74-23.5-102q1-63 32-106.5t78.5-73.5 103-50 104.5-35q54-17 109-38.5t106-49.5 95-63 77-79.5 51.5-98 18.5-118.5q0-98-43.5-171t-112.5-121.5-156-73-174-24.5q-97 0-190 30t-166.5 86.5-119.5 138-49 185.5h189q9-68 37-120.5t72-89 101.5-55 125.5-18.5q54 0 106.5 13.5t93.5 42 67 72 26 103.5zM711-9l-12-52q29-5 56.5-17t49-32 34.5-50.5 13-73.5q0-97-79-153t-224-57l-7 107q34 0 64 5.5t52.5 17.5 36 30.5 13.5 45.5q0 25-10 42t-30.5 27.5-50.5 16.5-70 9l31 134h133z" glyph-name="Scedilla" unicode="&#x15e;"/><glyph d="M893 287q0 33-13 59.5t-44 48.5-82 40.5-127 33.5q-93 19-169.5 46t-131 64.5-84.5 88-30 117.5q0 66 31 123.5t87 100.5 133.5 68 170.5 25q100 0 180-26t136-72 86.5-107.5 30.5-132.5h-185q0 35-18 68.5t-50 59.5-77.5 42-102.5 16q-59 0-103.5-13t-74-35-44.5-51-15-60q0-32 12-57t41.5-45 79-36 125.5-31q100-21 179-48.5t133-66 82.5-89.5 28.5-118q0-72-32.5-131t-90.5-101-139-65-177-23q-110 0-196 29.5t-145.5 78-91 112.5-31.5 133h185q4-57 30.5-96t66-63 87.5-34 95-10q117 0 185 43t69 114zM698-8l-12-52q29-5 56.5-17t49-32 34.5-50.5 13-73.5q0-97-79-153t-224-57l-7 107q34 0 64 5.5t52.5 17.5 36 30.5 13.5 45.5q0 25-10 42t-30.5 27.5-50.5 16.5-70 9l31 134h133z" glyph-name="scedilla" unicode="&#x15f;"/><glyph d="M936 368q0 67-30.5 113t-78.5 77.5-105.5 52.5-110.5 38q-77 25-156.5 60t-145 86-107 120.5-41.5 163.5 41.5 168 108.5 125 152 77.5 171 26.5q95 0 183-31.5t156-88.5 109-138 43-181h-190q-8 63-31 114.5t-61 88.5-90.5 57.5-118.5 20.5q-53 0-103.5-15t-90-45-63-74-23.5-102q1-63 32-106.5t78.5-73.5 103-50 104.5-35q54-17 109-38.5t106-49.5 95-63 77-79.5 51.5-98 18.5-118.5q0-98-43.5-171t-112.5-121.5-156-73-174-24.5q-97 0-190 30t-166.5 86.5-119.5 138-49 185.5h189q9-68 37-120.5t72-89 101.5-55 125.5-18.5q54 0 106.5 13.5t93.5 42 67 72 26 103.5zM625 1734l151 152h160v-18l-254-248h-114l-251 245v21h157z" glyph-name="Scaron" unicode="&#x160;"/><glyph d="M893 287q0 33-13 59.5t-44 48.5-82 40.5-127 33.5q-93 19-169.5 46t-131 64.5-84.5 88-30 117.5q0 66 31 123.5t87 100.5 133.5 68 170.5 25q100 0 180-26t136-72 86.5-107.5 30.5-132.5h-185q0 35-18 68.5t-50 59.5-77.5 42-102.5 16q-59 0-103.5-13t-74-35-44.5-51-15-60q0-32 12-57t41.5-45 79-36 125.5-31q100-21 179-48.5t133-66 82.5-89.5 28.5-118q0-72-32.5-131t-90.5-101-139-65-177-23q-110 0-196 29.5t-145.5 78-91 112.5-31.5 133h185q4-57 30.5-96t66-63 87.5-34 95-10q117 0 185 43t69 114zM627 1391l151 152h160v-18l-254-248h-114l-251 245v21h157z" glyph-name="scaron" unicode="&#x161;"/></font>
</defs>
</svg>
