<!DOCTYPE svg PUBLIC "-//W3C//DTD SVG 20010904//EN" "http://www.w3.org/TR/2001/REC-SVG-20010904/DTD/svg10.dtd">
<svg version="1.0" xmlns="http://www.w3.org/2000/svg" width="1600px" height="532px" viewBox="0 0 16000 5320" preserveAspectRatio="xMidYMid meet">
<g id="layer101" fill="#4d4d4d" stroke="none">
 <path d="M4870 4784 c-214 -122 -616 -326 -800 -404 -158 -68 -312 -125 -460 -171 -81 -26 -129 -38 -286 -74 -20 -4 -20 -6 -6 -92 19 -120 11 -358 -17 -470 -63 -253 -187 -439 -341 -512 -45 -21 -70 -26 -135 -26 -106 0 -174 32 -267 126 -190 192 -272 568 -203 930 l7 36 -84 18 c-395 85 -891 295 -1490 631 -93 53 -171 94 -173 92 -2 -1 116 -219 262 -483 558 -1011 912 -1672 1183 -2215 112 -225 164 -319 173 -313 6 4 34 24 60 45 69 54 208 138 326 198 128 64 225 106 191 82 -83 -57 -286 -229 -398 -337 l-131 -126 65 -142 c93 -202 183 -414 334 -787 72 -179 135 -328 139 -332 3 -4 85 176 180 400 230 538 312 716 566 1227 209 421 438 862 755 1455 86 162 164 309 173 325 15 30 14 29 -119 -36 -111 -55 -301 -126 -414 -155 -14 -3 32 28 103 69 153 90 286 184 467 330 l134 108 134 247 c206 382 243 452 240 451 -2 0 -77 -43 -168 -95z"/>
 <path d="M5060 4420 c0 -57 -1 -60 -25 -60 -14 0 -25 -4 -25 -10 0 -5 25 -10 55 -10 30 0 55 5 55 10 0 6 -9 10 -20 10 -18 0 -20 7 -20 60 0 33 -4 60 -10 60 -6 0 -10 -27 -10 -60z"/>
 <path d="M5140 4409 c0 -61 2 -70 17 -67 10 2 23 22 32 51 8 26 17 47 21 47 4 0 13 -21 21 -47 23 -75 39 -67 37 19 l-1 73 -6 -60 -6 -60 -18 58 c-10 32 -23 57 -30 54 -6 -2 -19 -25 -28 -53 l-17 -49 -1 53 c-1 28 -5 52 -11 52 -6 0 -10 -30 -10 -71z"/>
 <path d="M13034 3455 c-82 -18 -166 -60 -224 -112 -54 -49 -113 -153 -129 -231 -7 -35 -11 -234 -11 -586 l0 -533 83 -17 c45 -9 85 -16 89 -16 4 0 9 246 10 548 l3 547 26 56 c71 150 215 211 419 176 178 -30 304 -119 373 -264 l32 -68 3 -472 3 -472 50 -15 c28 -9 66 -18 85 -22 l34 -6 0 518 c0 286 3 609 7 720 l6 201 -64 12 c-35 7 -74 15 -86 18 -23 5 -23 3 -23 -85 0 -49 -3 -110 -6 -135 l-7 -46 -37 57 c-104 160 -272 243 -490 241 -47 0 -113 -7 -146 -14z"/>
 <path d="M14885 3138 c-126 -176 -232 -321 -235 -323 -4 -2 -103 132 -221 297 -118 165 -219 307 -225 316 -9 12 -20 8 -72 -29 -34 -24 -62 -47 -62 -52 0 -6 328 -476 446 -638 l33 -46 -224 -294 c-124 -162 -225 -297 -225 -300 0 -3 26 -26 58 -51 l58 -45 209 268 c116 148 213 269 216 269 3 0 86 -115 184 -255 99 -140 181 -255 184 -255 3 0 32 24 64 53 l59 52 -168 235 c-92 129 -182 255 -200 280 l-33 46 137 189 c76 105 189 262 252 349 l114 159 -34 29 c-19 16 -46 38 -60 48 l-25 18 -230 -320z"/>
 <path d="M9630 2910 c0 -601 2 -579 -68 -642 -58 -52 -130 -72 -246 -66 -114 6 -187 33 -256 95 -90 81 -85 43 -88 596 -2 268 -4 487 -5 487 -2 0 -77 14 -167 30 -90 17 -172 30 -182 30 -17 0 -18 -44 -16 -996 l3 -997 180 -43 c99 -24 181 -43 183 -44 1 0 2 125 2 278 l0 278 -100 102 c-55 57 -104 111 -110 122 -5 10 48 -25 118 -77 152 -114 193 -135 296 -158 108 -24 328 -17 436 15 105 30 223 94 292 159 105 97 98 43 98 719 l0 589 -177 31 c-98 18 -181 32 -185 32 -5 0 -8 -243 -8 -540z"/>
 <path d="M5105 3411 c-232 -57 -381 -206 -431 -429 -23 -103 -16 -285 15 -363 67 -175 227 -285 469 -325 186 -31 344 -6 435 67 l40 32 -8 -49 c-10 -71 -32 -101 -95 -132 -52 -25 -63 -27 -190 -27 -133 0 -264 21 -447 69 -29 8 -53 11 -53 8 0 -27 71 -377 77 -382 4 -4 37 -15 73 -23 312 -76 654 -53 822 54 60 39 129 113 156 169 51 107 52 124 52 727 l0 563 -22 5 c-13 2 -79 14 -148 25 -69 11 -135 23 -147 25 -21 5 -23 2 -23 -30 0 -27 11 -48 47 -93 43 -52 74 -99 131 -192 12 -21 -34 19 -111 96 -108 107 -144 137 -200 163 -128 61 -300 77 -442 42z m270 -332 c174 -32 275 -145 244 -272 -42 -176 -307 -245 -492 -128 -115 74 -133 208 -41 302 51 53 89 75 155 93 68 18 64 18 134 5z"/>
 <path d="M6242 2664 l3 -768 183 -31 182 -31 0 110 0 110 58 -61 c31 -33 77 -70 101 -82 73 -38 188 -62 324 -68 l128 -6 -10 24 c-19 50 -109 256 -132 302 -21 43 -26 47 -59 47 -92 0 -222 54 -297 123 -82 75 -77 46 -83 562 l-5 460 -165 32 c-91 17 -180 34 -198 38 l-32 6 2 -767z"/>
 <path d="M7694 3416 c-160 -30 -270 -77 -379 -159 -201 -152 -299 -422 -266 -729 40 -374 238 -592 593 -654 69 -12 130 -15 238 -11 165 6 270 31 398 95 70 35 182 116 189 137 2 7 -163 209 -232 283 -2 2 -25 -13 -52 -34 -153 -117 -354 -135 -538 -48 -298 140 -274 590 39 744 60 30 81 35 161 38 143 6 244 -30 345 -124 l45 -42 124 118 123 118 -23 32 c-64 86 -235 190 -369 225 -87 23 -303 29 -396 11z"/>
 <path d="M11200 2707 l0 -724 73 -13 c39 -7 78 -15 85 -17 9 -4 12 28 12 138 l0 144 32 -53 c108 -187 329 -283 580 -252 157 19 266 77 343 181 85 116 85 113 85 740 l0 548 -37 10 c-21 5 -52 12 -69 16 l-31 6 -6 -122 c-4 -67 -7 -311 -7 -542 l0 -419 -31 -59 c-38 -72 -92 -122 -168 -158 -51 -24 -67 -26 -176 -26 -99 0 -131 4 -187 23 -126 44 -243 137 -296 237 l-27 50 0 484 0 485 -65 16 c-36 9 -75 20 -87 24 l-23 7 0 -724z"/>
 <path d="M10777 2963 c-4 -252 -7 -569 -7 -704 l0 -246 63 -28 c34 -15 68 -29 75 -32 9 -4 12 143 12 716 l0 721 -27 6 c-16 3 -44 10 -63 15 -19 5 -38 9 -41 9 -3 0 -9 -206 -12 -457z"/>
 <path d="M10320 2967 c0 -244 -3 -693 -7 -999 l-6 -555 84 -21 c46 -11 86 -19 88 -16 3 3 5 456 6 1007 l0 1002 -70 12 c-38 6 -76 12 -82 12 -10 1 -13 -94 -13 -442z"/>
 <path d="M15450 3260 c0 -53 -2 -60 -20 -60 -11 0 -20 -7 -20 -15 0 -12 13 -15 55 -15 42 0 55 3 55 15 0 9 -9 15 -25 15 -24 0 -25 3 -25 60 0 33 -4 60 -10 60 -6 0 -10 -27 -10 -60z"/>
 <path d="M15540 3245 c0 -95 18 -100 46 -12 l20 62 20 -59 c29 -87 44 -84 44 8 0 82 -19 108 -21 29 l-1 -48 -16 48 c-8 26 -21 47 -27 47 -6 0 -19 -21 -27 -47 l-16 -48 -1 48 c-2 79 -21 54 -21 -28z"/>
 <path d="M10785 1553 l-49 -56 55 -48 c30 -27 57 -49 61 -49 4 0 29 24 57 53 l51 52 -38 33 c-20 18 -48 41 -62 52 l-26 18 -49 -55z"/>
 </g>
<g id="layer102" fill="#1793d1" stroke="none">
 <path d="M4870 4784 c-214 -122 -616 -326 -800 -404 -233 -100 -469 -181 -640 -221 -47 -10 -95 -21 -106 -24 -20 -5 -21 -8 -11 -47 6 -24 11 -128 11 -233 0 -163 -3 -203 -22 -277 -65 -260 -187 -444 -342 -517 -45 -21 -70 -26 -135 -26 -106 0 -174 32 -267 126 -190 192 -272 568 -203 930 l7 36 -84 18 c-395 85 -891 295 -1490 631 -93 53 -171 94 -173 92 -2 -1 116 -219 262 -483 558 -1011 912 -1672 1183 -2215 112 -225 164 -319 173 -313 6 4 34 24 60 45 69 54 208 138 326 198 128 64 225 106 191 82 -83 -57 -286 -229 -398 -337 l-131 -126 65 -142 c93 -202 183 -414 334 -787 72 -179 135 -328 139 -332 3 -4 85 176 180 400 230 538 312 716 566 1227 209 421 438 862 755 1455 86 162 164 309 173 325 15 30 14 29 -119 -36 -111 -55 -301 -126 -414 -155 -14 -3 32 28 103 69 153 90 286 184 466 330 l135 108 139 257 c76 141 161 299 188 350 28 50 49 92 47 91 -2 0 -77 -43 -168 -95z"/>
 <path d="M5060 4420 c0 -57 -1 -60 -25 -60 -14 0 -25 -4 -25 -10 0 -5 25 -10 55 -10 30 0 55 5 55 10 0 6 -9 10 -20 10 -18 0 -20 7 -20 60 0 33 -4 60 -10 60 -6 0 -10 -27 -10 -60z"/>
 <path d="M5140 4409 c0 -61 2 -70 17 -67 10 2 23 22 32 51 8 26 17 47 21 47 4 0 13 -21 21 -47 23 -75 39 -67 37 19 l-1 73 -6 -60 -6 -60 -18 58 c-10 32 -23 57 -30 54 -6 -2 -19 -25 -28 -53 l-17 -49 -1 53 c-1 28 -5 52 -11 52 -6 0 -10 -30 -10 -71z"/>
 <path d="M13034 3455 c-82 -18 -166 -60 -224 -112 -54 -49 -113 -153 -129 -231 -7 -35 -11 -234 -11 -586 l0 -533 83 -17 c45 -9 85 -16 89 -16 4 0 9 246 10 548 l3 547 26 56 c71 150 215 211 419 176 178 -30 304 -119 373 -264 l32 -68 3 -472 3 -472 50 -15 c28 -9 66 -18 85 -22 l34 -6 0 518 c0 286 3 609 7 720 l6 201 -64 12 c-35 7 -74 15 -86 18 -23 5 -23 3 -23 -85 0 -49 -3 -110 -6 -135 l-7 -46 -37 57 c-104 160 -272 243 -490 241 -47 0 -113 -7 -146 -14z"/>
 <path d="M14885 3138 c-126 -176 -232 -321 -235 -323 -4 -2 -103 132 -221 297 -118 165 -219 307 -225 316 -9 12 -20 8 -72 -29 -34 -24 -62 -47 -62 -52 0 -6 328 -476 446 -638 l33 -46 -224 -294 c-124 -162 -225 -297 -225 -300 0 -3 26 -26 58 -51 l58 -45 209 268 c116 148 213 269 216 269 3 0 86 -115 184 -255 99 -140 181 -255 184 -255 3 0 32 24 64 53 l59 52 -168 235 c-92 129 -182 255 -200 280 l-33 46 137 189 c76 105 189 262 252 349 l114 159 -34 29 c-19 16 -46 38 -60 48 l-25 18 -230 -320z"/>
 <path d="M11200 2707 l0 -724 73 -13 c39 -7 78 -15 85 -17 9 -4 12 28 12 138 l0 144 32 -53 c108 -187 329 -283 580 -252 157 19 266 77 343 181 85 116 85 113 85 740 l0 548 -37 10 c-21 5 -52 12 -69 16 l-31 6 -6 -122 c-4 -67 -7 -311 -7 -542 l0 -419 -31 -59 c-38 -72 -92 -122 -168 -158 -51 -24 -67 -26 -176 -26 -99 0 -131 4 -187 23 -126 44 -243 137 -296 237 l-27 50 0 484 0 485 -65 16 c-36 9 -75 20 -87 24 l-23 7 0 -724z"/>
 <path d="M10777 2963 c-4 -252 -7 -569 -7 -704 l0 -246 63 -28 c34 -15 68 -29 75 -32 9 -4 12 143 12 716 l0 721 -27 6 c-16 3 -44 10 -63 15 -19 5 -38 9 -41 9 -3 0 -9 -206 -12 -457z"/>
 <path d="M10320 2967 c0 -244 -3 -693 -7 -999 l-6 -555 84 -21 c46 -11 86 -19 88 -16 3 3 5 456 6 1007 l0 1002 -70 12 c-38 6 -76 12 -82 12 -10 1 -13 -94 -13 -442z"/>
 <path d="M15450 3260 c0 -53 -2 -60 -20 -60 -11 0 -20 -7 -20 -15 0 -12 13 -15 55 -15 42 0 55 3 55 15 0 9 -9 15 -25 15 -24 0 -25 3 -25 60 0 33 -4 60 -10 60 -6 0 -10 -27 -10 -60z"/>
 <path d="M15540 3245 c0 -95 18 -100 46 -12 l20 62 20 -59 c29 -87 44 -84 44 8 0 82 -19 108 -21 29 l-1 -48 -16 48 c-8 26 -21 47 -27 47 -6 0 -19 -21 -27 -47 l-16 -48 -1 48 c-2 79 -21 54 -21 -28z"/>
 <path d="M10785 1553 l-49 -56 55 -48 c30 -27 57 -49 61 -49 4 0 29 24 57 53 l51 52 -38 33 c-20 18 -48 41 -62 52 l-26 18 -49 -55z"/>
 </g>

</svg>